<?xml version="1.0" standalone="no"?>
<!DOCTYPE svg PUBLIC "-//W3C//DTD SVG 1.1//EN" "http://www.w3.org/Graphics/SVG/1.1/DTD/svg11.dtd" >
<svg xmlns="http://www.w3.org/2000/svg" xmlns:xlink="http://www.w3.org/1999/xlink" version="1.1">
<metadata>
Created by FontForge 20170731 at Wed Oct 17 00:58:48 2018
 By Aleksey,,,
Copyright (c) 2018 by Typetype. Designer Ivan Gladkikh, technical designers Philipp Nurullin, Vika Usmanova, Nadyr Rakhimov, Marina Khodak. All rights reserved. |DCNT
</metadata>
<defs>
<font id="TTFirsNeue-Light" horiz-adv-x="600" >
  <font-face 
    font-family="TT Firs Neue Light"
    font-weight="300"
    font-stretch="normal"
    units-per-em="1000"
    panose-1="2 0 5 3 3 0 0 2 0 4"
    ascent="800"
    descent="-200"
    x-height="500"
    cap-height="700"
    bbox="-435 -280 1438 1030"
    underline-thickness="50"
    underline-position="-300"
    unicode-range="U+000D-FB02"
  />
<missing-glyph horiz-adv-x="0" 
 />
    <glyph glyph-name="ff" unicode="ff" horiz-adv-x="605" 
d="M25 445v55h70v200h225v-55h-165v-145h245v200h225v-55h-165v-145h135v-55h-135v-445h-60v445h-245v-445h-60v445h-70z" />
    <glyph glyph-name="fi" unicode="fi" horiz-adv-x="540" 
d="M25 445v55h70v200h335v-55h-275v-145h305v-500h-60v445h-245v-445h-60v445h-70z" />
    <glyph glyph-name="fl" unicode="fl" horiz-adv-x="590" 
d="M25 445v55h70v200h365v-645h115v-55h-175v645h-245v-145h135v-55h-135v-445h-60v445h-70z" />
    <glyph glyph-name="f_j" unicode="fj" horiz-adv-x="540" 
d="M25 445v55h70v200h335v-55h-275v-145h305v-690h-205v55h145v580h-245v-445h-60v445h-70z" />
    <glyph glyph-name="f_t" unicode="ft" horiz-adv-x="660" 
d="M25 445v55h70v200h365v-200h165v-55h-165v-390h170v-55h-230v445h-245v-445h-60v445h-70zM155 500h245v145h-245v-145z" />
    <glyph glyph-name=".notdef" horiz-adv-x="0" 
 />
    <glyph glyph-name=".null" horiz-adv-x="0" 
 />
    <glyph glyph-name=".null" horiz-adv-x="0" 
 />
    <glyph glyph-name="nonmarkingreturn" horiz-adv-x="333" 
 />
    <glyph glyph-name="CR" unicode="&#xd;" horiz-adv-x="0" 
 />
    <glyph glyph-name="space" unicode=" " horiz-adv-x="280" 
 />
    <glyph glyph-name="exclam" unicode="!" horiz-adv-x="280" 
d="M110 335v365h60v-365l-10 -135h-40zM90 35q0 23 13.5 36.5t36.5 13.5t36.5 -13.5t13.5 -36.5t-13.5 -36.5t-36.5 -13.5t-36.5 14t-13.5 36z" />
    <glyph glyph-name="quotedbl" unicode="&#x22;" horiz-adv-x="355" 
d="M70 570v130h60v-130l-10 -115h-40zM225 570v130h60v-130l-10 -115h-40z" />
    <glyph glyph-name="numbersign" unicode="#" horiz-adv-x="660" 
d="M30 205v50h125l55 190h-120v50h135l60 205h60l-60 -205h175l60 205h60l-60 -205h110v-50h-125l-55 -190h120v-50h-135l-60 -205h-60l60 205h-175l-60 -205h-60l60 205h-110zM215 255h175l55 190h-175z" />
    <glyph glyph-name="dollar" unicode="$" horiz-adv-x="635" 
d="M45 185h65q14 -42 42 -73q64 -72 173 -72q94 0 144.5 40t50.5 100q0 16 -3.5 29t-12.5 25t-16.5 20.5t-24.5 18t-26.5 14.5t-32.5 13.5t-33 11.5t-37 11.5t-36 11.5q-40 11 -67 21t-59 26.5t-51.5 35.5t-32.5 48t-13 64q0 73 58.5 127t156.5 62v91h65v-92
q122 -14 185 -99q28 -37 40 -84h-65q-11 35 -36 62q-59 63 -164 63q-83 0 -129 -37.5t-46 -92.5q0 -69 93 -109q31 -14 130 -43q41 -13 66.5 -22.5t58.5 -27t51.5 -36.5t32 -48t13.5 -64q0 -78 -62 -134.5t-168 -64.5v-91h-65v92q-130 10 -201 108q-30 40 -44 95z" />
    <glyph glyph-name="percent" unicode="%" horiz-adv-x="765" 
d="M40 545q0 68 48.5 116.5t116.5 48.5t116.5 -48.5t48.5 -116.5t-48.5 -116.5t-116.5 -48.5t-116.5 48.5t-48.5 116.5zM140 0l420 700h65l-420 -700h-65zM100 545q0 -48 30 -79t75 -31t75 31t30 79t-30 79t-75 31t-75 -31t-30 -79zM395 155q0 68 48.5 116.5t116.5 48.5
t116.5 -48.5t48.5 -116.5t-48.5 -116.5t-116.5 -48.5t-116.5 48.5t-48.5 116.5zM455 155q0 -48 30 -79t75 -31t75 31t30 79t-30 79t-75 31t-75 -31t-30 -79z" />
    <glyph glyph-name="ampersand" unicode="&#x26;" horiz-adv-x="700" 
d="M25 230q0 105 71.5 177.5t173.5 72.5q24 0 50 -8q3 -2 20 -7v1l-6 9l-109 165v60h390v-60h-315v-1l420 -639h-75l-128 195l-6 10h-1q0 -95 -67 -160t-168 -65q-105 0 -177.5 72.5t-72.5 177.5zM95 230q0 -82 52 -136t128 -54t128 54t52 136t-52 136t-128 54t-128 -54
t-52 -136z" />
    <glyph glyph-name="quotesingle" unicode="'" horiz-adv-x="200" 
d="M70 570v130h60v-130l-10 -115h-40z" />
    <glyph glyph-name="parenleft" unicode="(" horiz-adv-x="365" 
d="M80 290q0 194 117 347q52 69 118 118l35 -45q-56 -44 -103 -109q-102 -144 -102 -311q0 -164 102 -311q47 -65 103 -109l-35 -45q-66 49 -118 118q-117 153 -117 347z" />
    <glyph glyph-name="parenright" unicode=")" horiz-adv-x="365" 
d="M117 -21q103 148 103 311q0 166 -103 311q-47 64 -102 109l35 45q65 -50 117 -118q118 -156 118 -347t-118 -347q-52 -68 -117 -118l-35 45q55 45 102 109z" />
    <glyph glyph-name="asterisk" unicode="*" horiz-adv-x="360" 
d="M35 530v50h120v120h50v-120h120v-50h-105l70 -105l-45 -25l-65 105l-65 -105l-45 25l70 105h-105z" />
    <glyph glyph-name="plus" unicode="+" horiz-adv-x="500" 
d="M55 280v55h165v175h60v-175h165v-55h-165v-175h-60v175h-165z" />
    <glyph glyph-name="comma" unicode="," horiz-adv-x="195" 
d="M45 30q0 23 13.5 36.5t36.5 13.5q25 0 40 -20t15 -60q0 -102 -100 -120v30q60 15 60 65q0 2 -3 14l-2 6l-6 -3q-10 -2 -14 -2q-15 0 -27.5 12.5t-12.5 27.5z" />
    <glyph glyph-name="hyphen" unicode="-" horiz-adv-x="480" 
d="M60 250v60h360v-60h-360z" />
    <glyph glyph-name="period" unicode="." horiz-adv-x="190" 
d="M45 35q0 23 13.5 36.5t36.5 13.5t36.5 -13.5t13.5 -36.5t-13.5 -36.5t-36.5 -13.5t-36.5 14t-13.5 36z" />
    <glyph glyph-name="slash" unicode="/" horiz-adv-x="350" 
d="M5 0l275 700h65l-275 -700h-65z" />
    <glyph glyph-name="zero" unicode="0" horiz-adv-x="740" 
d="M60 350q0 167 89 268.5t221 101.5t221 -101.5t89 -268.5t-89 -268.5t-221 -101.5t-221 101.5t-89 268.5zM125 350q0 -145 69.5 -227.5t175.5 -82.5t175.5 82.5t69.5 227.5t-69.5 227.5t-175.5 82.5t-175.5 -82.5t-69.5 -227.5z" />
    <glyph glyph-name="one" unicode="1" horiz-adv-x="310" 
d="M25 525v70l135 105h60v-700h-65v625z" />
    <glyph glyph-name="two" unicode="2" horiz-adv-x="570" 
d="M30 0v60l215 165q120 92 165 148t45 127q0 69 -48.5 114.5t-126.5 45.5q-94 0 -141 -78q-22 -36 -29 -77h-70q7 57 37 107q65 108 203 108q103 0 171.5 -64.5t68.5 -155.5q0 -83 -55.5 -155.5t-164.5 -154.5l-160 -121l-10 -7v-3l10 1h380v-60h-490z" />
    <glyph glyph-name="three" unicode="3" horiz-adv-x="590" 
d="M25 180h65q10 -38 36 -70q58 -70 164 -70q85 0 135 45.5t50 114.5t-50 114.5t-135 45.5h-125v60l250 219v1h-355v60h445v-60l-240 -210l-10 -8v-2h35q110 0 180 -64t70 -156t-70 -156t-180 -64q-145 0 -219 100q-32 42 -46 100z" />
    <glyph glyph-name="four" unicode="4" horiz-adv-x="585" 
d="M30 160v60l250 480h70l-250 -480h305v190h5h60v-190h105v-60h-105v-160h-65v160h-375z" />
    <glyph glyph-name="five" unicode="5" horiz-adv-x="615" 
d="M60 180h65q10 -36 37 -70q58 -70 158 -70q81 0 133 51t52 129t-52 129t-133 51q-75 0 -130 -43q-25 -17 -40 -42h-60l30 385h405v-60h-350l-20 -239v-1q18 18 41 30q54 30 124 30q108 0 179 -69t71 -171t-71 -171t-179 -69q-140 0 -213 100q-33 44 -47 100z" />
    <glyph glyph-name="six" unicode="6" horiz-adv-x="605" 
d="M40 225q0 17 1.5 32t6.5 31t7 26.5t12.5 27.5t13.5 23.5t17.5 26t17.5 23.5t22 27.5t22 27.5l180 230h75l-185 -234l-4 -5l-1 -1l20 5q25 5 65 5q105 0 177.5 -71.5t72.5 -173.5t-74.5 -173.5t-185.5 -71.5t-185.5 71.5t-74.5 173.5zM105 225q0 -79 55 -132t140 -53
t140 53t55 132t-55 132t-140 53t-140 -53t-55 -132z" />
    <glyph glyph-name="seven" unicode="7" horiz-adv-x="485" 
d="M10 640v60h455v-60l-295 -640h-70l295 639v1h-385z" />
    <glyph glyph-name="eight" unicode="8" horiz-adv-x="640" 
d="M50 190q0 41 15.5 75.5t34 52.5t45 33t35.5 18t19 6v1q-3 0 -14 4.5t-29.5 16t-35 28.5t-28.5 46t-12 64q0 75 66.5 130t173.5 55t173.5 -55t66.5 -130q0 -80 -60 -126q-26 -21 -60 -33v-1q42 -12 75 -36q75 -57 75 -149q0 -86 -74 -148t-196 -62t-196 62t-74 148z
M145 535q0 -53 46.5 -94t128.5 -41t128.5 41t46.5 94q0 52 -46 88.5t-129 36.5t-129 -36.5t-46 -88.5zM115 190q0 -64 54 -107t151 -43t151 43t54 107t-54 107t-151 43t-151 -43t-54 -107z" />
    <glyph glyph-name="nine" unicode="9" horiz-adv-x="605" 
d="M45 475q0 102 74.5 173.5t185.5 71.5t185.5 -71.5t74.5 -173.5q0 -17 -1.5 -32t-6.5 -31t-7 -26.5t-12.5 -27.5t-13.5 -23.5t-17.5 -26t-17.5 -23.5t-22 -27.5t-22 -27.5l-180 -230h-75l185 234l4 5l1 1q-9 -4 -20 -5q-25 -5 -65 -5q-105 0 -177.5 71.5t-72.5 173.5z
M110 475q0 -79 55 -132t140 -53t140 53t55 132t-55 132t-140 53t-140 -53t-55 -132z" />
    <glyph glyph-name="colon" unicode=":" horiz-adv-x="190" 
d="M45 462q0 23 13.5 36.5t36.5 13.5t36.5 -13.5t13.5 -36.5t-13.5 -36.5t-36.5 -13.5t-36.5 14t-13.5 36zM45 35q0 23 13.5 36.5t36.5 13.5t36.5 -13.5t13.5 -36.5t-13.5 -36.5t-36.5 -13.5t-36.5 14t-13.5 36z" />
    <glyph glyph-name="semicolon" unicode=";" horiz-adv-x="190" 
d="M45 30q0 23 13.5 36.5t36.5 13.5q25 0 40 -20t15 -60q0 -102 -100 -120v30q60 15 60 65q0 2 -3 14l-2 6l-6 -3q-10 -2 -14 -2q-15 0 -27.5 12.5t-12.5 27.5zM45 462q0 23 13.5 36.5t36.5 13.5t36.5 -13.5t13.5 -36.5t-13.5 -36.5t-36.5 -13.5t-36.5 14t-13.5 36z" />
    <glyph glyph-name="less" unicode="&#x3c;" horiz-adv-x="500" 
d="M55 215v70l380 200v-60l-320 -170v-10l320 -170v-60z" />
    <glyph glyph-name="equal" unicode="=" horiz-adv-x="500" 
d="M65 330v55h370v-55h-370zM65 145v55h370v-55h-370z" />
    <glyph glyph-name="greater" unicode="&#x3e;" horiz-adv-x="500" 
d="M65 15v60l320 170v10l-320 170v60l380 -200v-70z" />
    <glyph glyph-name="question" unicode="?" horiz-adv-x="525" 
d="M80 520h-65q13 55 46 100q69 100 204 100q99 0 162 -57t63 -138q0 -61 -28.5 -98.5t-78.5 -70.5q-52 -33 -80 -68t-28 -93h-65q0 67 29 109.5t79 74.5q27 18 40.5 28t32 28.5t26.5 40.5t8 49q0 58 -43.5 96.5t-116.5 38.5q-97 0 -151 -70q-23 -31 -34 -70zM195 35
q0 23 13.5 36.5t36.5 13.5t36.5 -13.5t13.5 -36.5t-13.5 -36.5t-36.5 -13.5t-36.5 14t-13.5 36z" />
    <glyph glyph-name="at" unicode="@" horiz-adv-x="815" 
d="M50 320q0 158 108.5 266.5t266.5 108.5q152 0 251 -91.5t99 -208.5q0 -107 -67.5 -168.5t-196.5 -61.5h-1v50h-1q-2 -2 -6 -10q-31 -50 -103 -50q-60 0 -105 47.5t-45 117.5t44.5 117.5t105.5 47.5q79 0 109 -60h1v50h60v-255q66 0 105.5 45t39.5 130q0 99 -80 172
t-210 73q-136 0 -228 -91t-92 -229q0 -141 90.5 -230.5t229.5 -89.5q74 0 137 25q25 9 53 25v-55q-28 -16 -53 -25q-63 -25 -137 -25q-161 0 -268 107t-107 268zM310 320q0 -48 28.5 -79t71.5 -31t71.5 31t28.5 79t-28.5 79t-71.5 31t-71.5 -31t-28.5 -79z" />
    <glyph glyph-name="A" unicode="A" horiz-adv-x="670" 
d="M25 0l185 700h250l185 -700h-65l-60 230h-370l-60 -230h-65zM165 290h340l-95 350h-150z" />
    <glyph glyph-name="B" unicode="B" horiz-adv-x="700" 
d="M90 0v700h325q89 0 144.5 -52.5t55.5 -132.5q0 -72 -48 -118q-22 -20 -47 -32v-5q34 -10 62 -32q63 -49 63 -133q0 -85 -62 -140t-168 -55h-325zM155 390h260q63 0 99 34t36 91t-36 91t-99 34h-260v-250zM155 60h260q81 0 123 36.5t42 98.5t-42 98.5t-123 36.5h-260v-270
z" />
    <glyph glyph-name="C" unicode="C" horiz-adv-x="800" 
d="M50 350q0 160 103 265t257 105q168 0 273 -125q45 -55 67 -125h-65q-20 53 -57 95q-85 95 -218 95q-129 0 -212 -86t-83 -224t83 -224t212 -86q136 0 222 102q37 44 58 103h65q-22 -74 -69 -133q-104 -132 -276 -132q-154 0 -257 105t-103 265z" />
    <glyph glyph-name="D" unicode="D" horiz-adv-x="720" 
d="M90 0v700h220q157 0 258.5 -99.5t101.5 -250.5t-101.5 -250.5t-258.5 -99.5h-220zM155 60h155q131 0 213 81t82 209t-82 209t-213 81h-155v-580z" />
    <glyph glyph-name="E" unicode="E" horiz-adv-x="610" 
d="M90 0v700h475v-60h-410v-255h335v-60h-335v-265h410v-60h-475z" />
    <glyph glyph-name="F" unicode="F" horiz-adv-x="580" 
d="M90 0v700h465v-60h-400v-275h320v-60h-320v-305h-65z" />
    <glyph glyph-name="G" unicode="G" horiz-adv-x="860" 
d="M50 350q0 160 103 265t257 105q170 0 271 -123q45 -54 69 -122h-65q-23 53 -59 92q-87 93 -216 93t-212 -86t-83 -224t83 -224t212 -86q114 0 193.5 74.5t91.5 185.5h-140v60h295v-60h-90q-22 -144 -116 -232t-234 -88q-154 0 -257 105t-103 265z" />
    <glyph glyph-name="H" unicode="H" horiz-adv-x="715" 
d="M90 0v700h65v-315h405v315h65v-700h-65v325h-405v-325h-65z" />
    <glyph glyph-name="I" unicode="I" horiz-adv-x="245" 
d="M90 0v700h65v-700h-65z" />
    <glyph glyph-name="J" unicode="J" horiz-adv-x="550" 
d="M0 155l65 15q11 -38 32 -65q49 -65 138 -65q76 0 120.5 47t44.5 133v480h65v-480q0 -111 -62.5 -175.5t-167.5 -64.5q-124 0 -191 87q-31 40 -44 88z" />
    <glyph glyph-name="K" unicode="K" horiz-adv-x="635" 
d="M90 0v700h65v-315h155l225 315h80l-245 -340l255 -360h-80l-230 325h-160v-325h-65z" />
    <glyph glyph-name="L" unicode="L" horiz-adv-x="545" 
d="M90 0v700h65v-640h380v-60h-445z" />
    <glyph glyph-name="M" unicode="M" horiz-adv-x="915" 
d="M90 0v700h105l230 -465h65l230 465h105v-700h-65v630l1 10h-1l-230 -465h-145l-230 465l-1 -1l1 -9v-630h-65z" />
    <glyph glyph-name="N" unicode="N" horiz-adv-x="725" 
d="M90 0v700h100l380 -635h1l-1 10v625h65v-700h-100l-380 635h-1l1 -10v-625h-65z" />
    <glyph glyph-name="O" unicode="O" horiz-adv-x="820" 
d="M50 350q0 160 103 265t257 105t257 -105t103 -265t-103 -265t-257 -105t-257 105t-103 265zM115 350q0 -138 83 -224t212 -86t212 86t83 224t-83 224t-212 86t-212 -86t-83 -224z" />
    <glyph glyph-name="P" unicode="P" horiz-adv-x="665" 
d="M90 0v700h285q114 0 182 -63t68 -162t-68 -162t-182 -63h-220v-250h-65zM155 310h220q89 0 137 44.5t48 120.5t-48 120.5t-137 44.5h-220v-330z" />
    <glyph glyph-name="Q" unicode="Q" horiz-adv-x="820" 
d="M50 350q0 160 103 265t257 105t257 -105t103 -265q0 -152 -92.5 -255t-232.5 -113v-182h-65v181q-143 10 -236.5 113.5t-93.5 255.5zM115 350q0 -138 83 -224t212 -86t212 86t83 224t-83 224t-212 86t-212 -86t-83 -224z" />
    <glyph glyph-name="R" unicode="R" horiz-adv-x="680" 
d="M90 0v700h290q114 0 179.5 -59.5t65.5 -155.5q0 -82 -48.5 -139t-136.5 -71l180 -275h-75l-175 270h-215v-270h-65zM155 330h225q89 0 134.5 40.5t45.5 114.5t-45.5 114.5t-134.5 40.5h-225v-310z" />
    <glyph glyph-name="S" unicode="S" horiz-adv-x="635" 
d="M45 185h65q14 -42 42 -73q64 -72 173 -72q94 0 144.5 40t50.5 100q0 16 -3.5 29t-12.5 25t-16.5 20.5t-24.5 18t-26.5 14.5t-32.5 13.5t-33 11.5t-37 11.5t-36 11.5q-40 11 -67 21t-59 26.5t-51.5 35.5t-32.5 48t-13 64q0 78 66 134t174 56q142 0 219 -93q33 -40 46 -92
h-65q-11 35 -36 62q-59 63 -164 63q-83 0 -129 -37.5t-46 -92.5q0 -69 93 -109q31 -14 130 -43q41 -13 66.5 -22.5t58.5 -27t51.5 -36.5t32 -48t13.5 -64q0 -83 -70.5 -141.5t-189.5 -58.5q-150 0 -230 102q-35 46 -50 103z" />
    <glyph glyph-name="T" unicode="T" horiz-adv-x="585" 
d="M10 640v60h565v-60h-250v-640h-65v640h-250z" />
    <glyph glyph-name="U" unicode="U" horiz-adv-x="710" 
d="M85 260v440h65v-440q0 -105 55 -162.5t150 -57.5t150 57.5t55 162.5v440h65v-440q0 -127 -74.5 -203.5t-195.5 -76.5t-195.5 76.5t-74.5 203.5z" />
    <glyph glyph-name="V" unicode="V" horiz-adv-x="675" 
d="M30 700h70l165 -640h145l165 640h70l-185 -700h-245z" />
    <glyph glyph-name="W" unicode="W" horiz-adv-x="960" 
d="M40 700h70l135 -640h35l140 640h120l140 -640h35l135 640h70l-155 -700h-135l-135 640h-30l-135 -640h-135z" />
    <glyph glyph-name="X" unicode="X" horiz-adv-x="630" 
d="M25 0l190 350l-180 350h70l165 -320h90l165 320h70l-180 -350l190 -350h-70l-175 320h-90l-175 -320h-70z" />
    <glyph glyph-name="Y" unicode="Y" horiz-adv-x="635" 
d="M10 700h80l225 -370h5l225 370h80l-275 -445v-255h-65v255z" />
    <glyph glyph-name="Z" unicode="Z" 
d="M35 0v60l440 575v5h-425v60h510v-60l-440 -575v-5h445v-60h-530z" />
    <glyph glyph-name="bracketleft" unicode="[" horiz-adv-x="325" 
d="M90 -145v870h210v-60h-145v-750h145v-60h-210z" />
    <glyph glyph-name="backslash" unicode="\" horiz-adv-x="350" 
d="M5 700h65l275 -700h-65z" />
    <glyph glyph-name="bracketright" unicode="]" horiz-adv-x="325" 
d="M25 -145v60h145v750h-145v60h210v-870h-210z" />
    <glyph glyph-name="asciicircum" unicode="^" horiz-adv-x="460" 
d="M45 385l145 315h80l145 -315h-60l-115 255h-20l-115 -255h-60z" />
    <glyph glyph-name="underscore" unicode="_" horiz-adv-x="310" 
d="M-20 -165v55h350v-55h-350z" />
    <glyph glyph-name="grave" unicode="`" horiz-adv-x="225" 
d="M30 694v1h75l90 -145h-50z" />
    <glyph glyph-name="a" unicode="a" horiz-adv-x="615" 
d="M45 250q0 111 70 185.5t170 74.5q71 0 120 -34.5t69 -75.5h1v100h60v-500h-60v100h-1q-20 -41 -69 -75.5t-120 -34.5q-100 0 -170 74.5t-70 185.5zM105 250q0 -88 54.5 -146.5t130.5 -58.5q74 0 129.5 58.5t55.5 146.5t-55.5 146.5t-129.5 58.5q-76 0 -130.5 -58.5
t-54.5 -146.5z" />
    <glyph glyph-name="b" unicode="b" horiz-adv-x="615" 
d="M80 0v700h60v-300h1q16 40 67 75t122 35q100 0 170 -74.5t70 -185.5t-70 -185.5t-170 -74.5q-71 0 -122 35t-67 75h-1v-100h-60zM140 250q0 -88 55.5 -146.5t129.5 -58.5q76 0 130.5 58.5t54.5 146.5t-54.5 146.5t-130.5 58.5q-74 0 -129.5 -58.5t-55.5 -146.5z" />
    <glyph glyph-name="c" unicode="c" horiz-adv-x="570" 
d="M45 250q0 111 71.5 185.5t173.5 74.5q119 0 189 -88q31 -38 46 -87h-60q-14 35 -37 60q-52 60 -138 60q-76 0 -130.5 -58.5t-54.5 -146.5t54.5 -146.5t130.5 -58.5q87 0 142 65q26 30 38 65h60q-15 -51 -47 -93q-76 -92 -193 -92q-102 0 -173.5 74.5t-71.5 185.5z" />
    <glyph glyph-name="d" unicode="d" horiz-adv-x="615" 
d="M45 250q0 111 70 185.5t170 74.5q71 0 120 -34.5t69 -75.5h1v300h60v-700h-60v100h-1q-20 -41 -69 -75.5t-120 -34.5q-100 0 -170 74.5t-70 185.5zM105 250q0 -88 54.5 -146.5t130.5 -58.5q74 0 129.5 58.5t55.5 146.5t-55.5 146.5t-129.5 58.5q-76 0 -130.5 -58.5
t-54.5 -146.5z" />
    <glyph glyph-name="e" unicode="e" horiz-adv-x="590" 
d="M45 250q0 112 72 186t178 74q105 0 177.5 -73.5t72.5 -181.5v-25h-440q4 -79 58 -132t132 -53q86 0 141 55q26 24 39 55h60q-18 -47 -51 -83q-74 -82 -189 -82q-106 0 -178 74t-72 186zM105 285h375q-8 73 -59.5 121.5t-125.5 48.5t-126 -48t-64 -122z" />
    <glyph glyph-name="f" unicode="f" horiz-adv-x="300" 
d="M25 445v55h70v200h225v-55h-165v-145h135v-55h-135v-445h-60v445h-70z" />
    <glyph glyph-name="g" unicode="g" horiz-adv-x="615" 
d="M45 250q0 111 70 185.5t170 74.5q71 0 120 -34.5t69 -75.5h1v100h60v-690h-425v55h365v235h-1q-20 -41 -69 -75.5t-120 -34.5q-100 0 -170 74.5t-70 185.5zM105 250q0 -88 54.5 -146.5t130.5 -58.5q74 0 129.5 58.5t55.5 146.5t-55.5 146.5t-129.5 58.5
q-76 0 -130.5 -58.5t-54.5 -146.5z" />
    <glyph glyph-name="h" unicode="h" horiz-adv-x="580" 
d="M80 0v700h60v-285h1q18 37 63.5 66t115.5 29q84 0 137 -58t53 -157v-295h-60v295q0 77 -37.5 118.5t-102.5 41.5q-72 0 -121 -51t-49 -129v-275h-60z" />
    <glyph glyph-name="i" unicode="i" horiz-adv-x="220" 
d="M65 650q0 19 13 32t32 13t32 -13t13 -32t-13 -32t-32 -13t-32 13t-13 32zM80 0v500h60v-500h-60z" />
    <glyph glyph-name="j" unicode="j" horiz-adv-x="220" 
d="M65 650q0 19 13 32t32 13t32 -13t13 -32t-13 -32t-32 -13t-32 13t-13 32zM-65 -190v55h145v635h60v-690h-205z" />
    <glyph glyph-name="k" unicode="k" horiz-adv-x="515" 
d="M80 0v700h60v-410h120l165 210h70l-185 -240l200 -260h-70l-180 235h-120v-235h-60z" />
    <glyph glyph-name="l" unicode="l" horiz-adv-x="270" 
d="M80 0v700h60v-645h115v-55h-175z" />
    <glyph glyph-name="m" unicode="m" horiz-adv-x="910" 
d="M80 0v500h60v-85h1q16 27 39 47q54 48 130 48q74 0 125 -55q21 -24 35 -55h5q12 27 40 55q59 55 145 55q77 0 128.5 -58t51.5 -157v-295h-60v295q0 77 -35.5 118.5t-94.5 41.5q-64 0 -112 -48.5t-48 -116.5v-290h-60v295q0 77 -35.5 118.5t-94.5 41.5q-64 0 -112 -48.5
t-48 -116.5v-290h-60z" />
    <glyph glyph-name="n" unicode="n" horiz-adv-x="580" 
d="M80 0v500h60v-85h1q18 37 63.5 66t115.5 29q84 0 137 -58t53 -157v-295h-60v295q0 77 -37.5 118.5t-102.5 41.5q-72 0 -121 -51t-49 -129v-275h-60z" />
    <glyph glyph-name="o" unicode="o" 
d="M45 250q0 112 73 186t182 74t182 -74t73 -186t-73 -186t-182 -74t-182 74t-73 186zM105 250q0 -89 56 -147t139 -58t139 58t56 147t-56 147t-139 58t-139 -58t-56 -147z" />
    <glyph glyph-name="p" unicode="p" horiz-adv-x="615" 
d="M80 -190v690h60v-100h1q16 40 67 75t122 35q100 0 170 -74.5t70 -185.5t-70 -185.5t-170 -74.5q-71 0 -122 35t-67 75h-1v-290h-60zM140 250q0 -88 55.5 -146.5t129.5 -58.5q76 0 130.5 58.5t54.5 146.5t-54.5 146.5t-130.5 58.5q-74 0 -129.5 -58.5t-55.5 -146.5z" />
    <glyph glyph-name="q" unicode="q" horiz-adv-x="615" 
d="M45 250q0 111 70 185.5t170 74.5q71 0 120 -34.5t69 -75.5h1v100h60v-690h-60v290h-1q-20 -41 -69 -75.5t-120 -34.5q-100 0 -170 74.5t-70 185.5zM105 250q0 -88 54.5 -146.5t130.5 -58.5q74 0 129.5 58.5t55.5 146.5t-55.5 146.5t-129.5 58.5q-76 0 -130.5 -58.5
t-54.5 -146.5z" />
    <glyph glyph-name="r" unicode="r" horiz-adv-x="370" 
d="M80 0v500h60v-95h1q13 28 35 50q50 50 129 50h55v-55h-55q-72 0 -118.5 -48.5t-46.5 -126.5v-275h-60z" />
    <glyph glyph-name="s" unicode="s" horiz-adv-x="510" 
d="M40 150h65q13 -32 34 -53q48 -52 131 -52q68 0 101.5 24.5t33.5 65.5q0 22 -13 38.5t-41.5 27.5t-51 17t-64.5 15q-49 9 -83.5 23t-60.5 44.5t-26 74.5q0 55 49.5 95t135.5 40q108 0 171 -73q27 -31 39 -72h-65q-11 27 -29 45q-45 45 -116 45q-60 0 -92.5 -23.5
t-32.5 -56.5q0 -18 10 -32.5t24 -24t39.5 -17.5t45 -12.5t51.5 -10.5q36 -8 63.5 -17.5t53 -26t39.5 -41.5t14 -58q0 -63 -50.5 -104t-144.5 -41q-120 0 -186 80q-31 35 -44 80z" />
    <glyph glyph-name="t" unicode="t" horiz-adv-x="355" 
d="M25 445v55h70v110h60v-110h165v-55h-165v-390h170v-55h-230v445h-70z" />
    <glyph glyph-name="u" unicode="u" horiz-adv-x="590" 
d="M80 205v295h60v-295q0 -77 37.5 -118.5t102.5 -41.5q72 0 121 51t49 129v275h60v-500h-60v85h-1q-20 -38 -64 -66.5t-115 -28.5q-84 0 -137 58t-53 157z" />
    <glyph glyph-name="v" unicode="v" horiz-adv-x="525" 
d="M25 500h65l120 -445h105l120 445h65l-140 -500h-195z" />
    <glyph glyph-name="w" unicode="w" horiz-adv-x="770" 
d="M35 500h65l95 -445h35l90 445h130l90 -445h35l95 445h65l-110 -500h-135l-90 445h-30l-90 -445h-135z" />
    <glyph glyph-name="x" unicode="x" horiz-adv-x="485" 
d="M10 0l150 255l-140 245h70l120 -215h65l120 215h70l-140 -245l150 -255h-70l-130 230h-65l-130 -230h-70z" />
    <glyph glyph-name="y" unicode="y" horiz-adv-x="505" 
d="M25 500h65l115 -445h95l130 445h65l-205 -690h-65l60 190h-125z" />
    <glyph glyph-name="z" unicode="z" horiz-adv-x="470" 
d="M30 0v55l320 389v1h-310v55h390v-55l-320 -389v-1h330v-55h-410z" />
    <glyph glyph-name="braceleft" unicode="{" horiz-adv-x="340" 
d="M45 265v55h30q55 0 55 55v230q0 53 35.5 86.5t94.5 33.5h60v-60h-60q-30 0 -47.5 -16.5t-17.5 -43.5v-230q0 -44 -30 -66q-12 -9 -30 -14v-5q18 -5 30 -14q30 -22 30 -66v-235q0 -27 17.5 -43.5t47.5 -16.5h60v-60h-60q-59 0 -94.5 33.5t-35.5 86.5v235q0 55 -55 55h-30z
" />
    <glyph glyph-name="bar" unicode="|" horiz-adv-x="305" 
d="M120 -100v850h65v-850h-65z" />
    <glyph glyph-name="braceright" unicode="}" horiz-adv-x="340" 
d="M20 -145v60h60q30 0 47.5 16.5t17.5 43.5v235q0 44 30 66q12 9 30 14v5q-18 5 -30 14q-30 22 -30 66v230q0 27 -17.5 43.5t-47.5 16.5h-60v60h60q59 0 94.5 -33.5t35.5 -86.5v-230q0 -55 55 -55h30v-55h-30q-55 0 -55 -55v-235q0 -53 -35.5 -86.5t-94.5 -33.5h-60z" />
    <glyph glyph-name="asciitilde" unicode="~" horiz-adv-x="500" 
d="M45 245v20q0 56 30 88t80 32q46 0 104 -40q2 -1 9 -6.5t9.5 -7t8.5 -5.5l9 -6t8.5 -5t9.5 -4t8.5 -3t9 -2.5t9.5 -0.5q55 0 55 60v20h60v-20q0 -56 -30 -88t-80 -32q-47 0 -103 40q-3 2 -12 8.5t-12.5 8.5t-11 7t-12 7t-11 4.5t-12 3.5t-11.5 1q-55 0 -55 -60v-20h-60z
" />
    <glyph glyph-name="nbspace" unicode="&#xa0;" horiz-adv-x="280" 
 />
    <glyph glyph-name="exclamdown" unicode="&#xa1;" horiz-adv-x="280" 
d="M90 460q0 23 13.5 36.5t36.5 13.5t36.5 -14t13.5 -36q0 -23 -13.5 -36.5t-36.5 -13.5t-36.5 13.5t-13.5 36.5zM110 -190v350l10 135h40l10 -135v-350h-60z" />
    <glyph glyph-name="cent" unicode="&#xa2;" horiz-adv-x="570" 
d="M45 250q0 104 61.5 176t153.5 84v80h60v-80q102 -14 164 -95q28 -37 41 -80h-60q-14 35 -37 60q-52 60 -138 60q-76 0 -130.5 -58.5t-54.5 -146.5t54.5 -146.5t130.5 -58.5q87 0 142 65q26 30 38 65h60q-13 -44 -41 -85q-61 -86 -169 -100v-90h-60v90q-92 12 -153.5 84
t-61.5 176z" />
    <glyph glyph-name="sterling" unicode="&#xa3;" horiz-adv-x="550" 
d="M30 0v60h15q80 0 80 90v195h-75v60h75v130q0 86 54.5 140.5t140.5 54.5q109 0 163 -80q25 -35 32 -80h-65q-7 27 -24 50q-38 50 -106 50q-60 0 -95 -36t-35 -99v-130h170v-60h-170v-195q0 -45 -18 -69q-8 -12 -17 -16v-5h375v-60h-500z" />
    <glyph glyph-name="currency" unicode="&#xa4;" horiz-adv-x="665" 
d="M35 110v60h85v90h-85v60h85v380h255q114 0 182 -62.5t68 -157.5t-68 -157.5t-182 -62.5h-190v-90h255v-60h-255v-110h-65v110h-85zM185 320h190q89 0 137 43t48 117t-48 117t-137 43h-190v-320z" />
    <glyph glyph-name="yen" unicode="&#xa5;" horiz-adv-x="635" 
d="M10 700h80l225 -360h5l225 360h80l-270 -420h150v-60h-155v-70h155v-60h-155v-90h-65v90h-155v60h155v70h-155v60h150z" />
    <glyph glyph-name="brokenbar" unicode="&#xa6;" horiz-adv-x="305" 
d="M120 385v365h65v-365h-65zM120 -100v365h65v-365h-65z" />
    <glyph glyph-name="section" unicode="&#xa7;" horiz-adv-x="560" 
d="M55 125h65q9 -25 29 -45q45 -45 131 -45q76 0 113 23t37 57q0 21 -14 37.5t-41.5 28t-54.5 19.5t-66 18q-6 1 -9 2q-54 12 -90.5 26.5t-65.5 44t-29 69.5q0 41 29.5 72t75.5 43v1q-36 13 -63 43t-27 66q0 56 53 95.5t152 39.5q115 0 179 -70q27 -30 41 -70h-65
q-11 26 -29 42q-47 43 -126 43q-73 0 -109 -23t-36 -57q0 -22 14 -38.5t44.5 -29t55.5 -19.5t69 -17q54 -14 89.5 -28t64 -43.5t28.5 -69.5q0 -41 -28.5 -72t-71.5 -43v-1q36 -13 63 -43t27 -66q0 -57 -53.5 -96t-156.5 -39q-120 0 -184 72q-29 32 -41 73zM120 360
q0 -55 148 -89l77 -21q41 7 68 33.5t27 56.5q0 32 -38 52.5t-105 37.5q-27 6 -77 20q-44 -8 -72 -33.5t-28 -56.5z" />
    <glyph glyph-name="dieresis" unicode="&#xa8;" horiz-adv-x="320" 
d="M200 650q0 19 13 32t32 13t32 -13t13 -32t-13 -32t-32 -13t-32 13t-13 32zM30 650q0 19 13 32t32 13t32 -13t13 -32t-13 -32t-32 -13t-32 13t-13 32z" />
    <glyph glyph-name="copyright" unicode="&#xa9;" horiz-adv-x="840" 
d="M50 350q0 158 106 264t264 106t264 -106t106 -264t-106 -264t-264 -106t-264 106t-106 264zM110 350q0 -135 89 -225t221 -90t221 90t89 225t-89 225t-221 90t-221 -90t-89 -225zM250 350q0 81 49.5 133t125.5 52q79 0 134 -63q22 -27 36 -62h-65q-7 16 -23 35
q-33 35 -82 35q-50 0 -82.5 -35.5t-32.5 -94.5t32.5 -94.5t82.5 -35.5q53 0 82 35q14 16 23 35h65q-13 -36 -36 -63q-54 -62 -134 -62q-76 0 -125.5 52t-49.5 133z" />
    <glyph glyph-name="ordfeminine" unicode="&#xaa;" horiz-adv-x="380" 
d="M45 470q0 43 31.5 69t87.5 26h106v20q0 29 -20 49.5t-50 20.5q-39 0 -64 -23q-12 -12 -16 -22h-65q9 25 31 50q46 50 114 50q56 0 93 -36t37 -89v-210h-60v45h-5q-10 -15 -24 -25q-33 -25 -81 -25q-52 0 -83.5 28.5t-31.5 71.5zM105 470q0 -20 16.5 -32.5t48.5 -12.5
q40 0 70 27.5t30 62.5h-100q-32 0 -48.5 -12.5t-16.5 -32.5z" />
    <glyph glyph-name="guillemotleft" unicode="&#xab;" horiz-adv-x="530" 
d="M235 250l205 235l40 -40l-170 -195l170 -195l-40 -40zM35 250l205 235l40 -40l-170 -195l170 -195l-40 -40z" />
    <glyph glyph-name="logicalnot" unicode="&#xac;" horiz-adv-x="500" 
d="M60 285v55h375v-165h-60v110h-315z" />
    <glyph glyph-name="uni00AD" unicode="&#xad;" horiz-adv-x="480" 
d="M60 250v60h360v-60h-360z" />
    <glyph glyph-name="registered" unicode="&#xae;" 
d="M40 465q0 109 74 182t186 73t186 -73t74 -182t-74 -182t-186 -73t-186 73t-74 182zM90 465q0 -90 58.5 -147.5t151.5 -57.5t151.5 57.5t58.5 147.5t-58.5 147.5t-151.5 57.5t-151.5 -57.5t-58.5 -147.5zM205 345v245h110q48 0 74 -23t26 -62t-28 -60q-12 -11 -27 -15
l55 -85h-55l-50 75h-55v-75h-50zM255 470h60q50 0 50 35t-50 35h-60v-70z" />
    <glyph glyph-name="macron" unicode="&#xaf;" horiz-adv-x="315" 
d="M30 640v55h255v-55h-255z" />
    <glyph glyph-name="degree" unicode="&#xb0;" horiz-adv-x="330" 
d="M35 575q0 52 39 88.5t91 36.5t91 -36.5t39 -88.5t-39 -88.5t-91 -36.5t-91 36.5t-39 88.5zM90 575q0 -33 22 -54t53 -21t53 21t22 54t-22 54t-53 21t-53 -21t-22 -54z" />
    <glyph glyph-name="plusminus" unicode="&#xb1;" horiz-adv-x="500" 
d="M55 30v55h165v170h-165v55h165v175h60v-175h165v-55h-165v-170h165v-55h-390z" />
    <glyph glyph-name="twosuperior" unicode="&#xb2;" horiz-adv-x="350" 
d="M35 460v55l85 50q71 42 100.5 71t29.5 59q0 27 -19 43.5t-56 16.5q-40 0 -64 -30q-12 -15 -16 -30h-60q8 33 25 57q40 58 115 58q62 0 98.5 -32.5t36.5 -82.5q0 -97 -170 -175l-5 -3l-5 -2v-1l10 1h175v-55h-280z" />
    <glyph glyph-name="threesuperior" unicode="&#xb3;" horiz-adv-x="345" 
d="M30 555h65q5 -14 16 -25q23 -25 64 -25q37 0 56 16.5t19 43.5q0 25 -20 40t-59 15h-71v50l105 75v1l-10 -1h-145v55h240v-55l-95 -68l-10 -6v-1h5q51 0 85.5 -32.5t34.5 -77.5q0 -47 -36.5 -78.5t-98.5 -31.5q-79 0 -119 52q-19 23 -26 53z" />
    <glyph glyph-name="acute" unicode="&#xb4;" horiz-adv-x="225" 
d="M30 550l90 145h75v-1l-115 -144h-50z" />
    <glyph glyph-name="mu" unicode="&#xb5;" horiz-adv-x="590" 
d="M80 -200v700h60v-295q0 -78 39 -119t111 -41q65 0 112.5 51.5t47.5 128.5v275h60v-500h-60v85h-1q-20 -37 -60.5 -66t-98.5 -29q-72 0 -116 35q-19 14 -34 35h-1l1 -10v-250h-60z" />
    <glyph glyph-name="paragraph" unicode="&#xb6;" horiz-adv-x="385" 
d="M30 525q0 76 53 125.5t139 49.5h138v-60h-85v-830h-65v540q-76 0 -128 52.5t-52 122.5z" />
    <glyph glyph-name="periodcentered" unicode="&#xb7;" horiz-adv-x="280" 
d="M90 265q0 23 13.5 36.5t36.5 13.5t36.5 -13.5t13.5 -36.5t-13.5 -36.5t-36.5 -13.5t-36.5 14t-13.5 36z" />
    <glyph glyph-name="cedilla" unicode="&#xb8;" horiz-adv-x="235" 
d="M30 -215v45q6 -5 18 -10q24 -10 52 -10q26 0 40.5 13.5t14.5 36.5q0 20 -15.5 32.5t-44.5 12.5h-35l50 105h45l-30 -65q34 -4 57 -28t23 -57q0 -43 -28.5 -69t-76.5 -26q-28 0 -52 10q-12 5 -18 10z" />
    <glyph glyph-name="onesuperior" unicode="&#xb9;" horiz-adv-x="340" 
d="M55 460v55h100v220l-90 -55v65l95 55h55v-285h95v-55h-255z" />
    <glyph glyph-name="ordmasculine" unicode="&#xba;" horiz-adv-x="410" 
d="M35 540q0 72 49 121t121 49t121 -49t49 -121t-49 -121t-121 -49t-121 49t-49 121zM95 540q0 -53 30.5 -84t79.5 -31t79.5 31t30.5 84t-30.5 84t-79.5 31t-79.5 -31t-30.5 -84z" />
    <glyph glyph-name="guillemotright" unicode="&#xbb;" horiz-adv-x="530" 
d="M250 55l170 195l-170 195l40 40l205 -235l-205 -235zM50 55l170 195l-170 195l40 40l205 -235l-205 -235z" />
    <glyph glyph-name="onequarter" unicode="&#xbc;" horiz-adv-x="735" 
d="M55 360v55h100v220l-90 -55v65l95 55h55v-285h95v-55h-255zM160 0l430 700h60l-430 -700h-60zM435 75v55l135 210h65l-135 -210h110v70h60v-70h50v-55h-50v-75h-60v75h-175z" />
    <glyph glyph-name="onehalf" unicode="&#xbd;" horiz-adv-x="790" 
d="M55 360v55h100v220l-90 -55v65l95 55h55v-285h95v-55h-255zM160 0l430 700h60l-430 -700h-60zM475 0v55l85 50q71 42 100.5 71t29.5 59q0 27 -19 43.5t-56 16.5q-40 0 -64 -30q-12 -15 -16 -30h-60q8 33 25 57q40 58 115 58q62 0 98.5 -32.5t36.5 -82.5q0 -97 -170 -175
l-5 -3l-5 -2v-1l10 1h175v-55h-280z" />
    <glyph glyph-name="threequarters" unicode="&#xbe;" horiz-adv-x="730" 
d="M30 455h65q5 -13 16 -25q23 -25 64 -25q37 0 56 16.5t19 43.5q0 25 -20 40t-59 15h-71v50l105 75v1l-10 -1h-145v55h240v-55l-95 -68l-10 -6v-1h5q51 0 85.5 -32.5t34.5 -77.5q0 -47 -36.5 -78.5t-98.5 -31.5q-79 0 -119 52q-19 23 -26 53zM155 0l430 700h60l-430 -700
h-60zM430 75v55l135 210h65l-135 -210h110v70h60v-70h50v-55h-50v-75h-60v75h-175z" />
    <glyph glyph-name="questiondown" unicode="&#xbf;" horiz-adv-x="525" 
d="M225 460q0 23 13.5 36.5t36.5 13.5t36.5 -14t13.5 -36q0 -23 -13.5 -36.5t-36.5 -13.5t-36.5 13.5t-13.5 36.5zM30 -10q0 61 29 97t79 62q24 13 40 24.5t33 29t25.5 42t8.5 55.5h65q0 -68 -29.5 -107.5t-77.5 -66.5q-34 -18 -54 -32t-37 -41.5t-17 -62.5
q0 -58 43.5 -96.5t116.5 -38.5q97 0 151 70q23 31 34 70h65q-13 -55 -46 -100q-74 -100 -204 -100q-99 0 -162 57t-63 138z" />
    <glyph glyph-name="Agrave" unicode="&#xc0;" horiz-adv-x="670" 
d="M25 0l185 700h250l185 -700h-65l-60 230h-370l-60 -230h-65zM165 290h340l-95 350h-150zM195 934v1h75l90 -145h-50z" />
    <glyph glyph-name="Aacute" unicode="&#xc1;" horiz-adv-x="670" 
d="M25 0l185 700h250l185 -700h-65l-60 230h-370l-60 -230h-65zM165 290h340l-95 350h-150zM305 790l90 145h75v-1l-115 -144h-50z" />
    <glyph glyph-name="Acircumflex" unicode="&#xc2;" horiz-adv-x="670" 
d="M25 0l185 700h250l185 -700h-65l-60 230h-370l-60 -230h-65zM165 290h340l-95 350h-150zM190 790v1l110 144h65l110 -144v-1h-60l-75 100h-15l-75 -100h-60z" />
    <glyph glyph-name="Atilde" unicode="&#xc3;" horiz-adv-x="670" 
d="M25 0l185 700h250l185 -700h-65l-60 230h-370l-60 -230h-65zM165 290h340l-95 350h-150zM185 800v26q0 37 23.5 60.5t61.5 23.5q35 0 75 -32q37 -33 55 -33q15 0 25 10t10 25v25h50v-26q0 -37 -23.5 -60.5t-61.5 -23.5q-37 0 -74 33q-2 1 -11 9t-12 9.5t-10 6t-12 6
t-11 1.5q-15 0 -25 -10t-10 -25v-25h-50z" />
    <glyph glyph-name="Adieresis" unicode="&#xc4;" horiz-adv-x="670" 
d="M25 0l185 700h250l185 -700h-65l-60 230h-370l-60 -230h-65zM165 290h340l-95 350h-150zM375 850q0 19 13 32t32 13t32 -13t13 -32t-13 -32t-32 -13t-32 13t-13 32zM205 850q0 19 13 32t32 13t32 -13t13 -32t-13 -32t-32 -13t-32 13t-13 32z" />
    <glyph glyph-name="Aring" unicode="&#xc5;" horiz-adv-x="670" 
d="M25 0l185 700h250l185 -700h-65l-60 230h-370l-60 -230h-65zM165 290h340l-95 350h-150zM235 860q0 42 29 71t71 29t71 -29t29 -71t-29 -71t-71 -29t-71 29t-29 71zM280 860q0 -23 16 -39t39 -16t39 16t16 39t-16 39t-39 16t-39 -16t-16 -39z" />
    <glyph glyph-name="AE" unicode="&#xc6;" horiz-adv-x="965" 
d="M25 0l185 700h710v-60h-390v-255h315v-60h-315v-265h390v-60h-455v230h-315l-60 -230h-65zM165 290h300v350h-205z" />
    <glyph glyph-name="Ccedilla" unicode="&#xc7;" horiz-adv-x="800" 
d="M50 350q0 160 103 265t257 105q168 0 273 -125q45 -55 67 -125h-65q-20 53 -57 95q-85 95 -218 95q-129 0 -212 -86t-83 -224t83 -224t212 -86q136 0 222 102q37 44 58 103h65q-23 -71 -68 -130q-103 -131 -267 -135l-15 -35q34 -4 57 -28t23 -57q0 -43 -28.5 -69
t-76.5 -26q-28 0 -52 10q-12 5 -18 10v45q6 -5 18 -10q24 -10 52 -10q26 0 40.5 13.5t14.5 36.5q0 20 -15.5 32.5t-44.5 12.5h-35l36 77q-142 12 -234 114t-92 254z" />
    <glyph glyph-name="Egrave" unicode="&#xc8;" horiz-adv-x="610" 
d="M90 0v700h475v-60h-410v-255h335v-60h-335v-265h410v-60h-475zM205 934v1h75l90 -145h-50z" />
    <glyph glyph-name="Eacute" unicode="&#xc9;" horiz-adv-x="610" 
d="M90 0v700h475v-60h-410v-255h335v-60h-335v-265h410v-60h-475zM295 790l90 145h75v-1l-115 -144h-50z" />
    <glyph glyph-name="Ecircumflex" unicode="&#xca;" horiz-adv-x="610" 
d="M90 0v700h475v-60h-410v-255h335v-60h-335v-265h410v-60h-475zM190 790v1l110 144h65l110 -144v-1h-60l-75 100h-15l-75 -100h-60z" />
    <glyph glyph-name="Edieresis" unicode="&#xcb;" horiz-adv-x="610" 
d="M90 0v700h475v-60h-410v-255h335v-60h-335v-265h410v-60h-475zM370 850q0 19 13 32t32 13t32 -13t13 -32t-13 -32t-32 -13t-32 13t-13 32zM200 850q0 19 13 32t32 13t32 -13t13 -32t-13 -32t-32 -13t-32 13t-13 32z" />
    <glyph glyph-name="Igrave" unicode="&#xcc;" horiz-adv-x="245" 
d="M90 0v700h65v-700h-65zM-15 934v1h75l90 -145h-50z" />
    <glyph glyph-name="Iacute" unicode="&#xcd;" horiz-adv-x="245" 
d="M90 0v700h65v-700h-65zM100 790l90 145h75v-1l-115 -144h-50z" />
    <glyph glyph-name="Icircumflex" unicode="&#xce;" horiz-adv-x="245" 
d="M90 0v700h65v-700h-65zM-20 790v1l110 144h65l110 -144v-1h-60l-75 100h-15l-75 -100h-60z" />
    <glyph glyph-name="Idieresis" unicode="&#xcf;" horiz-adv-x="245" 
d="M90 0v700h65v-700h-65zM165 850q0 19 13 32t32 13t32 -13t13 -32t-13 -32t-32 -13t-32 13t-13 32zM-5 850q0 19 13 32t32 13t32 -13t13 -32t-13 -32t-32 -13t-32 13t-13 32z" />
    <glyph glyph-name="Eth" unicode="&#xd0;" horiz-adv-x="730" 
d="M25 315v65h75v320h220q157 0 258.5 -99.5t101.5 -250.5t-101.5 -250.5t-258.5 -99.5h-220v315h-75zM165 60h155q131 0 213 81t82 209t-82 209t-213 81h-155v-260h185v-65h-185v-255z" />
    <glyph glyph-name="Ntilde" unicode="&#xd1;" horiz-adv-x="725" 
d="M90 0v700h100l380 -635h1l-1 10v625h65v-700h-100l-380 635h-1l1 -10v-625h-65zM220 800v26q0 37 23.5 60.5t61.5 23.5q35 0 75 -32q37 -33 55 -33q15 0 25 10t10 25v25h50v-26q0 -37 -23.5 -60.5t-61.5 -23.5q-37 0 -74 33q-2 1 -11 9t-12 9.5t-10 6t-12 6t-11 1.5
q-15 0 -25 -10t-10 -25v-25h-50z" />
    <glyph glyph-name="Ograve" unicode="&#xd2;" horiz-adv-x="820" 
d="M50 350q0 160 103 265t257 105t257 -105t103 -265t-103 -265t-257 -105t-257 105t-103 265zM115 350q0 -138 83 -224t212 -86t212 86t83 224t-83 224t-212 86t-212 -86t-83 -224zM275 934v1h75l90 -145h-50z" />
    <glyph glyph-name="Oacute" unicode="&#xd3;" horiz-adv-x="820" 
d="M50 350q0 160 103 265t257 105t257 -105t103 -265t-103 -265t-257 -105t-257 105t-103 265zM115 350q0 -138 83 -224t212 -86t212 86t83 224t-83 224t-212 86t-212 -86t-83 -224zM380 790l90 145h75v-1l-115 -144h-50z" />
    <glyph glyph-name="Ocircumflex" unicode="&#xd4;" horiz-adv-x="820" 
d="M50 350q0 160 103 265t257 105t257 -105t103 -265t-103 -265t-257 -105t-257 105t-103 265zM115 350q0 -138 83 -224t212 -86t212 86t83 224t-83 224t-212 86t-212 -86t-83 -224zM270 790v1l110 144h65l110 -144v-1h-60l-75 100h-15l-75 -100h-60z" />
    <glyph glyph-name="Otilde" unicode="&#xd5;" horiz-adv-x="820" 
d="M50 350q0 160 103 265t257 105t257 -105t103 -265t-103 -265t-257 -105t-257 105t-103 265zM115 350q0 -138 83 -224t212 -86t212 86t83 224t-83 224t-212 86t-212 -86t-83 -224zM265 800v26q0 37 23.5 60.5t61.5 23.5q35 0 75 -32q37 -33 55 -33q15 0 25 10t10 25v25h50
v-26q0 -37 -23.5 -60.5t-61.5 -23.5q-37 0 -74 33q-2 1 -11 9t-12 9.5t-10 6t-12 6t-11 1.5q-15 0 -25 -10t-10 -25v-25h-50z" />
    <glyph glyph-name="Odieresis" unicode="&#xd6;" horiz-adv-x="820" 
d="M50 350q0 160 103 265t257 105t257 -105t103 -265t-103 -265t-257 -105t-257 105t-103 265zM115 350q0 -138 83 -224t212 -86t212 86t83 224t-83 224t-212 86t-212 -86t-83 -224zM450 850q0 19 13 32t32 13t32 -13t13 -32t-13 -32t-32 -13t-32 13t-13 32zM280 850
q0 19 13 32t32 13t32 -13t13 -32t-13 -32t-32 -13t-32 13t-13 32z" />
    <glyph glyph-name="multiply" unicode="&#xd7;" horiz-adv-x="500" 
d="M80 165l130 130l-130 130l40 40l130 -130l130 130l40 -40l-130 -130l130 -130l-40 -40l-130 130l-130 -130z" />
    <glyph glyph-name="Oslash" unicode="&#xd8;" horiz-adv-x="820" 
d="M25 -5v75l84 69q-59 96 -59 211q0 160 103 265t257 105q162 0 265 -114l120 99v-75l-85 -70q60 -91 60 -210q0 -160 -103 -265t-257 -105q-164 0 -266 113zM115 350q0 -98 43 -171l470 388q-82 93 -218 93q-129 0 -212 -86t-83 -224zM662 520l-470 -387q82 -93 218 -93
q129 0 212 86t83 224q0 95 -43 170z" />
    <glyph glyph-name="Ugrave" unicode="&#xd9;" horiz-adv-x="710" 
d="M85 260v440h65v-440q0 -105 55 -162.5t150 -57.5t150 57.5t55 162.5v440h65v-440q0 -127 -74.5 -203.5t-195.5 -76.5t-195.5 76.5t-74.5 203.5zM220 934v1h75l90 -145h-50z" />
    <glyph glyph-name="Uacute" unicode="&#xda;" horiz-adv-x="710" 
d="M85 260v440h65v-440q0 -105 55 -162.5t150 -57.5t150 57.5t55 162.5v440h65v-440q0 -127 -74.5 -203.5t-195.5 -76.5t-195.5 76.5t-74.5 203.5zM325 790l90 145h75v-1l-115 -144h-50z" />
    <glyph glyph-name="Ucircumflex" unicode="&#xdb;" horiz-adv-x="710" 
d="M85 260v440h65v-440q0 -105 55 -162.5t150 -57.5t150 57.5t55 162.5v440h65v-440q0 -127 -74.5 -203.5t-195.5 -76.5t-195.5 76.5t-74.5 203.5zM210 790v1l110 144h65l110 -144v-1h-60l-75 100h-15l-75 -100h-60z" />
    <glyph glyph-name="Udieresis" unicode="&#xdc;" horiz-adv-x="710" 
d="M85 260v440h65v-440q0 -105 55 -162.5t150 -57.5t150 57.5t55 162.5v440h65v-440q0 -127 -74.5 -203.5t-195.5 -76.5t-195.5 76.5t-74.5 203.5zM395 850q0 19 13 32t32 13t32 -13t13 -32t-13 -32t-32 -13t-32 13t-13 32zM225 850q0 19 13 32t32 13t32 -13t13 -32t-13 -32
t-32 -13t-32 13t-13 32z" />
    <glyph glyph-name="Yacute" unicode="&#xdd;" horiz-adv-x="635" 
d="M10 700h80l225 -370h5l225 370h80l-275 -445v-255h-65v255zM290 790l90 145h75v-1l-115 -144h-50z" />
    <glyph glyph-name="Thorn" unicode="&#xde;" horiz-adv-x="700" 
d="M90 0v700h65v-140h270q109 0 174.5 -58.5t65.5 -146.5t-65.5 -146.5t-174.5 -58.5h-270v-150h-65zM155 210h270q85 0 130 39.5t45 105.5t-45 105.5t-130 39.5h-270v-290z" />
    <glyph glyph-name="germandbls" unicode="&#xdf;" horiz-adv-x="570" 
d="M80 0v530q0 76 55 128t140 52t140 -51t55 -124q0 -74 -50 -120q-23 -20 -50 -30v-5q42 -7 77 -30q78 -47 78 -150q0 -87 -58.5 -143.5t-151.5 -56.5h-60v55h60q68 0 109 40.5t41 104.5q0 61 -44 103t-111 42h-54v55q68 0 111 39t43 96q0 50 -38 85t-97 35
q-60 0 -97.5 -36.5t-37.5 -93.5v-525h-60z" />
    <glyph glyph-name="agrave" unicode="&#xe0;" horiz-adv-x="615" 
d="M45 250q0 111 70 185.5t170 74.5q71 0 120 -34.5t69 -75.5h1v100h60v-500h-60v100h-1q-20 -41 -69 -75.5t-120 -34.5q-100 0 -170 74.5t-70 185.5zM105 250q0 -88 54.5 -146.5t130.5 -58.5q74 0 129.5 58.5t55.5 146.5t-55.5 146.5t-129.5 58.5q-76 0 -130.5 -58.5
t-54.5 -146.5zM155 744v1h75l90 -145h-50z" />
    <glyph glyph-name="aacute" unicode="&#xe1;" horiz-adv-x="615" 
d="M45 250q0 111 70 185.5t170 74.5q71 0 120 -34.5t69 -75.5h1v100h60v-500h-60v100h-1q-20 -41 -69 -75.5t-120 -34.5q-100 0 -170 74.5t-70 185.5zM105 250q0 -88 54.5 -146.5t130.5 -58.5q74 0 129.5 58.5t55.5 146.5t-55.5 146.5t-129.5 58.5q-76 0 -130.5 -58.5
t-54.5 -146.5zM245 600l90 145h75v-1l-115 -144h-50z" />
    <glyph glyph-name="acircumflex" unicode="&#xe2;" horiz-adv-x="615" 
d="M45 250q0 111 70 185.5t170 74.5q71 0 120 -34.5t69 -75.5h1v100h60v-500h-60v100h-1q-20 -41 -69 -75.5t-120 -34.5q-100 0 -170 74.5t-70 185.5zM105 250q0 -88 54.5 -146.5t130.5 -58.5q74 0 129.5 58.5t55.5 146.5t-55.5 146.5t-129.5 58.5q-76 0 -130.5 -58.5
t-54.5 -146.5zM150 600v1l110 144h65l110 -144v-1h-60l-75 100h-15l-75 -100h-60z" />
    <glyph glyph-name="atilde" unicode="&#xe3;" horiz-adv-x="615" 
d="M45 250q0 111 70 185.5t170 74.5q71 0 120 -34.5t69 -75.5h1v100h60v-500h-60v100h-1q-20 -41 -69 -75.5t-120 -34.5q-100 0 -170 74.5t-70 185.5zM105 250q0 -88 54.5 -146.5t130.5 -58.5q74 0 129.5 58.5t55.5 146.5t-55.5 146.5t-129.5 58.5q-76 0 -130.5 -58.5
t-54.5 -146.5zM145 605v26q0 37 23.5 60.5t61.5 23.5q35 0 75 -32q37 -33 55 -33q15 0 25 10t10 25v25h50v-26q0 -37 -23.5 -60.5t-61.5 -23.5q-37 0 -74 33q-2 1 -11 9t-12 9.5t-10 6t-12 6t-11 1.5q-15 0 -25 -10t-10 -25v-25h-50z" />
    <glyph glyph-name="adieresis" unicode="&#xe4;" horiz-adv-x="615" 
d="M45 250q0 111 70 185.5t170 74.5q71 0 120 -34.5t69 -75.5h1v100h60v-500h-60v100h-1q-20 -41 -69 -75.5t-120 -34.5q-100 0 -170 74.5t-70 185.5zM105 250q0 -88 54.5 -146.5t130.5 -58.5q74 0 129.5 58.5t55.5 146.5t-55.5 146.5t-129.5 58.5q-76 0 -130.5 -58.5
t-54.5 -146.5zM330 660q0 19 13 32t32 13t32 -13t13 -32t-13 -32t-32 -13t-32 13t-13 32zM160 660q0 19 13 32t32 13t32 -13t13 -32t-13 -32t-32 -13t-32 13t-13 32z" />
    <glyph glyph-name="aring" unicode="&#xe5;" horiz-adv-x="615" 
d="M45 250q0 111 70 185.5t170 74.5q71 0 120 -34.5t69 -75.5h1v100h60v-500h-60v100h-1q-20 -41 -69 -75.5t-120 -34.5q-100 0 -170 74.5t-70 185.5zM105 250q0 -88 54.5 -146.5t130.5 -58.5q74 0 129.5 58.5t55.5 146.5t-55.5 146.5t-129.5 58.5q-76 0 -130.5 -58.5
t-54.5 -146.5zM190 685q0 42 29 71t71 29t71 -29t29 -71t-29 -71t-71 -29t-71 29t-29 71zM235 685q0 -23 16 -39t39 -16t39 16t16 39t-16 39t-39 16t-39 -16t-16 -39z" />
    <glyph glyph-name="ae" unicode="&#xe6;" horiz-adv-x="965" 
d="M60 140q0 66 49.5 108t140.5 42h180v33q0 62 -35.5 97t-99.5 35q-79 0 -124 -53q-21 -24 -31 -52h-60q14 47 40 80q64 80 175 80q85 0 138 -53q22 -21 37 -52h5q19 30 47 52q63 53 153 53q105 0 175 -71t70 -179v-25h-430q4 -82 57 -136t128 -54q81 0 136 55q24 24 39 55
h60q-18 -46 -50 -83q-72 -82 -185 -82q-98 0 -163 65q-30 30 -47 65h-5q-19 -36 -51 -65q-71 -65 -174 -65q-80 0 -127.5 42.5t-47.5 107.5zM490 290h365q-8 73 -57 119t-123 46q-73 0 -123 -46t-62 -119zM120 140q0 -44 31.5 -69.5t93.5 -25.5q81 0 133 55t52 135h-180
q-66 0 -98 -25.5t-32 -69.5z" />
    <glyph glyph-name="ccedilla" unicode="&#xe7;" horiz-adv-x="570" 
d="M45 250q0 111 71.5 185.5t173.5 74.5q119 0 189 -88q31 -38 46 -87h-60q-14 35 -37 60q-52 60 -138 60q-76 0 -130.5 -58.5t-54.5 -146.5t54.5 -146.5t130.5 -58.5q87 0 142 65q26 30 38 65h60q-14 -46 -44 -89q-65 -91 -180 -95l-21 -46q34 -4 57 -28t23 -57
q0 -43 -28.5 -69t-76.5 -26q-28 0 -52 10q-12 5 -18 10v45q6 -5 18 -10q24 -10 52 -10q26 0 40.5 13.5t14.5 36.5q0 20 -15.5 32.5t-44.5 12.5h-35l41 87q-92 10 -154 82.5t-62 175.5z" />
    <glyph glyph-name="egrave" unicode="&#xe8;" horiz-adv-x="590" 
d="M45 250q0 112 72 186t178 74q105 0 177.5 -73.5t72.5 -181.5v-25h-440q4 -79 58 -132t132 -53q86 0 141 55q26 24 39 55h60q-18 -47 -51 -83q-74 -82 -189 -82q-106 0 -178 74t-72 186zM105 285h375q-8 73 -59.5 121.5t-125.5 48.5t-126 -48t-64 -122zM160 744v1h75
l90 -145h-50z" />
    <glyph glyph-name="eacute" unicode="&#xe9;" horiz-adv-x="590" 
d="M45 250q0 112 72 186t178 74q105 0 177.5 -73.5t72.5 -181.5v-25h-440q4 -79 58 -132t132 -53q86 0 141 55q26 24 39 55h60q-18 -47 -51 -83q-74 -82 -189 -82q-106 0 -178 74t-72 186zM105 285h375q-8 73 -59.5 121.5t-125.5 48.5t-126 -48t-64 -122zM270 600l90 145h75
v-1l-115 -144h-50z" />
    <glyph glyph-name="ecircumflex" unicode="&#xea;" horiz-adv-x="590" 
d="M45 250q0 112 72 186t178 74q105 0 177.5 -73.5t72.5 -181.5v-25h-440q4 -79 58 -132t132 -53q86 0 141 55q26 24 39 55h60q-18 -47 -51 -83q-74 -82 -189 -82q-106 0 -178 74t-72 186zM105 285h375q-8 73 -59.5 121.5t-125.5 48.5t-126 -48t-64 -122zM150 600v1l110 144
h65l110 -144v-1h-60l-75 100h-15l-75 -100h-60z" />
    <glyph glyph-name="edieresis" unicode="&#xeb;" horiz-adv-x="590" 
d="M45 250q0 112 72 186t178 74q105 0 177.5 -73.5t72.5 -181.5v-25h-440q4 -79 58 -132t132 -53q86 0 141 55q26 24 39 55h60q-18 -47 -51 -83q-74 -82 -189 -82q-106 0 -178 74t-72 186zM105 285h375q-8 73 -59.5 121.5t-125.5 48.5t-126 -48t-64 -122zM330 660
q0 19 13 32t32 13t32 -13t13 -32t-13 -32t-32 -13t-32 13t-13 32zM160 660q0 19 13 32t32 13t32 -13t13 -32t-13 -32t-32 -13t-32 13t-13 32z" />
    <glyph glyph-name="igrave" unicode="&#xec;" horiz-adv-x="220" 
d="M80 0v500h60v-500h-60zM-30 744v1h75l90 -145h-50z" />
    <glyph glyph-name="iacute" unicode="&#xed;" horiz-adv-x="220" 
d="M80 0v500h60v-500h-60zM85 600l90 145h75v-1l-115 -144h-50z" />
    <glyph glyph-name="icircumflex" unicode="&#xee;" horiz-adv-x="220" 
d="M80 0v500h60v-500h-60zM-35 594v1l110 144h65l110 -144v-1h-60l-75 100h-15l-75 -100h-60z" />
    <glyph glyph-name="idieresis" unicode="&#xef;" horiz-adv-x="220" 
d="M80 0v500h60v-500h-60zM150 660q0 19 13 32t32 13t32 -13t13 -32t-13 -32t-32 -13t-32 13t-13 32zM-20 660q0 19 13 32t32 13t32 -13t13 -32t-13 -32t-32 -13t-32 13t-13 32z" />
    <glyph glyph-name="eth" unicode="&#xf0;" horiz-adv-x="575" 
d="M45 225q0 102 66.5 168.5t168.5 66.5q81 0 138 -45q24 -18 41 -45h1q-14 55 -51 104t-98 105l-1 1l-120 -80v55l90 60q-59 55 -95 85h71q50 -42 64 -55l130 85v-55l-95 -65q58 -60 90 -102.5t56 -112t24 -155.5q0 -111 -67 -180.5t-173 -69.5q-105 0 -172.5 66.5
t-67.5 168.5zM105 225q0 -78 51 -129t129 -51t129 51t51 129q0 79 -50 129.5t-130 50.5q-78 0 -129 -51t-51 -129z" />
    <glyph glyph-name="ntilde" unicode="&#xf1;" horiz-adv-x="580" 
d="M80 0v500h60v-85h1q18 37 63.5 66t115.5 29q84 0 137 -58t53 -157v-295h-60v295q0 77 -37.5 118.5t-102.5 41.5q-72 0 -121 -51t-49 -129v-275h-60zM140 605v26q0 37 23.5 60.5t61.5 23.5q35 0 75 -32q37 -33 55 -33q15 0 25 10t10 25v25h50v-26q0 -37 -23.5 -60.5
t-61.5 -23.5q-37 0 -74 33q-2 1 -11 9t-12 9.5t-10 6t-12 6t-11 1.5q-15 0 -25 -10t-10 -25v-25h-50z" />
    <glyph glyph-name="ograve" unicode="&#xf2;" 
d="M45 250q0 112 73 186t182 74t182 -74t73 -186t-73 -186t-182 -74t-182 74t-73 186zM105 250q0 -89 56 -147t139 -58t139 58t56 147t-56 147t-139 58t-139 -58t-56 -147zM165 744v1h75l90 -145h-50z" />
    <glyph glyph-name="oacute" unicode="&#xf3;" 
d="M45 250q0 112 73 186t182 74t182 -74t73 -186t-73 -186t-182 -74t-182 74t-73 186zM105 250q0 -89 56 -147t139 -58t139 58t56 147t-56 147t-139 58t-139 -58t-56 -147zM270 600l90 145h75v-1l-115 -144h-50z" />
    <glyph glyph-name="ocircumflex" unicode="&#xf4;" 
d="M45 250q0 112 73 186t182 74t182 -74t73 -186t-73 -186t-182 -74t-182 74t-73 186zM105 250q0 -89 56 -147t139 -58t139 58t56 147t-56 147t-139 58t-139 -58t-56 -147zM155 600v1l110 144h65l110 -144v-1h-60l-75 100h-15l-75 -100h-60z" />
    <glyph glyph-name="otilde" unicode="&#xf5;" 
d="M45 250q0 112 73 186t182 74t182 -74t73 -186t-73 -186t-182 -74t-182 74t-73 186zM105 250q0 -89 56 -147t139 -58t139 58t56 147t-56 147t-139 58t-139 -58t-56 -147zM150 605v26q0 37 23.5 60.5t61.5 23.5q35 0 75 -32q37 -33 55 -33q15 0 25 10t10 25v25h50v-26
q0 -37 -23.5 -60.5t-61.5 -23.5q-37 0 -74 33q-2 1 -11 9t-12 9.5t-10 6t-12 6t-11 1.5q-15 0 -25 -10t-10 -25v-25h-50z" />
    <glyph glyph-name="odieresis" unicode="&#xf6;" 
d="M45 250q0 112 73 186t182 74t182 -74t73 -186t-73 -186t-182 -74t-182 74t-73 186zM105 250q0 -89 56 -147t139 -58t139 58t56 147t-56 147t-139 58t-139 -58t-56 -147zM340 660q0 19 13 32t32 13t32 -13t13 -32t-13 -32t-32 -13t-32 13t-13 32zM170 660q0 19 13 32
t32 13t32 -13t13 -32t-13 -32t-32 -13t-32 13t-13 32z" />
    <glyph glyph-name="divide" unicode="&#xf7;" horiz-adv-x="500" 
d="M200 445q0 20 14 35t36 15t36 -15t14 -35t-14 -35t-36 -15t-36 15t-14 35zM60 240v60h380v-60h-380zM200 95q0 20 14 35t36 15t36 -15t14 -35t-14 -35t-36 -15t-36 15t-14 35z" />
    <glyph glyph-name="oslash" unicode="&#xf8;" 
d="M40 -5v75l44 37q-39 62 -39 143q0 112 73 186t182 74q105 0 180 -72l80 67v-75l-44 -37q39 -64 39 -143q0 -112 -73 -186t-182 -74q-108 0 -180 72zM105 250q0 -59 25 -105l305 256q-54 54 -135 54q-83 0 -139 -58t-56 -147zM470 354l-306 -255q54 -54 136 -54
q83 0 139 58t56 147q0 58 -25 104z" />
    <glyph glyph-name="ugrave" unicode="&#xf9;" horiz-adv-x="590" 
d="M80 205v295h60v-295q0 -77 37.5 -118.5t102.5 -41.5q72 0 121 51t49 129v275h60v-500h-60v85h-1q-20 -38 -64 -66.5t-115 -28.5q-84 0 -137 58t-53 157zM165 744v1h75l90 -145h-50z" />
    <glyph glyph-name="uacute" unicode="&#xfa;" horiz-adv-x="590" 
d="M80 205v295h60v-295q0 -77 37.5 -118.5t102.5 -41.5q72 0 121 51t49 129v275h60v-500h-60v85h-1q-20 -38 -64 -66.5t-115 -28.5q-84 0 -137 58t-53 157zM265 600l90 145h75v-1l-115 -144h-50z" />
    <glyph glyph-name="ucircumflex" unicode="&#xfb;" horiz-adv-x="590" 
d="M80 205v295h60v-295q0 -77 37.5 -118.5t102.5 -41.5q72 0 121 51t49 129v275h60v-500h-60v85h-1q-20 -38 -64 -66.5t-115 -28.5q-84 0 -137 58t-53 157zM155 600v1l110 144h65l110 -144v-1h-60l-75 100h-15l-75 -100h-60z" />
    <glyph glyph-name="udieresis" unicode="&#xfc;" horiz-adv-x="590" 
d="M80 205v295h60v-295q0 -77 37.5 -118.5t102.5 -41.5q72 0 121 51t49 129v275h60v-500h-60v85h-1q-20 -38 -64 -66.5t-115 -28.5q-84 0 -137 58t-53 157zM335 660q0 19 13 32t32 13t32 -13t13 -32t-13 -32t-32 -13t-32 13t-13 32zM165 660q0 19 13 32t32 13t32 -13t13 -32
t-13 -32t-32 -13t-32 13t-13 32z" />
    <glyph glyph-name="yacute" unicode="&#xfd;" horiz-adv-x="505" 
d="M25 500h65l115 -445h95l130 445h65l-205 -690h-65l60 190h-125zM230 600l90 145h75v-1l-115 -144h-50z" />
    <glyph glyph-name="thorn" unicode="&#xfe;" horiz-adv-x="615" 
d="M80 -190v890h60v-300h1q16 40 67 75t122 35q100 0 170 -74.5t70 -185.5t-70 -185.5t-170 -74.5q-71 0 -122 35t-67 75h-1v-290h-60zM140 250q0 -88 55.5 -146.5t129.5 -58.5q76 0 130.5 58.5t54.5 146.5t-54.5 146.5t-130.5 58.5q-74 0 -129.5 -58.5t-55.5 -146.5z" />
    <glyph glyph-name="ydieresis" unicode="&#xff;" horiz-adv-x="505" 
d="M25 500h65l115 -445h95l130 445h65l-205 -690h-65l60 190h-125zM300 655q0 19 13 32t32 13t32 -13t13 -32t-13 -32t-32 -13t-32 13t-13 32zM130 655q0 19 13 32t32 13t32 -13t13 -32t-13 -32t-32 -13t-32 13t-13 32z" />
    <glyph glyph-name="Amacron" unicode="&#x100;" horiz-adv-x="670" 
d="M25 0l185 700h250l185 -700h-65l-60 230h-370l-60 -230h-65zM165 290h340l-95 350h-150zM210 820v55h255v-55h-255z" />
    <glyph glyph-name="amacron" unicode="&#x101;" horiz-adv-x="615" 
d="M45 250q0 111 70 185.5t170 74.5q71 0 120 -34.5t69 -75.5h1v100h60v-500h-60v100h-1q-20 -41 -69 -75.5t-120 -34.5q-100 0 -170 74.5t-70 185.5zM105 250q0 -88 54.5 -146.5t130.5 -58.5q74 0 129.5 58.5t55.5 146.5t-55.5 146.5t-129.5 58.5q-76 0 -130.5 -58.5
t-54.5 -146.5zM165 625v55h255v-55h-255z" />
    <glyph glyph-name="Abreve" unicode="&#x102;" horiz-adv-x="670" 
d="M25 0l185 700h250l185 -700h-65l-60 230h-370l-60 -230h-65zM165 290h340l-95 350h-150zM195 910h55q0 -31 21.5 -50.5t58.5 -19.5t58.5 19.5t21.5 50.5h55q0 -50 -38 -85t-97 -35t-97 35t-38 85z" />
    <glyph glyph-name="abreve" unicode="&#x103;" horiz-adv-x="615" 
d="M45 250q0 111 70 185.5t170 74.5q71 0 120 -34.5t69 -75.5h1v100h60v-500h-60v100h-1q-20 -41 -69 -75.5t-120 -34.5q-100 0 -170 74.5t-70 185.5zM105 250q0 -88 54.5 -146.5t130.5 -58.5q74 0 129.5 58.5t55.5 146.5t-55.5 146.5t-129.5 58.5q-76 0 -130.5 -58.5
t-54.5 -146.5zM150 725h55q0 -31 21.5 -50.5t58.5 -19.5t58.5 19.5t21.5 50.5h55q0 -50 -38 -85t-97 -35t-97 35t-38 85z" />
    <glyph glyph-name="Aogonek" unicode="&#x104;" horiz-adv-x="670" 
d="M25 0l185 700h250l185 -700q-38 -18 -60 -35q-60 -45 -60 -95q0 -19 13.5 -32t36.5 -13q25 0 48 7l22 8v-45q-6 -4 -20 -10q-26 -10 -50 -10q-44 0 -72 25.5t-28 64.5q0 54 53 99q22 19 53 36h-1l-60 230h-370l-60 -230h-65zM165 290h340l-95 350h-150z" />
    <glyph glyph-name="aogonek" unicode="&#x105;" horiz-adv-x="615" 
d="M45 250q0 111 70 185.5t170 74.5q71 0 120 -34.5t69 -75.5h1v100h60v-500q-38 -18 -60 -35q-60 -45 -60 -95q0 -19 13.5 -32t36.5 -13q25 0 48 7l22 8v-45q-6 -4 -20 -10q-26 -10 -50 -10q-44 0 -72 25.5t-28 64.5q0 54 55 101q26 23 55 38v2v94h-1q-20 -41 -69 -75.5
t-120 -34.5q-100 0 -170 74.5t-70 185.5zM105 250q0 -88 54.5 -146.5t130.5 -58.5q74 0 129.5 58.5t55.5 146.5t-55.5 146.5t-129.5 58.5q-76 0 -130.5 -58.5t-54.5 -146.5z" />
    <glyph glyph-name="Cacute" unicode="&#x106;" horiz-adv-x="800" 
d="M50 350q0 160 103 265t257 105q168 0 273 -125q45 -55 67 -125h-65q-20 53 -57 95q-85 95 -218 95q-129 0 -212 -86t-83 -224t83 -224t212 -86q136 0 222 102q37 44 58 103h65q-22 -74 -69 -133q-104 -132 -276 -132q-154 0 -257 105t-103 265zM370 790l90 145h75v-1
l-115 -144h-50z" />
    <glyph glyph-name="cacute" unicode="&#x107;" horiz-adv-x="570" 
d="M45 250q0 111 71.5 185.5t173.5 74.5q119 0 189 -88q31 -38 46 -87h-60q-14 35 -37 60q-52 60 -138 60q-76 0 -130.5 -58.5t-54.5 -146.5t54.5 -146.5t130.5 -58.5q87 0 142 65q26 30 38 65h60q-15 -51 -47 -93q-76 -92 -193 -92q-102 0 -173.5 74.5t-71.5 185.5z
M255 600l90 145h75v-1l-115 -144h-50z" />
    <glyph glyph-name="Ccircumflex" unicode="&#x108;" horiz-adv-x="800" 
d="M50 350q0 160 103 265t257 105q168 0 273 -125q45 -55 67 -125h-65q-20 53 -57 95q-85 95 -218 95q-129 0 -212 -86t-83 -224t83 -224t212 -86q136 0 222 102q37 44 58 103h65q-22 -74 -69 -133q-104 -132 -276 -132q-154 0 -257 105t-103 265zM260 790v1l110 144h65
l110 -144v-1h-60l-75 100h-15l-75 -100h-60z" />
    <glyph glyph-name="ccircumflex" unicode="&#x109;" horiz-adv-x="570" 
d="M45 250q0 111 71.5 185.5t173.5 74.5q119 0 189 -88q31 -38 46 -87h-60q-14 35 -37 60q-52 60 -138 60q-76 0 -130.5 -58.5t-54.5 -146.5t54.5 -146.5t130.5 -58.5q87 0 142 65q26 30 38 65h60q-15 -51 -47 -93q-76 -92 -193 -92q-102 0 -173.5 74.5t-71.5 185.5z
M145 600v1l110 144h65l110 -144v-1h-60l-75 100h-15l-75 -100h-60z" />
    <glyph glyph-name="Ccaron" unicode="&#x10c;" horiz-adv-x="800" 
d="M50 350q0 160 103 265t257 105q168 0 273 -125q45 -55 67 -125h-65q-20 53 -57 95q-85 95 -218 95q-129 0 -212 -86t-83 -224t83 -224t212 -86q136 0 222 102q37 44 58 103h65q-22 -74 -69 -133q-104 -132 -276 -132q-154 0 -257 105t-103 265zM260 934v1h60l75 -100h15
l75 100h60v-1l-110 -144h-65z" />
    <glyph glyph-name="ccaron" unicode="&#x10d;" horiz-adv-x="570" 
d="M45 250q0 111 71.5 185.5t173.5 74.5q119 0 189 -88q31 -38 46 -87h-60q-14 35 -37 60q-52 60 -138 60q-76 0 -130.5 -58.5t-54.5 -146.5t54.5 -146.5t130.5 -58.5q87 0 142 65q26 30 38 65h60q-15 -51 -47 -93q-76 -92 -193 -92q-102 0 -173.5 74.5t-71.5 185.5z
M145 744v1h60l75 -100h15l75 100h60v-1l-110 -144h-65z" />
    <glyph glyph-name="Dcaron" unicode="&#x10e;" horiz-adv-x="720" 
d="M90 0v700h220q157 0 258.5 -99.5t101.5 -250.5t-101.5 -250.5t-258.5 -99.5h-220zM155 60h155q131 0 213 81t82 209t-82 209t-213 81h-155v-580zM200 934v1h60l75 -100h15l75 100h60v-1l-110 -144h-65z" />
    <glyph glyph-name="dcaron" unicode="&#x10f;" horiz-adv-x="660" 
d="M45 250q0 111 70 185.5t170 74.5q71 0 120 -34.5t69 -75.5h1v300h60v-700h-60v100h-1q-20 -41 -69 -75.5t-120 -34.5q-100 0 -170 74.5t-70 185.5zM105 250q0 -88 54.5 -146.5t130.5 -58.5q74 0 129.5 58.5t55.5 146.5t-55.5 146.5t-129.5 58.5q-76 0 -130.5 -58.5
t-54.5 -146.5zM585 668q0 15 13.5 27.5t31.5 12.5q24 0 39.5 -19t15.5 -56q0 -44 -26 -72.5t-69 -32.5v30q55 7 55 55q0 2 -3 14l-2 6l-4 -3q-8 -2 -11 -2q-40 0 -40 40z" />
    <glyph glyph-name="Dcroat" unicode="&#x110;" horiz-adv-x="730" 
d="M25 315v65h75v320h220q157 0 258.5 -99.5t101.5 -250.5t-101.5 -250.5t-258.5 -99.5h-220v315h-75zM165 60h155q131 0 213 81t82 209t-82 209t-213 81h-155v-260h185v-65h-185v-255z" />
    <glyph glyph-name="dcroat" unicode="&#x111;" horiz-adv-x="610" 
d="M45 235q0 108 65.5 176.5t164.5 68.5q85 0 143 -50q27 -24 41 -50h1v185h-135v55h135v80h60v-80h70v-55h-70v-565h-60v90h-1q-14 -26 -41 -50q-58 -50 -143 -50q-99 0 -164.5 68.5t-65.5 176.5zM105 235q0 -85 50.5 -137.5t129.5 -52.5q76 0 125.5 52.5t49.5 137.5
t-49.5 137.5t-125.5 52.5q-79 0 -129.5 -52.5t-50.5 -137.5z" />
    <glyph glyph-name="Emacron" unicode="&#x112;" horiz-adv-x="610" 
d="M90 0v700h475v-60h-410v-255h335v-60h-335v-265h410v-60h-475zM200 830v55h255v-55h-255z" />
    <glyph glyph-name="emacron" unicode="&#x113;" horiz-adv-x="590" 
d="M45 250q0 112 72 186t178 74q105 0 177.5 -73.5t72.5 -181.5v-25h-440q4 -79 58 -132t132 -53q86 0 141 55q26 24 39 55h60q-18 -47 -51 -83q-74 -82 -189 -82q-106 0 -178 74t-72 186zM105 285h375q-8 73 -59.5 121.5t-125.5 48.5t-126 -48t-64 -122zM170 625v55h255
v-55h-255z" />
    <glyph glyph-name="Edotaccent" unicode="&#x116;" horiz-adv-x="610" 
d="M90 0v700h475v-60h-410v-255h335v-60h-335v-265h410v-60h-475zM290 850q0 19 13 32t32 13t32 -13t13 -32t-13 -32t-32 -13t-32 13t-13 32z" />
    <glyph glyph-name="edotaccent" unicode="&#x117;" horiz-adv-x="590" 
d="M45 250q0 112 72 186t178 74q105 0 177.5 -73.5t72.5 -181.5v-25h-440q4 -79 58 -132t132 -53q86 0 141 55q26 24 39 55h60q-18 -47 -51 -83q-74 -82 -189 -82q-106 0 -178 74t-72 186zM105 285h375q-8 73 -59.5 121.5t-125.5 48.5t-126 -48t-64 -122zM245 655
q0 19 13 32t32 13t32 -13t13 -32t-13 -32t-32 -13t-32 13t-13 32z" />
    <glyph glyph-name="Eogonek" unicode="&#x118;" horiz-adv-x="610" 
d="M90 0v700h475v-60h-410v-255h335v-60h-335v-265h410v-60q-38 -18 -60 -35q-60 -45 -60 -95q0 -19 13.5 -32t36.5 -13q25 0 48 7l22 8v-45q-6 -4 -20 -10q-26 -10 -50 -10q-44 0 -72 25.5t-28 64.5q0 55 52 99q22 19 53 36h-410z" />
    <glyph glyph-name="eogonek" unicode="&#x119;" horiz-adv-x="590" 
d="M45 250q0 112 72 186t178 74q105 0 177.5 -73.5t72.5 -181.5v-25h-440q4 -79 58 -132t132 -53q86 0 141 55q26 24 39 55h60q-13 -30 -30 -56q-41 -60 -105 -89q-37 -18 -65 -40q-65 -49 -65 -100q0 -19 13.5 -32t36.5 -13q25 0 48 7l22 8v-45q-6 -4 -20 -10
q-26 -10 -50 -10q-44 0 -72 25.5t-28 64.5q0 68 89 126q-5 0 -7 -1h-7q-106 0 -178 74t-72 186zM105 285h375q-8 73 -59.5 121.5t-125.5 48.5t-126 -48t-64 -122z" />
    <glyph glyph-name="Ecaron" unicode="&#x11a;" horiz-adv-x="610" 
d="M90 0v700h475v-60h-410v-255h335v-60h-335v-265h410v-60h-475zM190 934v1h60l75 -100h15l75 100h60v-1l-110 -144h-65z" />
    <glyph glyph-name="ecaron" unicode="&#x11b;" horiz-adv-x="590" 
d="M45 250q0 112 72 186t178 74q105 0 177.5 -73.5t72.5 -181.5v-25h-440q4 -79 58 -132t132 -53q86 0 141 55q26 24 39 55h60q-18 -47 -51 -83q-74 -82 -189 -82q-106 0 -178 74t-72 186zM105 285h375q-8 73 -59.5 121.5t-125.5 48.5t-126 -48t-64 -122zM150 744v1h60
l75 -100h15l75 100h60v-1l-110 -144h-65z" />
    <glyph glyph-name="Gbreve" unicode="&#x11e;" horiz-adv-x="860" 
d="M50 350q0 160 103 265t257 105q170 0 271 -123q45 -54 69 -122h-65q-23 53 -59 92q-87 93 -216 93t-212 -86t-83 -224t83 -224t212 -86q114 0 193.5 74.5t91.5 185.5h-140v60h295v-60h-90q-22 -144 -116 -232t-234 -88q-154 0 -257 105t-103 265zM295 910h55
q0 -31 21.5 -50.5t58.5 -19.5t58.5 19.5t21.5 50.5h55q0 -50 -38 -85t-97 -35t-97 35t-38 85z" />
    <glyph glyph-name="gbreve" unicode="&#x11f;" horiz-adv-x="615" 
d="M45 250q0 111 70 185.5t170 74.5q71 0 120 -34.5t69 -75.5h1v100h60v-690h-425v55h365v235h-1q-20 -41 -69 -75.5t-120 -34.5q-100 0 -170 74.5t-70 185.5zM105 250q0 -88 54.5 -146.5t130.5 -58.5q74 0 129.5 58.5t55.5 146.5t-55.5 146.5t-129.5 58.5
q-76 0 -130.5 -58.5t-54.5 -146.5zM150 725h55q0 -31 21.5 -50.5t58.5 -19.5t58.5 19.5t21.5 50.5h55q0 -50 -38 -85t-97 -35t-97 35t-38 85z" />
    <glyph glyph-name="Gcommaaccent" unicode="&#x122;" horiz-adv-x="860" 
d="M50 350q0 160 103 265t257 105q170 0 271 -123q45 -54 69 -122h-65q-23 53 -59 92q-87 93 -216 93t-212 -86t-83 -224t83 -224t212 -86q114 0 193.5 74.5t91.5 185.5h-140v60h295v-60h-90q-22 -144 -116 -232t-234 -88q-154 0 -257 105t-103 265zM355 -140
q0 15 13.5 27.5t31.5 12.5q24 0 39.5 -19t15.5 -56q0 -44 -26 -72.5t-69 -32.5v30q55 7 55 55q0 2 -3 14l-2 6l-4 -3q-8 -2 -11 -2q-40 0 -40 40z" />
    <glyph glyph-name="gcommaaccent" unicode="&#x123;" horiz-adv-x="615" 
d="M235 665q0 44 26 72.5t69 32.5v-30q-55 -7 -55 -55q0 -4 2 -14l3 -6l4 2q9 3 11 3q40 0 40 -40q0 -15 -13.5 -27.5t-31.5 -12.5q-24 0 -39.5 19t-15.5 56zM45 250q0 111 70 185.5t170 74.5q71 0 120 -34.5t69 -75.5h1v100h60v-690h-425v55h365v235h-1q-20 -41 -69 -75.5
t-120 -34.5q-100 0 -170 74.5t-70 185.5zM105 250q0 -88 54.5 -146.5t130.5 -58.5q74 0 129.5 58.5t55.5 146.5t-55.5 146.5t-129.5 58.5q-76 0 -130.5 -58.5t-54.5 -146.5z" />
    <glyph glyph-name="Imacron" unicode="&#x12a;" horiz-adv-x="245" 
d="M90 0v700h65v-700h-65zM-5 820v55h255v-55h-255z" />
    <glyph glyph-name="imacron" unicode="&#x12b;" horiz-adv-x="220" 
d="M80 0v500h60v-500h-60zM-20 625v55h255v-55h-255z" />
    <glyph glyph-name="Iogonek" unicode="&#x12e;" horiz-adv-x="245" 
d="M-15 -135q0 54 53 99q22 19 53 36h-1v700h65v-700q-38 -18 -60 -35q-60 -45 -60 -95q0 -19 13.5 -32t36.5 -13q25 0 48 7l22 8v-45q-6 -4 -20 -10q-26 -10 -50 -10q-44 0 -72 25.5t-28 64.5z" />
    <glyph glyph-name="iogonek" unicode="&#x12f;" horiz-adv-x="220" 
d="M-30 -135q0 55 55 102q26 23 55 38v1v494h60v-500q-38 -18 -60 -35q-60 -45 -60 -95q0 -19 13.5 -32t36.5 -13q25 0 48 7l22 8v-45q-6 -4 -20 -10q-26 -10 -50 -10q-44 0 -72 25.5t-28 64.5zM65 650q0 20 13 33t32 13t32 -13t13 -33q0 -18 -13 -31t-32 -13t-32 13t-13 31
z" />
    <glyph glyph-name="Idotaccent" unicode="&#x130;" horiz-adv-x="245" 
d="M90 0v700h65v-700h-65zM80 851q0 19 13 32t32 13t32 -13t13 -32t-13 -32t-32 -13t-32 13t-13 32z" />
    <glyph glyph-name="dotlessi" unicode="&#x131;" horiz-adv-x="220" 
d="M80 0v500h60v-500h-60z" />
    <glyph glyph-name="Kcommaaccent" unicode="&#x136;" horiz-adv-x="635" 
d="M90 0v700h65v-315h155l225 315h80l-245 -340l255 -360h-80l-230 325h-160v-325h-65zM290 -140q0 15 13.5 27.5t31.5 12.5q24 0 39.5 -19t15.5 -56q0 -44 -26 -72.5t-69 -32.5v30q55 7 55 55q0 2 -3 14l-2 6l-4 -3q-8 -2 -11 -2q-40 0 -40 40z" />
    <glyph glyph-name="kcommaaccent" unicode="&#x137;" horiz-adv-x="515" 
d="M80 0v700h60v-410h120l165 210h70l-185 -240l200 -260h-70l-180 235h-120v-235h-60zM230 -140q0 15 13.5 27.5t31.5 12.5q24 0 39.5 -19t15.5 -56q0 -44 -26 -72.5t-69 -32.5v30q55 7 55 55q0 2 -3 14l-2 6l-4 -3q-8 -2 -11 -2q-40 0 -40 40z" />
    <glyph glyph-name="Lacute" unicode="&#x139;" horiz-adv-x="545" 
d="M90 0v700h65v-640h380v-60h-445zM100 790l90 145h75v-1l-115 -144h-50z" />
    <glyph glyph-name="lacute" unicode="&#x13a;" horiz-adv-x="270" 
d="M80 0v700h60v-645h115v-55h-175zM85 790l90 145h75v-1l-115 -144h-50z" />
    <glyph glyph-name="Lcommaaccent" unicode="&#x13b;" horiz-adv-x="545" 
d="M90 0v700h65v-640h380v-60h-445zM270 -140q0 15 13.5 27.5t31.5 12.5q24 0 39.5 -19t15.5 -56q0 -44 -26 -72.5t-69 -32.5v30q55 7 55 55q0 2 -3 14l-2 6l-4 -3q-8 -2 -11 -2q-40 0 -40 40z" />
    <glyph glyph-name="lcommaaccent" unicode="&#x13c;" horiz-adv-x="270" 
d="M80 0v700h60v-645h115v-55h-175zM119 -140q0 15 13.5 27.5t31.5 12.5q24 0 39.5 -19t15.5 -56q0 -44 -26 -72.5t-69 -32.5v30q55 7 55 55q0 2 -3 14l-2 6l-4 -3q-8 -2 -11 -2q-40 0 -40 40z" />
    <glyph glyph-name="Lcaron" unicode="&#x13d;" horiz-adv-x="545" 
d="M90 0v700h65v-640h380v-60h-445zM250 670q0 15 13.5 27.5t31.5 12.5q24 0 39.5 -19t15.5 -56q0 -44 -26 -72.5t-69 -32.5v30q55 7 55 55q0 2 -3 14l-2 6l-4 -3q-8 -2 -11 -2q-40 0 -40 40z" />
    <glyph glyph-name="lcaron" unicode="&#x13e;" horiz-adv-x="270" 
d="M80 0v700h60v-645h115v-55h-175zM195 670q0 15 13.5 27.5t31.5 12.5q24 0 39.5 -19t15.5 -56q0 -44 -26 -72.5t-69 -32.5v30q55 7 55 55q0 2 -3 14l-2 6l-4 -3q-8 -2 -11 -2q-40 0 -40 40z" />
    <glyph glyph-name="Lslash" unicode="&#x141;" horiz-adv-x="545" 
d="M25 245v65l65 30v360h65v-330l150 70v-65l-150 -70v-245h380v-60h-445v275z" />
    <glyph glyph-name="lslash" unicode="&#x142;" horiz-adv-x="280" 
d="M5 245v60l85 40v355h60v-330l95 45v-60l-95 -45v-255h115v-55h-175v285z" />
    <glyph glyph-name="Nacute" unicode="&#x143;" horiz-adv-x="725" 
d="M90 0v700h100l380 -635h1l-1 10v625h65v-700h-100l-380 635h-1l1 -10v-625h-65zM335 790l90 145h75v-1l-115 -144h-50z" />
    <glyph glyph-name="nacute" unicode="&#x144;" horiz-adv-x="580" 
d="M80 0v500h60v-85h1q18 37 63.5 66t115.5 29q84 0 137 -58t53 -157v-295h-60v295q0 77 -37.5 118.5t-102.5 41.5q-72 0 -121 -51t-49 -129v-275h-60zM265 600l90 145h75v-1l-115 -144h-50z" />
    <glyph glyph-name="Ncommaaccent" unicode="&#x145;" horiz-adv-x="725" 
d="M90 0v700h100l380 -635h1l-1 10v625h65v-700h-100l-380 635h-1l1 -10v-625h-65zM315 -140q0 15 13.5 27.5t31.5 12.5q24 0 39.5 -19t15.5 -56q0 -44 -26 -72.5t-69 -32.5v30q55 7 55 55q0 2 -3 14l-2 6l-4 -3q-8 -2 -11 -2q-40 0 -40 40z" />
    <glyph glyph-name="ncommaaccent" unicode="&#x146;" horiz-adv-x="580" 
d="M80 0v500h60v-85h1q18 37 63.5 66t115.5 29q84 0 137 -58t53 -157v-295h-60v295q0 77 -37.5 118.5t-102.5 41.5q-72 0 -121 -51t-49 -129v-275h-60zM249 -140q0 15 13.5 27.5t31.5 12.5q24 0 39.5 -19t15.5 -56q0 -44 -26 -72.5t-69 -32.5v30q55 7 55 55q0 2 -3 14l-2 6
l-4 -3q-8 -2 -11 -2q-40 0 -40 40z" />
    <glyph glyph-name="Ncaron" unicode="&#x147;" horiz-adv-x="725" 
d="M90 0v700h100l380 -635h1l-1 10v625h65v-700h-100l-380 635h-1l1 -10v-625h-65zM230 934v1h60l75 -100h15l75 100h60v-1l-110 -144h-65z" />
    <glyph glyph-name="ncaron" unicode="&#x148;" horiz-adv-x="580" 
d="M80 0v500h60v-85h1q18 37 63.5 66t115.5 29q84 0 137 -58t53 -157v-295h-60v295q0 77 -37.5 118.5t-102.5 41.5q-72 0 -121 -51t-49 -129v-275h-60zM150 744v1h60l75 -100h15l75 100h60v-1l-110 -144h-65z" />
    <glyph glyph-name="Omacron" unicode="&#x14c;" horiz-adv-x="820" 
d="M50 350q0 160 103 265t257 105t257 -105t103 -265t-103 -265t-257 -105t-257 105t-103 265zM115 350q0 -138 83 -224t212 -86t212 86t83 224t-83 224t-212 86t-212 -86t-83 -224zM285 820v55h255v-55h-255z" />
    <glyph glyph-name="omacron" unicode="&#x14d;" 
d="M45 250q0 112 73 186t182 74t182 -74t73 -186t-73 -186t-182 -74t-182 74t-73 186zM105 250q0 -89 56 -147t139 -58t139 58t56 147t-56 147t-139 58t-139 -58t-56 -147zM170 625v55h255v-55h-255z" />
    <glyph glyph-name="Ohungarumlaut" unicode="&#x150;" horiz-adv-x="820" 
d="M50 350q0 160 103 265t257 105t257 -105t103 -265t-103 -265t-257 -105t-257 105t-103 265zM115 350q0 -138 83 -224t212 -86t212 86t83 224t-83 224t-212 86t-212 -86t-83 -224zM455 790l75 145h70v-1l-100 -144h-45zM310 790l75 145h70v-1l-100 -144h-45z" />
    <glyph glyph-name="ohungarumlaut" unicode="&#x151;" 
d="M45 250q0 112 73 186t182 74t182 -74t73 -186t-73 -186t-182 -74t-182 74t-73 186zM105 250q0 -89 56 -147t139 -58t139 58t56 147t-56 147t-139 58t-139 -58t-56 -147zM345 600l75 145h70v-1l-100 -144h-45zM200 600l75 145h70v-1l-100 -144h-45z" />
    <glyph glyph-name="OE" unicode="&#x152;" horiz-adv-x="1180" 
d="M50 350q0 162 100 266t245 104q173 0 280 -150v130h460v-60h-395v-255h320v-60h-320v-265h395v-60h-460v129l-1 -1q-58 -85 -154 -124q-59 -24 -125 -24q-145 0 -245 104t-100 266zM115 350q0 -140 78.5 -225t201.5 -85q122 0 201 85t79 225t-79 225t-201 85
q-123 0 -201.5 -85t-78.5 -225z" />
    <glyph glyph-name="oe" unicode="&#x153;" horiz-adv-x="1005" 
d="M45 250q0 111 71.5 185.5t173.5 74.5q93 0 164 -65q31 -28 51 -65h1q18 37 48 65q67 65 161 65q104 0 174.5 -73t70.5 -182v-25h-425q4 -79 54.5 -132t125.5 -53q84 0 137 55q25 25 38 55h60q-16 -45 -49 -83q-72 -82 -186 -82q-92 0 -161 65q-30 29 -49 65h-1
q-19 -36 -51 -65q-69 -65 -163 -65q-102 0 -173.5 74.5t-71.5 185.5zM535 285h360q-8 73 -58.5 121.5t-121.5 48.5q-67 0 -117.5 -48.5t-62.5 -121.5zM105 250q0 -88 54.5 -146.5t130.5 -58.5t130.5 58.5t54.5 146.5t-54.5 146.5t-130.5 58.5t-130.5 -58.5t-54.5 -146.5z
" />
    <glyph glyph-name="Racute" unicode="&#x154;" horiz-adv-x="680" 
d="M90 0v700h290q114 0 179.5 -59.5t65.5 -155.5q0 -82 -48.5 -139t-136.5 -71l180 -275h-75l-175 270h-215v-270h-65zM155 330h225q89 0 134.5 40.5t45.5 114.5t-45.5 114.5t-134.5 40.5h-225v-310zM295 790l90 145h75v-1l-115 -144h-50z" />
    <glyph glyph-name="racute" unicode="&#x155;" horiz-adv-x="370" 
d="M80 0v500h60v-95h1q13 28 35 50q50 50 129 50h55v-55h-55q-72 0 -118.5 -48.5t-46.5 -126.5v-275h-60zM185 600l90 145h75v-1l-115 -144h-50z" />
    <glyph glyph-name="Rcommaaccent" unicode="&#x156;" horiz-adv-x="680" 
d="M90 0v700h290q114 0 179.5 -59.5t65.5 -155.5q0 -82 -48.5 -139t-136.5 -71l180 -275h-75l-175 270h-215v-270h-65zM155 330h225q89 0 134.5 40.5t45.5 114.5t-45.5 114.5t-134.5 40.5h-225v-310zM295 -140q0 15 13.5 27.5t31.5 12.5q24 0 39.5 -19t15.5 -56
q0 -44 -26 -72.5t-69 -32.5v30q55 7 55 55q0 2 -3 14l-2 6l-4 -3q-8 -2 -11 -2q-40 0 -40 40z" />
    <glyph glyph-name="rcommaaccent" unicode="&#x157;" horiz-adv-x="370" 
d="M80 0v500h60v-95h1q13 28 35 50q50 50 129 50h55v-55h-55q-72 0 -118.5 -48.5t-46.5 -126.5v-275h-60zM60 -140q0 15 13.5 27.5t31.5 12.5q24 0 39.5 -19t15.5 -56q0 -44 -26 -72.5t-69 -32.5v30q55 7 55 55q0 2 -3 14l-2 6l-4 -3q-8 -2 -11 -2q-40 0 -40 40z" />
    <glyph glyph-name="Rcaron" unicode="&#x158;" horiz-adv-x="680" 
d="M90 0v700h290q114 0 179.5 -59.5t65.5 -155.5q0 -82 -48.5 -139t-136.5 -71l180 -275h-75l-175 270h-215v-270h-65zM155 330h225q89 0 134.5 40.5t45.5 114.5t-45.5 114.5t-134.5 40.5h-225v-310zM200 934v1h60l75 -100h15l75 100h60v-1l-110 -144h-65z" />
    <glyph glyph-name="rcaron" unicode="&#x159;" horiz-adv-x="370" 
d="M80 0v500h60v-95h1q13 28 35 50q50 50 129 50h55v-55h-55q-72 0 -118.5 -48.5t-46.5 -126.5v-275h-60zM80 744v1h60l75 -100h15l75 100h60v-1l-110 -144h-65z" />
    <glyph glyph-name="Sacute" unicode="&#x15a;" horiz-adv-x="635" 
d="M45 185h65q14 -42 42 -73q64 -72 173 -72q94 0 144.5 40t50.5 100q0 16 -3.5 29t-12.5 25t-16.5 20.5t-24.5 18t-26.5 14.5t-32.5 13.5t-33 11.5t-37 11.5t-36 11.5q-40 11 -67 21t-59 26.5t-51.5 35.5t-32.5 48t-13 64q0 78 66 134t174 56q142 0 219 -93q33 -40 46 -92
h-65q-11 35 -36 62q-59 63 -164 63q-83 0 -129 -37.5t-46 -92.5q0 -69 93 -109q31 -14 130 -43q41 -13 66.5 -22.5t58.5 -27t51.5 -36.5t32 -48t13.5 -64q0 -83 -70.5 -141.5t-189.5 -58.5q-150 0 -230 102q-35 46 -50 103zM290 790l90 145h75v-1l-115 -144h-50z" />
    <glyph glyph-name="sacute" unicode="&#x15b;" horiz-adv-x="510" 
d="M40 150h65q13 -32 34 -53q48 -52 131 -52q68 0 101.5 24.5t33.5 65.5q0 22 -13 38.5t-41.5 27.5t-51 17t-64.5 15q-49 9 -83.5 23t-60.5 44.5t-26 74.5q0 55 49.5 95t135.5 40q108 0 171 -73q27 -31 39 -72h-65q-11 27 -29 45q-45 45 -116 45q-60 0 -92.5 -23.5
t-32.5 -56.5q0 -18 10 -32.5t24 -24t39.5 -17.5t45 -12.5t51.5 -10.5q36 -8 63.5 -17.5t53 -26t39.5 -41.5t14 -58q0 -63 -50.5 -104t-144.5 -41q-120 0 -186 80q-31 35 -44 80zM225 600l90 145h75v-1l-115 -144h-50z" />
    <glyph glyph-name="Scedilla" unicode="&#x15e;" horiz-adv-x="635" 
d="M45 185h65q14 -42 42 -73q64 -72 173 -72q94 0 144.5 40t50.5 100q0 16 -3.5 29t-12.5 25t-16.5 20.5t-24.5 18t-26.5 14.5t-32.5 13.5t-33 11.5t-37 11.5t-36 11.5q-40 11 -67 21t-59 26.5t-51.5 35.5t-32.5 48t-13 64q0 78 66 134t174 56q142 0 219 -93q33 -40 46 -92
h-65q-11 35 -36 62q-59 63 -164 63q-83 0 -129 -37.5t-46 -92.5q0 -69 93 -109q31 -14 130 -43q41 -13 66.5 -22.5t58.5 -27t51.5 -36.5t32 -48t13.5 -64q0 -78 -64.5 -135.5t-174.5 -63.5l-16 -36q34 -4 57 -28t23 -57q0 -43 -28.5 -69t-76.5 -26q-28 0 -52 10
q-12 5 -18 10v45q6 -5 18 -10q24 -10 52 -10q26 0 40.5 13.5t14.5 36.5q0 20 -15.5 32.5t-44.5 12.5h-35l36 76q-132 6 -210 107q-32 43 -46 97z" />
    <glyph glyph-name="scedilla" unicode="&#x15f;" horiz-adv-x="510" 
d="M40 150h65q13 -32 34 -53q48 -52 131 -52q68 0 101.5 24.5t33.5 65.5q0 22 -13 38.5t-41.5 27.5t-51 17t-64.5 15q-49 9 -83.5 23t-60.5 44.5t-26 74.5q0 55 49.5 95t135.5 40q108 0 171 -73q27 -31 39 -72h-65q-11 27 -29 45q-45 45 -116 45q-60 0 -92.5 -23.5
t-32.5 -56.5q0 -18 10 -32.5t24 -24t39.5 -17.5t45 -12.5t51.5 -10.5q36 -8 63.5 -17.5t53 -26t39.5 -41.5t14 -58q0 -60 -46 -100t-133 -44l-21 -46q34 -4 57 -28t23 -57q0 -43 -28.5 -69t-76.5 -26q-28 0 -52 10q-12 5 -18 10v45q6 -5 18 -10q24 -10 52 -10
q26 0 40.5 13.5t14.5 36.5q0 20 -15.5 32.5t-44.5 12.5h-35l41 86q-103 10 -162 85q-25 33 -39 74z" />
    <glyph glyph-name="Scaron" unicode="&#x160;" horiz-adv-x="635" 
d="M45 185h65q14 -42 42 -73q64 -72 173 -72q94 0 144.5 40t50.5 100q0 16 -3.5 29t-12.5 25t-16.5 20.5t-24.5 18t-26.5 14.5t-32.5 13.5t-33 11.5t-37 11.5t-36 11.5q-40 11 -67 21t-59 26.5t-51.5 35.5t-32.5 48t-13 64q0 78 66 134t174 56q142 0 219 -93q33 -40 46 -92
h-65q-11 35 -36 62q-59 63 -164 63q-83 0 -129 -37.5t-46 -92.5q0 -69 93 -109q31 -14 130 -43q41 -13 66.5 -22.5t58.5 -27t51.5 -36.5t32 -48t13.5 -64q0 -83 -70.5 -141.5t-189.5 -58.5q-150 0 -230 102q-35 46 -50 103zM170 934v1h60l75 -100h15l75 100h60v-1l-110 -144
h-65z" />
    <glyph glyph-name="scaron" unicode="&#x161;" horiz-adv-x="510" 
d="M40 150h65q13 -32 34 -53q48 -52 131 -52q68 0 101.5 24.5t33.5 65.5q0 22 -13 38.5t-41.5 27.5t-51 17t-64.5 15q-49 9 -83.5 23t-60.5 44.5t-26 74.5q0 55 49.5 95t135.5 40q108 0 171 -73q27 -31 39 -72h-65q-11 27 -29 45q-45 45 -116 45q-60 0 -92.5 -23.5
t-32.5 -56.5q0 -18 10 -32.5t24 -24t39.5 -17.5t45 -12.5t51.5 -10.5q36 -8 63.5 -17.5t53 -26t39.5 -41.5t14 -58q0 -63 -50.5 -104t-144.5 -41q-120 0 -186 80q-31 35 -44 80zM110 744v1h60l75 -100h15l75 100h60v-1l-110 -144h-65z" />
    <glyph glyph-name="Tcommaaccent" unicode="&#x162;" horiz-adv-x="585" 
d="M10 640v60h565v-60h-250v-640h-65v640h-250zM240 -140q0 15 13.5 27.5t31.5 12.5q24 0 39.5 -19t15.5 -56q0 -44 -26 -72.5t-69 -32.5v30q55 7 55 55q0 2 -3 14l-2 6l-4 -3q-8 -2 -11 -2q-40 0 -40 40z" />
    <glyph glyph-name="tcommaaccent" unicode="&#x163;" horiz-adv-x="355" 
d="M25 445v55h70v110h60v-110h165v-55h-165v-390h170v-55h-230v445h-70zM165 -140q0 15 13.5 27.5t31.5 12.5q24 0 39.5 -19t15.5 -56q0 -44 -26 -72.5t-69 -32.5v30q55 7 55 55q0 2 -3 14l-2 6l-4 -3q-8 -2 -11 -2q-40 0 -40 40z" />
    <glyph glyph-name="Tcaron" unicode="&#x164;" horiz-adv-x="585" 
d="M10 640v60h565v-60h-250v-640h-65v640h-250zM145 934v1h60l75 -100h15l75 100h60v-1l-110 -144h-65z" />
    <glyph glyph-name="tcaron" unicode="&#x165;" horiz-adv-x="355" 
d="M210 574q0 15 13.5 27.5t31.5 12.5q24 0 39.5 -19t15.5 -56q0 -44 -26 -72.5t-69 -32.5v30q55 7 55 55q0 2 -3 14l-2 6l-4 -3q-8 -2 -11 -2q-40 0 -40 40zM25 445v55h70v110h60v-555h170v-55h-230v445h-70z" />
    <glyph glyph-name="Umacron" unicode="&#x16a;" horiz-adv-x="710" 
d="M85 260v440h65v-440q0 -105 55 -162.5t150 -57.5t150 57.5t55 162.5v440h65v-440q0 -127 -74.5 -203.5t-195.5 -76.5t-195.5 76.5t-74.5 203.5zM230 820v55h255v-55h-255z" />
    <glyph glyph-name="umacron" unicode="&#x16b;" horiz-adv-x="590" 
d="M80 205v295h60v-295q0 -77 37.5 -118.5t102.5 -41.5q72 0 121 51t49 129v275h60v-500h-60v85h-1q-20 -38 -64 -66.5t-115 -28.5q-84 0 -137 58t-53 157zM170 625v55h255v-55h-255z" />
    <glyph glyph-name="Uring" unicode="&#x16e;" horiz-adv-x="710" 
d="M85 260v440h65v-440q0 -105 55 -162.5t150 -57.5t150 57.5t55 162.5v440h65v-440q0 -127 -74.5 -203.5t-195.5 -76.5t-195.5 76.5t-74.5 203.5zM255 860q0 42 29 71t71 29t71 -29t29 -71t-29 -71t-71 -29t-71 29t-29 71zM300 860q0 -23 16 -39t39 -16t39 16t16 39t-16 39
t-39 16t-39 -16t-16 -39z" />
    <glyph glyph-name="uring" unicode="&#x16f;" horiz-adv-x="590" 
d="M80 205v295h60v-295q0 -77 37.5 -118.5t102.5 -41.5q72 0 121 51t49 129v275h60v-500h-60v85h-1q-20 -38 -64 -66.5t-115 -28.5q-84 0 -137 58t-53 157zM195 685q0 42 29 71t71 29t71 -29t29 -71t-29 -71t-71 -29t-71 29t-29 71zM240 685q0 -23 16 -39t39 -16t39 16
t16 39t-16 39t-39 16t-39 -16t-16 -39z" />
    <glyph glyph-name="Uhungarumlaut" unicode="&#x170;" horiz-adv-x="710" 
d="M85 260v440h65v-440q0 -105 55 -162.5t150 -57.5t150 57.5t55 162.5v440h65v-440q0 -127 -74.5 -203.5t-195.5 -76.5t-195.5 76.5t-74.5 203.5zM400 790l75 145h70v-1l-100 -144h-45zM255 790l75 145h70v-1l-100 -144h-45z" />
    <glyph glyph-name="uhungarumlaut" unicode="&#x171;" horiz-adv-x="590" 
d="M80 205v295h60v-295q0 -77 37.5 -118.5t102.5 -41.5q72 0 121 51t49 129v275h60v-500h-60v85h-1q-20 -38 -64 -66.5t-115 -28.5q-84 0 -137 58t-53 157zM345 600l75 145h70v-1l-100 -144h-45zM200 600l75 145h70v-1l-100 -144h-45z" />
    <glyph glyph-name="Uogonek" unicode="&#x172;" horiz-adv-x="710" 
d="M85 260v440h65v-440q0 -105 55 -162.5t150 -57.5t150 57.5t55 162.5v440h65v-440q0 -111 -54 -179t-141 -91q-100 -53 -100 -120q0 -19 13.5 -32t36.5 -13q25 0 48 7l22 8v-45q-6 -4 -20 -10q-26 -10 -50 -10q-44 0 -72 25.5t-28 64.5q0 63 76 115h-1q-121 0 -195.5 76.5
t-74.5 203.5z" />
    <glyph glyph-name="uogonek" unicode="&#x173;" horiz-adv-x="590" 
d="M80 205v295h60v-295q0 -77 37.5 -118.5t102.5 -41.5q72 0 121 51t49 129v275h60v-500q-38 -18 -60 -35q-60 -45 -60 -95q0 -19 13.5 -32t36.5 -13q25 0 48 7l22 8v-45q-6 -4 -20 -10q-26 -10 -50 -10q-44 0 -72 25.5t-28 64.5q0 55 55 102q26 23 55 38v2v78h-1
q-20 -38 -64 -66.5t-115 -28.5q-84 0 -137 58t-53 157z" />
    <glyph glyph-name="Ydieresis" unicode="&#x178;" horiz-adv-x="635" 
d="M10 700h80l225 -370h5l225 370h80l-275 -445v-255h-65v255zM355 850q0 19 13 32t32 13t32 -13t13 -32t-13 -32t-32 -13t-32 13t-13 32zM185 850q0 19 13 32t32 13t32 -13t13 -32t-13 -32t-32 -13t-32 13t-13 32z" />
    <glyph glyph-name="Zacute" unicode="&#x179;" 
d="M35 0v60l440 575v5h-425v60h510v-60l-440 -575v-5h445v-60h-530zM265 790l90 145h75v-1l-115 -144h-50z" />
    <glyph glyph-name="zacute" unicode="&#x17a;" horiz-adv-x="470" 
d="M30 0v55l320 389v1h-310v55h390v-55l-320 -389v-1h330v-55h-410zM205 600l90 145h75v-1l-115 -144h-50z" />
    <glyph glyph-name="Zdotaccent" unicode="&#x17b;" 
d="M35 0v60l440 575v5h-425v60h510v-60l-440 -575v-5h445v-60h-530zM260 850q0 19 13 32t32 13t32 -13t13 -32t-13 -32t-32 -13t-32 13t-13 32z" />
    <glyph glyph-name="zdotaccent" unicode="&#x17c;" horiz-adv-x="470" 
d="M30 0v55l320 389v1h-310v55h390v-55l-320 -389v-1h330v-55h-410zM195 660q0 19 13 32t32 13t32 -13t13 -32t-13 -32t-32 -13t-32 13t-13 32z" />
    <glyph glyph-name="Zcaron" unicode="&#x17d;" 
d="M35 0v60l440 575v5h-425v60h510v-60l-440 -575v-5h445v-60h-530zM160 934v1h60l75 -100h15l75 100h60v-1l-110 -144h-65z" />
    <glyph glyph-name="zcaron" unicode="&#x17e;" horiz-adv-x="470" 
d="M30 0v55l320 389v1h-310v55h390v-55l-320 -389v-1h330v-55h-410zM95 744v1h60l75 -100h15l75 100h60v-1l-110 -144h-65z" />
    <glyph glyph-name="florin" unicode="&#x192;" horiz-adv-x="355" 
d="M-75 -190v55h150l85 580h-60v55h70l30 200h210v-55h-160l-20 -145h130v-55h-140l-95 -635h-200z" />
    <glyph glyph-name="uni01FA" unicode="&#x1fa;" horiz-adv-x="670" 
d="M235 860q0 39 26.5 67t65.5 32l43 71h60v-1l-60 -76q30 -11 47.5 -36t17.5 -57q0 -42 -29 -71t-71 -29t-71 29t-29 71zM280 860q0 -23 16 -39t39 -16t39 16t16 39t-16 39t-39 16t-39 -16t-16 -39zM25 0l185 700h250l185 -700h-65l-60 230h-370l-60 -230h-65zM165 290h340
l-95 350h-150z" />
    <glyph glyph-name="uni01FB" unicode="&#x1fb;" horiz-adv-x="615" 
d="M190 685q0 39 26.5 67t65.5 32l43 71h60v-1l-60 -76q30 -11 47.5 -36t17.5 -57q0 -42 -29 -71t-71 -29t-71 29t-29 71zM235 685q0 -23 16 -39t39 -16t39 16t16 39t-16 39t-39 16t-39 -16t-16 -39zM45 250q0 111 70 185.5t170 74.5q71 0 120 -34.5t69 -75.5h1v100h60v-500
h-60v100h-1q-20 -41 -69 -75.5t-120 -34.5q-100 0 -170 74.5t-70 185.5zM105 250q0 -88 54.5 -146.5t130.5 -58.5q74 0 129.5 58.5t55.5 146.5t-55.5 146.5t-129.5 58.5q-76 0 -130.5 -58.5t-54.5 -146.5z" />
    <glyph glyph-name="uni01FC" unicode="&#x1fc;" horiz-adv-x="965" 
d="M25 0l185 700h710v-60h-390v-255h315v-60h-315v-265h390v-60h-455v230h-315l-60 -230h-65zM165 290h300v350h-205zM475 790l90 145h75v-1l-115 -144h-50z" />
    <glyph glyph-name="uni01FD" unicode="&#x1fd;" horiz-adv-x="965" 
d="M60 140q0 66 49.5 108t140.5 42h180v33q0 62 -35.5 97t-99.5 35q-79 0 -124 -53q-21 -24 -31 -52h-60q14 47 40 80q64 80 175 80q85 0 138 -53q22 -21 37 -52h5q19 30 47 52q63 53 153 53q105 0 175 -71t70 -179v-25h-430q4 -82 57 -136t128 -54q81 0 136 55q24 24 39 55
h60q-18 -46 -50 -83q-72 -82 -185 -82q-98 0 -163 65q-30 30 -47 65h-5q-19 -36 -51 -65q-71 -65 -174 -65q-80 0 -127.5 42.5t-47.5 107.5zM490 290h365q-8 73 -57 119t-123 46q-73 0 -123 -46t-62 -119zM120 140q0 -44 31.5 -69.5t93.5 -25.5q81 0 133 55t52 135h-180
q-66 0 -98 -25.5t-32 -69.5zM445 600l90 145h75v-1l-115 -144h-50z" />
    <glyph glyph-name="uni01FE" unicode="&#x1fe;" horiz-adv-x="820" 
d="M25 -5v75l84 69q-59 96 -59 211q0 160 103 265t257 105q162 0 265 -114l120 99v-75l-85 -70q60 -91 60 -210q0 -160 -103 -265t-257 -105q-164 0 -266 113zM115 350q0 -98 43 -171l470 388q-82 93 -218 93q-129 0 -212 -86t-83 -224zM662 520l-470 -387q82 -93 218 -93
q129 0 212 86t83 224q0 95 -43 170zM380 790l90 145h75v-1l-115 -144h-50z" />
    <glyph glyph-name="uni01FF" unicode="&#x1ff;" 
d="M40 -5v75l44 37q-39 62 -39 143q0 112 73 186t182 74q105 0 180 -72l80 67v-75l-44 -37q39 -64 39 -143q0 -112 -73 -186t-182 -74q-108 0 -180 72zM105 250q0 -59 25 -105l305 256q-54 54 -135 54q-83 0 -139 -58t-56 -147zM470 354l-306 -255q54 -54 136 -54
q83 0 139 58t56 147q0 58 -25 104zM270 600l90 145h75v-1l-115 -144h-50z" />
    <glyph glyph-name="Scommaaccent" unicode="&#x218;" horiz-adv-x="635" 
d="M45 185h65q14 -42 42 -73q64 -72 173 -72q94 0 144.5 40t50.5 100q0 16 -3.5 29t-12.5 25t-16.5 20.5t-24.5 18t-26.5 14.5t-32.5 13.5t-33 11.5t-37 11.5t-36 11.5q-40 11 -67 21t-59 26.5t-51.5 35.5t-32.5 48t-13 64q0 78 66 134t174 56q142 0 219 -93q33 -40 46 -92
h-65q-11 35 -36 62q-59 63 -164 63q-83 0 -129 -37.5t-46 -92.5q0 -69 93 -109q31 -14 130 -43q41 -13 66.5 -22.5t58.5 -27t51.5 -36.5t32 -48t13.5 -64q0 -83 -70.5 -141.5t-189.5 -58.5q-150 0 -230 102q-35 46 -50 103zM270 -140q0 15 13.5 27.5t31.5 12.5
q24 0 39.5 -19t15.5 -56q0 -44 -26 -72.5t-69 -32.5v30q55 7 55 55q0 2 -3 14l-2 6l-4 -3q-8 -2 -11 -2q-40 0 -40 40z" />
    <glyph glyph-name="scommaaccent" unicode="&#x219;" horiz-adv-x="510" 
d="M40 150h65q13 -32 34 -53q48 -52 131 -52q68 0 101.5 24.5t33.5 65.5q0 22 -13 38.5t-41.5 27.5t-51 17t-64.5 15q-49 9 -83.5 23t-60.5 44.5t-26 74.5q0 55 49.5 95t135.5 40q108 0 171 -73q27 -31 39 -72h-65q-11 27 -29 45q-45 45 -116 45q-60 0 -92.5 -23.5
t-32.5 -56.5q0 -18 10 -32.5t24 -24t39.5 -17.5t45 -12.5t51.5 -10.5q36 -8 63.5 -17.5t53 -26t39.5 -41.5t14 -58q0 -63 -50.5 -104t-144.5 -41q-120 0 -186 80q-31 35 -44 80zM210 -140q0 15 13.5 27.5t31.5 12.5q24 0 39.5 -19t15.5 -56q0 -44 -26 -72.5t-69 -32.5v30
q55 7 55 55q0 2 -3 14l-2 6l-4 -3q-8 -2 -11 -2q-40 0 -40 40z" />
    <glyph glyph-name="uni021A" unicode="&#x21a;" horiz-adv-x="585" 
d="M10 640v60h565v-60h-250v-640h-65v640h-250zM240 -140q0 15 13.5 27.5t31.5 12.5q24 0 39.5 -19t15.5 -56q0 -44 -26 -72.5t-69 -32.5v30q55 7 55 55q0 2 -3 14l-2 6l-4 -3q-8 -2 -11 -2q-40 0 -40 40z" />
    <glyph glyph-name="uni021B" unicode="&#x21b;" horiz-adv-x="355" 
d="M25 445v55h70v110h60v-110h165v-55h-165v-390h170v-55h-230v445h-70zM165 -140q0 15 13.5 27.5t31.5 12.5q24 0 39.5 -19t15.5 -56q0 -44 -26 -72.5t-69 -32.5v30q55 7 55 55q0 2 -3 14l-2 6l-4 -3q-8 -2 -11 -2q-40 0 -40 40z" />
    <glyph glyph-name="afii57929" unicode="&#x2bc;" horiz-adv-x="160" 
d="M30 660q0 15 13.5 27.5t31.5 12.5q24 0 39.5 -19t15.5 -56q0 -44 -26 -72.5t-69 -32.5v30q55 7 55 55q0 2 -3 14l-2 6l-4 -3q-8 -2 -11 -2q-40 0 -40 40z" />
    <glyph glyph-name="circumflex" unicode="&#x2c6;" horiz-adv-x="345" 
d="M30 550v1l110 144h65l110 -144v-1h-60l-75 100h-15l-75 -100h-60z" />
    <glyph glyph-name="caron" unicode="&#x2c7;" horiz-adv-x="345" 
d="M30 694v1h60l75 -100h15l75 100h60v-1l-110 -144h-65z" />
    <glyph glyph-name="breve" unicode="&#x2d8;" horiz-adv-x="330" 
d="M30 680h55q0 -31 21.5 -50.5t58.5 -19.5t58.5 19.5t21.5 50.5h55q0 -50 -38 -85t-97 -35t-97 35t-38 85z" />
    <glyph glyph-name="dotaccent" unicode="&#x2d9;" horiz-adv-x="150" 
d="M30 650q0 19 13 32t32 13t32 -13t13 -32t-13 -32t-32 -13t-32 13t-13 32z" />
    <glyph glyph-name="ring" unicode="&#x2da;" horiz-adv-x="260" 
d="M30 595q0 42 29 71t71 29t71 -29t29 -71t-29 -71t-71 -29t-71 29t-29 71zM75 595q0 -23 16 -39t39 -16t39 16t16 39t-16 39t-39 16t-39 -16t-16 -39z" />
    <glyph glyph-name="ogonek" unicode="&#x2db;" horiz-adv-x="230" 
d="M30 -135q0 56 62 106q27 23 63 39l45 -10q-38 -18 -60 -35q-60 -45 -60 -95q0 -19 13.5 -32t36.5 -13q25 0 48 7l22 8v-45q-6 -4 -20 -10q-26 -10 -50 -10q-44 0 -72 25.5t-28 64.5z" />
    <glyph glyph-name="tilde" unicode="&#x2dc;" horiz-adv-x="360" 
d="M30 580v26q0 37 23.5 60.5t61.5 23.5q35 0 75 -32q37 -33 55 -33q15 0 25 10t10 25v25h50v-26q0 -37 -23.5 -60.5t-61.5 -23.5q-37 0 -74 33q-2 1 -11 9t-12 9.5t-10 6t-12 6t-11 1.5q-15 0 -25 -10t-10 -25v-25h-50z" />
    <glyph glyph-name="hungarumlaut" unicode="&#x2dd;" horiz-adv-x="350" 
d="M175 550l75 145h70v-1l-100 -144h-45zM30 550l75 145h70v-1l-100 -144h-45z" />
    <glyph glyph-name="uni0301" unicode="&#x301;" horiz-adv-x="0" 
d="M-410 825l70 115h60v-1l-90 -114h-40z" />
    <glyph glyph-name="uni030A" unicode="&#x30a;" horiz-adv-x="0" 
d="M-435 760q0 42 29 71t71 29t71 -29t29 -71t-29 -71t-71 -29t-71 29t-29 71zM-390 760q0 -23 16 -39t39 -16t39 16t16 39t-16 39t-39 16t-39 -16t-16 -39z" />
    <glyph glyph-name="afii10023" unicode="&#x401;" horiz-adv-x="610" 
d="M90 0v700h475v-60h-410v-255h335v-60h-335v-265h410v-60h-475zM374 828q0 19 13 32t32 13t32 -13t13 -32t-13 -32t-32 -13t-32 13t-13 32zM204 828q0 19 13 32t32 13t32 -13t13 -32t-13 -32t-32 -13t-32 13t-13 32z" />
    <glyph glyph-name="afii10051" unicode="&#x402;" horiz-adv-x="775" 
d="M10 640v60h520v-60h-240v-220h190q111 0 178 -64t67 -166v-280h-210v60h145v220q0 80 -47 125t-133 45h-190v-360h-65v640h-215z" />
    <glyph glyph-name="afii10052" unicode="&#x403;" horiz-adv-x="550" 
d="M90 0v700h440v-60h-375v-640h-65zM285 775l90 145h75v-1l-115 -144h-50z" />
    <glyph glyph-name="afii10053" unicode="&#x404;" horiz-adv-x="800" 
d="M50 350q0 160 103 265t257 105q168 0 273 -125q45 -55 67 -125h-65q-20 53 -57 95q-85 95 -218 95q-122 0 -202.5 -76.5t-92.5 -198.5h315v-60h-315q8 -124 90 -204.5t205 -80.5q136 0 222 102q37 44 58 103h65q-22 -74 -69 -133q-104 -132 -276 -132q-154 0 -257 105
t-103 265z" />
    <glyph glyph-name="afii10054" unicode="&#x405;" horiz-adv-x="635" 
d="M45 185h65q14 -42 42 -73q64 -72 173 -72q94 0 144.5 40t50.5 100q0 16 -3.5 29t-12.5 25t-16.5 20.5t-24.5 18t-26.5 14.5t-32.5 13.5t-33 11.5t-37 11.5t-36 11.5q-40 11 -67 21t-59 26.5t-51.5 35.5t-32.5 48t-13 64q0 78 66 134t174 56q142 0 219 -93q33 -40 46 -92
h-65q-11 35 -36 62q-59 63 -164 63q-83 0 -129 -37.5t-46 -92.5q0 -69 93 -109q31 -14 130 -43q41 -13 66.5 -22.5t58.5 -27t51.5 -36.5t32 -48t13.5 -64q0 -83 -70.5 -141.5t-189.5 -58.5q-150 0 -230 102q-35 46 -50 103z" />
    <glyph glyph-name="afii10055" unicode="&#x406;" horiz-adv-x="245" 
d="M90 0v700h65v-700h-65z" />
    <glyph glyph-name="afii10056" unicode="&#x407;" horiz-adv-x="245" 
d="M90 0v700h65v-700h-65zM165 828q0 19 13 32t32 13t32 -13t13 -32t-13 -32t-32 -13t-32 13t-13 32zM-5 828q0 19 13 32t32 13t32 -13t13 -32t-13 -32t-32 -13t-32 13t-13 32z" />
    <glyph glyph-name="afii10057" unicode="&#x408;" horiz-adv-x="550" 
d="M0 155l65 15q11 -38 32 -65q49 -65 138 -65q76 0 120.5 47t44.5 133v480h65v-480q0 -111 -62.5 -175.5t-167.5 -64.5q-124 0 -191 87q-31 40 -44 88z" />
    <glyph glyph-name="afii10058" unicode="&#x409;" horiz-adv-x="1035" 
d="M25 0l180 700h340v-250h205q114 0 182 -63t68 -162t-68 -162t-182 -63h-270v640h-230l-160 -640h-65zM545 60h205q89 0 137 44.5t48 120.5t-48 120.5t-137 44.5h-205v-330z" />
    <glyph glyph-name="afii10059" unicode="&#x40a;" horiz-adv-x="1115" 
d="M90 0v700h65v-280h395v280h65v-280h220q114 0 179.5 -59t65.5 -151t-65.5 -151t-179.5 -59h-285v360h-395v-360h-65zM615 60h220q89 0 134.5 40t45.5 110t-45.5 110t-134.5 40h-220v-300z" />
    <glyph glyph-name="afii10060" unicode="&#x40b;" horiz-adv-x="775" 
d="M10 640v60h520v-60h-240v-220h190q111 0 178 -64t67 -166v-190h-65v190q0 80 -47 125t-133 45h-190v-360h-65v640h-215z" />
    <glyph glyph-name="afii10061" unicode="&#x40c;" horiz-adv-x="635" 
d="M90 0v700h65v-315h155l225 315h80l-245 -340l255 -360h-80l-230 325h-160v-325h-65zM305 775l90 145h75v-1l-115 -144h-50z" />
    <glyph glyph-name="afii10062" unicode="&#x40e;" 
d="M15 700h70l145 -375h145l150 375h70l-280 -700h-70l105 265h-165zM155 910h55q0 -39 25.5 -62t69.5 -23t69.5 23t25.5 62h55q0 -57 -42 -96t-108 -39t-108 39t-42 96z" />
    <glyph glyph-name="afii10145" unicode="&#x40f;" horiz-adv-x="715" 
d="M90 0v700h65v-640h405v640h65v-700h-235v-140h-65v140h-235z" />
    <glyph glyph-name="afii10017" unicode="&#x410;" horiz-adv-x="670" 
d="M25 0l185 700h250l185 -700h-65l-60 230h-370l-60 -230h-65zM165 290h340l-95 350h-150z" />
    <glyph glyph-name="afii10018" unicode="&#x411;" horiz-adv-x="670" 
d="M90 0v700h480v-60h-415v-210h220q110 0 177.5 -61.5t67.5 -153.5t-67.5 -153.5t-177.5 -61.5h-285zM155 60h220q85 0 132.5 42.5t47.5 112.5t-47.5 112.5t-132.5 42.5h-220v-310z" />
    <glyph glyph-name="afii10019" unicode="&#x412;" horiz-adv-x="700" 
d="M90 0v700h325q89 0 144.5 -52.5t55.5 -132.5q0 -72 -48 -118q-22 -20 -47 -32v-5q34 -10 62 -32q63 -49 63 -133q0 -85 -62 -140t-168 -55h-325zM155 390h260q63 0 99 34t36 91t-36 91t-99 34h-260v-250zM155 60h260q81 0 123 36.5t42 98.5t-42 98.5t-123 36.5h-260v-270
z" />
    <glyph glyph-name="afii10020" unicode="&#x413;" horiz-adv-x="550" 
d="M90 0v700h440v-60h-375v-640h-65z" />
    <glyph glyph-name="afii10021" unicode="&#x414;" horiz-adv-x="730" 
d="M5 -140v200h80l160 640h240l160 -640h80v-200h-65v140h-590v-140h-65zM150 60h430l-145 580h-140z" />
    <glyph glyph-name="afii10022" unicode="&#x415;" horiz-adv-x="610" 
d="M90 0v700h475v-60h-410v-255h335v-60h-335v-265h410v-60h-475z" />
    <glyph glyph-name="afii10024" unicode="&#x416;" horiz-adv-x="985" 
d="M15 0l245 360l-235 340h80l215 -315h140v315h65v-315h140l215 315h80l-235 -340l245 -360h-80l-220 325h-145v-325h-65v325h-145l-220 -325h-80z" />
    <glyph glyph-name="afii10025" unicode="&#x417;" horiz-adv-x="635" 
d="M35 195h65q12 -43 39 -78q61 -77 181 -77q94 0 144.5 41t50.5 104t-50.5 104t-144.5 41h-90v60h90q84 0 129.5 39t45.5 101q0 55 -46 92.5t-129 37.5q-104 0 -162 -70q-27 -33 -38 -70h-65q18 59 50 100q78 100 215 100q108 0 174 -56t66 -134q0 -83 -60 -131
q-25 -22 -60 -34v-5q38 -10 70 -33q70 -54 70 -142q0 -86 -70.5 -145.5t-189.5 -59.5q-153 0 -234 107q-36 48 -51 108z" />
    <glyph glyph-name="afii10026" unicode="&#x418;" horiz-adv-x="725" 
d="M90 0v700h65v-615l-1 -10h1l390 625h90v-700h-65v615l1 10h-1l-390 -625h-90z" />
    <glyph glyph-name="afii10027" unicode="&#x419;" horiz-adv-x="725" 
d="M90 0v700h65v-615l-1 -10h1l390 625h90v-700h-65v615l1 10h-1l-390 -625h-90zM218 910h55q0 -39 25.5 -62t69.5 -23t69.5 23t25.5 62h55q0 -57 -42 -96t-108 -39t-108 39t-42 96z" />
    <glyph glyph-name="afii10028" unicode="&#x41a;" horiz-adv-x="635" 
d="M90 0v700h65v-315h155l225 315h80l-245 -340l255 -360h-80l-230 325h-160v-325h-65z" />
    <glyph glyph-name="afii10029" unicode="&#x41b;" horiz-adv-x="655" 
d="M25 0l180 700h245l180 -700h-65l-165 640h-145l-165 -640h-65z" />
    <glyph glyph-name="afii10030" unicode="&#x41c;" horiz-adv-x="915" 
d="M90 0v700h105l230 -465h65l230 465h105v-700h-65v630l1 10h-1l-230 -465h-145l-230 465l-1 -1l1 -9v-630h-65z" />
    <glyph glyph-name="afii10031" unicode="&#x41d;" horiz-adv-x="715" 
d="M90 0v700h65v-315h405v315h65v-700h-65v325h-405v-325h-65z" />
    <glyph glyph-name="afii10032" unicode="&#x41e;" horiz-adv-x="820" 
d="M50 350q0 160 103 265t257 105t257 -105t103 -265t-103 -265t-257 -105t-257 105t-103 265zM115 350q0 -138 83 -224t212 -86t212 86t83 224t-83 224t-212 86t-212 -86t-83 -224z" />
    <glyph glyph-name="afii10033" unicode="&#x41f;" horiz-adv-x="715" 
d="M90 0v700h535v-700h-65v640h-405v-640h-65z" />
    <glyph glyph-name="afii10034" unicode="&#x420;" horiz-adv-x="665" 
d="M90 0v700h285q114 0 182 -63t68 -162t-68 -162t-182 -63h-220v-250h-65zM155 310h220q89 0 137 44.5t48 120.5t-48 120.5t-137 44.5h-220v-330z" />
    <glyph glyph-name="afii10035" unicode="&#x421;" horiz-adv-x="800" 
d="M50 350q0 160 103 265t257 105q168 0 273 -125q45 -55 67 -125h-65q-20 53 -57 95q-85 95 -218 95q-129 0 -212 -86t-83 -224t83 -224t212 -86q136 0 222 102q37 44 58 103h65q-22 -74 -69 -133q-104 -132 -276 -132q-154 0 -257 105t-103 265z" />
    <glyph glyph-name="afii10036" unicode="&#x422;" horiz-adv-x="585" 
d="M10 640v60h565v-60h-250v-640h-65v640h-250z" />
    <glyph glyph-name="afii10037" unicode="&#x423;" 
d="M15 700h70l145 -375h145l150 375h70l-280 -700h-70l105 265h-165z" />
    <glyph glyph-name="afii10038" unicode="&#x424;" horiz-adv-x="875" 
d="M45 355q0 127 99.5 216.5t260.5 93.5v80h65v-80q161 -4 260.5 -93.5t99.5 -216.5t-99.5 -216.5t-260.5 -93.5v-80h-65v80q-161 4 -260.5 93.5t-99.5 216.5zM470 605v-500q135 4 215 74.5t80 175.5q0 104 -80 175t-215 75zM110 355q0 -105 80 -175.5t215 -74.5v500
q-135 -4 -215 -75t-80 -175z" />
    <glyph glyph-name="afii10039" unicode="&#x425;" horiz-adv-x="630" 
d="M25 0l190 350l-180 350h70l165 -320h90l165 320h70l-180 -350l190 -350h-70l-175 320h-90l-175 -320h-70z" />
    <glyph glyph-name="afii10040" unicode="&#x426;" horiz-adv-x="710" 
d="M90 0v700h66v-640h374v640h65v-640h90v-200h-65v140h-530z" />
    <glyph glyph-name="afii10041" unicode="&#x427;" horiz-adv-x="670" 
d="M75 465v235h65v-235q0 -83 48.5 -131.5t131.5 -48.5q72 0 142 32q31 14 53 33v350h65v-700h-65v285q-23 -16 -56 -30q-72 -30 -149 -30q-105 0 -170 66t-65 174z" />
    <glyph glyph-name="afii10042" unicode="&#x428;" horiz-adv-x="995" 
d="M90 0v700h66v-640h309v640h65v-640h310v640h65v-700h-815z" />
    <glyph glyph-name="afii10043" unicode="&#x429;" horiz-adv-x="1020" 
d="M90 0v700h66v-640h309v640h65v-640h310v640h65v-640h90v-200h-65v140h-840z" />
    <glyph glyph-name="afii10044" unicode="&#x42a;" horiz-adv-x="720" 
d="M0 640v60h225v-250h210q114 0 182 -63t68 -162t-68 -162t-182 -63h-275v640h-160zM225 60h210q89 0 137 44.5t48 120.5t-48 120.5t-137 44.5h-210v-330z" />
    <glyph glyph-name="afii10045" unicode="&#x42b;" horiz-adv-x="855" 
d="M700 0v700h65v-700h-65zM90 0v700h65v-250h200q114 0 182 -63t68 -162t-68 -162t-182 -63h-265zM155 60h200q89 0 137 44.5t48 120.5t-48 120.5t-137 44.5h-200v-330z" />
    <glyph glyph-name="afii10046" unicode="&#x42c;" horiz-adv-x="660" 
d="M90 0v700h65v-250h220q114 0 182 -63t68 -162t-68 -162t-182 -63h-285zM155 60h220q89 0 137 44.5t48 120.5t-48 120.5t-137 44.5h-220v-330z" />
    <glyph glyph-name="afii10047" unicode="&#x42d;" horiz-adv-x="795" 
d="M40 245h65q19 -58 57 -103q86 -102 223 -102q123 0 205 80.5t90 204.5h-315v60h315q-12 122 -92.5 198.5t-202.5 76.5q-135 0 -218 -95q-37 -42 -57 -95h-65q22 70 67 125q105 125 273 125q154 0 257 -105t103 -265t-103 -265t-257 -105q-94 0 -163.5 37.5t-112.5 94.5
q-47 59 -69 133z" />
    <glyph glyph-name="afii10048" unicode="&#x42e;" horiz-adv-x="1020" 
d="M90 0v700h65v-315h125q12 143 109.5 239t235.5 96q144 0 244.5 -105.5t100.5 -264.5t-100.5 -264.5t-244.5 -105.5q-139 0 -236 97.5t-109 247.5h-125v-325h-65zM345 350q0 -136 81 -223t199 -87t199 87t81 223q0 134 -81 222t-199 88t-199 -88t-81 -222z" />
    <glyph glyph-name="afii10049" unicode="&#x42f;" horiz-adv-x="685" 
d="M60 485q0 96 65.5 155.5t179.5 59.5h290v-700h-66v270h-229l-160 -270h-75l165 280q-74 15 -122 70t-48 135zM125 485q0 -74 45.5 -114.5t134.5 -40.5h224v310h-224q-89 0 -134.5 -40.5t-45.5 -114.5z" />
    <glyph glyph-name="afii10065" unicode="&#x430;" horiz-adv-x="615" 
d="M45 250q0 111 70 185.5t170 74.5q71 0 120 -34.5t69 -75.5h1v100h60v-500h-60v100h-1q-20 -41 -69 -75.5t-120 -34.5q-100 0 -170 74.5t-70 185.5zM105 250q0 -88 54.5 -146.5t130.5 -58.5q74 0 129.5 58.5t55.5 146.5t-55.5 146.5t-129.5 58.5q-76 0 -130.5 -58.5
t-54.5 -146.5z" />
    <glyph glyph-name="afii10066" unicode="&#x431;" horiz-adv-x="560" 
d="M50 285q0 218 79 316.5t231 98.5h125v-55h-120q-119 0 -182 -67.5t-74 -212.5h1q17 27 42 47q58 48 143 48q94 0 162 -69t68 -166q0 -98 -69.5 -166.5t-170.5 -68.5q-109 0 -172 74.5t-63 220.5zM110 237q0 -86 49.5 -139t125.5 -53q75 0 127.5 53t52.5 129
q0 74 -52.5 126t-127.5 52q-74 0 -124.5 -49t-50.5 -119z" />
    <glyph glyph-name="afii10067" unicode="&#x432;" horiz-adv-x="530" 
d="M80 0v500h235q71 0 110.5 -36t39.5 -94q0 -76 -75 -104v-1q3 0 12 -3t23.5 -12t27.5 -22t22.5 -36t9.5 -52q0 -62 -44.5 -101t-124.5 -39h-236zM140 290h175q44 0 67 20t23 55q0 80 -90 80h-175v-155zM140 55h175q110 0 110 90t-110 90h-175v-180z" />
    <glyph glyph-name="afii10068" unicode="&#x433;" horiz-adv-x="425" 
d="M80 0v500h335v-55h-275v-445h-60z" />
    <glyph glyph-name="afii10069" unicode="&#x434;" horiz-adv-x="550" 
d="M5 -120v175h55l120 445h190l120 -445h55v-175h-55v120h-430v-120h-55zM120 55h310l-105 390h-100z" />
    <glyph glyph-name="afii10070" unicode="&#x435;" horiz-adv-x="590" 
d="M45 250q0 112 72 186t178 74q105 0 177.5 -73.5t72.5 -181.5v-25h-440q4 -79 58 -132t132 -53q86 0 141 55q26 24 39 55h60q-18 -47 -51 -83q-74 -82 -189 -82q-106 0 -178 74t-72 186zM105 285h375q-8 73 -59.5 121.5t-125.5 48.5t-126 -48t-64 -122z" />
    <glyph glyph-name="afii10072" unicode="&#x436;" horiz-adv-x="760" 
d="M5 0l195 260l-180 240h70l160 -210h100v210h60v-210h100l160 210h70l-180 -240l195 -260h-70l-175 235h-100v-235h-60v235h-100l-175 -235h-70z" />
    <glyph glyph-name="afii10073" unicode="&#x437;" horiz-adv-x="485" 
d="M25 145h60q7 -27 27 -50q46 -50 128 -50q68 0 104 27t36 68t-34.5 65.5t-105.5 24.5h-60v55h60q125 0 125 85q0 36 -32 60.5t-93 24.5q-73 0 -114 -43q-19 -19 -26 -42h-60q10 38 36 70q58 70 164 70q86 0 135.5 -40t49.5 -95q0 -80 -90 -114v-1q2 0 12 -3.5t26 -12.5
t31 -22.5t25.5 -36.5t10.5 -50q0 -63 -51.5 -104t-148.5 -41q-122 0 -179 77q-25 35 -36 78z" />
    <glyph glyph-name="afii10074" unicode="&#x438;" horiz-adv-x="580" 
d="M80 0v500h60v-405l-1 -10h1l290 415h70v-500h-60v405l1 10h-1l-290 -415h-70z" />
    <glyph glyph-name="afii10075" unicode="&#x439;" horiz-adv-x="580" 
d="M80 0v500h60v-405l-1 -10h1l290 415h70v-500h-60v405l1 10h-1l-290 -415h-70zM150 690h55q0 -31 22 -50.5t63 -19.5t63 19.5t22 50.5h55q0 -50 -39 -85t-101 -35t-101 35t-39 85z" />
    <glyph glyph-name="afii10076" unicode="&#x43a;" horiz-adv-x="515" 
d="M80 0v500h60v-210h120l165 210h70l-185 -240l200 -260h-70l-180 235h-120v-235h-60z" />
    <glyph glyph-name="afii10077" unicode="&#x43b;" horiz-adv-x="515" 
d="M20 0l140 500h195l140 -500h-60l-125 445h-105l-125 -445h-60z" />
    <glyph glyph-name="afii10078" unicode="&#x43c;" horiz-adv-x="700" 
d="M80 0v500h90l165 -320h30l165 320h90v-500h-60v420l1 10h-1l-160 -310h-100l-160 310h-1l1 -10v-420h-60z" />
    <glyph glyph-name="afii10079" unicode="&#x43d;" horiz-adv-x="580" 
d="M80 0v500h60v-220h300v220h60v-500h-60v225h-300v-225h-60z" />
    <glyph glyph-name="afii10080" unicode="&#x43e;" 
d="M45 250q0 112 73 186t182 74t182 -74t73 -186t-73 -186t-182 -74t-182 74t-73 186zM105 250q0 -89 56 -147t139 -58t139 58t56 147t-56 147t-139 58t-139 -58t-56 -147z" />
    <glyph glyph-name="afii10081" unicode="&#x43f;" horiz-adv-x="575" 
d="M80 0v500h415v-500h-60v445h-295v-445h-60z" />
    <glyph glyph-name="afii10082" unicode="&#x440;" horiz-adv-x="615" 
d="M80 -190v690h60v-100h1q16 40 67 75t122 35q100 0 170 -74.5t70 -185.5t-70 -185.5t-170 -74.5q-71 0 -122 35t-67 75h-1v-290h-60zM140 250q0 -88 55.5 -146.5t129.5 -58.5q76 0 130.5 58.5t54.5 146.5t-54.5 146.5t-130.5 58.5q-74 0 -129.5 -58.5t-55.5 -146.5z" />
    <glyph glyph-name="afii10083" unicode="&#x441;" horiz-adv-x="570" 
d="M45 250q0 111 71.5 185.5t173.5 74.5q119 0 189 -88q31 -38 46 -87h-60q-14 35 -37 60q-52 60 -138 60q-76 0 -130.5 -58.5t-54.5 -146.5t54.5 -146.5t130.5 -58.5q87 0 142 65q26 30 38 65h60q-15 -51 -47 -93q-76 -92 -193 -92q-102 0 -173.5 74.5t-71.5 185.5z" />
    <glyph glyph-name="afii10084" unicode="&#x442;" horiz-adv-x="430" 
d="M5 445v55h420v-55h-180v-445h-60v445h-180z" />
    <glyph glyph-name="afii10085" unicode="&#x443;" horiz-adv-x="505" 
d="M25 500h65l115 -445h95l130 445h65l-205 -690h-65l60 190h-125z" />
    <glyph glyph-name="afii10086" unicode="&#x444;" horiz-adv-x="660" 
d="M40 250q0 105 74 178t186 77v195h60v-195q112 -4 186 -77t74 -178t-74 -178t-186 -77v-185h-60v185q-112 4 -186 77t-74 178zM360 450v-400q84 4 142 59.5t58 140.5q0 84 -58 140t-142 60zM100 250q0 -85 58 -140.5t142 -59.5v400q-84 -4 -142 -60t-58 -140z" />
    <glyph glyph-name="afii10087" unicode="&#x445;" horiz-adv-x="485" 
d="M10 0l150 255l-140 245h70l120 -215h65l120 215h70l-140 -245l150 -255h-70l-130 230h-65l-130 -230h-70z" />
    <glyph glyph-name="afii10088" unicode="&#x446;" horiz-adv-x="575" 
d="M80 0v500h60v-445h280v445h60v-445h75v-175h-60v120h-415z" />
    <glyph glyph-name="afii10089" unicode="&#x447;" horiz-adv-x="545" 
d="M65 325v175h60v-175q0 -120 125 -120q59 0 113 22q27 12 42 23v250h60v-500h-60v195q-15 -11 -42 -23q-54 -22 -113 -22q-86 0 -135.5 47.5t-49.5 127.5z" />
    <glyph glyph-name="afii10090" unicode="&#x448;" horiz-adv-x="790" 
d="M80 0v500h60v-445h225v445h60v-445h225v445h60v-500h-630z" />
    <glyph glyph-name="afii10091" unicode="&#x449;" horiz-adv-x="805" 
d="M80 0v500h60v-445h225v445h60v-445h225v445h60v-445h75v-175h-60v120h-645z" />
    <glyph glyph-name="afii10092" unicode="&#x44a;" horiz-adv-x="530" 
d="M0 445v55h175v-180h145q81 0 130.5 -45.5t49.5 -114.5t-49.5 -114.5t-130.5 -45.5h-205v445h-115zM175 55h145q56 0 88 29.5t32 75.5t-32 75.5t-88 29.5h-145v-210z" />
    <glyph glyph-name="afii10093" unicode="&#x44b;" horiz-adv-x="670" 
d="M530 0v500h60v-500h-60zM80 0v500h60v-180h135q81 0 130.5 -45.5t49.5 -114.5t-49.5 -114.5t-130.5 -45.5h-195zM140 55h135q56 0 88 29.5t32 75.5t-32 75.5t-88 29.5h-135v-210z" />
    <glyph glyph-name="afii10094" unicode="&#x44c;" horiz-adv-x="505" 
d="M80 0v500h60v-180h155q81 0 130.5 -45.5t49.5 -114.5t-49.5 -114.5t-130.5 -45.5h-215zM140 55h155q56 0 88 29.5t32 75.5t-32 75.5t-88 29.5h-155v-210z" />
    <glyph glyph-name="afii10095" unicode="&#x44d;" horiz-adv-x="565" 
d="M35 175h60q12 -37 37 -65q53 -65 143 -65q71 0 122 50.5t63 129.5h-225v55h225q-12 76 -63 125.5t-122 49.5q-86 0 -138 -60q-23 -25 -37 -60h-60q15 49 46 87q70 88 189 88q102 0 173.5 -74.5t71.5 -185.5t-71.5 -185.5t-173.5 -74.5q-123 0 -193 92q-32 42 -47 93z" />
    <glyph glyph-name="afii10096" unicode="&#x44e;" horiz-adv-x="765" 
d="M80 0v500h60v-225h90q12 103 80 169t165 66q102 0 173.5 -74.5t71.5 -185.5t-71.5 -185.5t-173.5 -74.5q-97 0 -165 65t-80 165h-90v-220h-60zM290 250q0 -88 54.5 -146.5t130.5 -58.5t130.5 58.5t54.5 146.5t-54.5 146.5t-130.5 58.5t-130.5 -58.5t-54.5 -146.5z" />
    <glyph glyph-name="afii10097" unicode="&#x44f;" horiz-adv-x="545" 
d="M60 0l105 185q-42 13 -73.5 53t-31.5 97q0 69 52 117t133 48h220v-500h-60v170h-185l-90 -170h-70zM120 335q0 -47 35 -78.5t90 -31.5h160v220h-160q-55 0 -90 -32.5t-35 -77.5z" />
    <glyph glyph-name="afii10071" unicode="&#x451;" horiz-adv-x="590" 
d="M45 250q0 112 72 186t178 74q105 0 177.5 -73.5t72.5 -181.5v-25h-440q4 -79 58 -132t132 -53q86 0 141 55q26 24 39 55h60q-18 -47 -51 -83q-74 -82 -189 -82q-106 0 -178 74t-72 186zM105 285h375q-8 73 -59.5 121.5t-125.5 48.5t-126 -48t-64 -122zM330 625
q0 19 13 32t32 13t32 -13t13 -32t-13 -32t-32 -13t-32 13t-13 32zM160 625q0 19 13 32t32 13t32 -13t13 -32t-13 -32t-32 -13t-32 13t-13 32z" />
    <glyph glyph-name="afii10099" unicode="&#x452;" horiz-adv-x="575" 
d="M15 530v55h70v115h60v-115h130v-55h-130v-195h1q18 37 63.5 66t115.5 29q84 0 137 -58t53 -157v-405h-210v55h150v350q0 77 -37.5 118.5t-102.5 41.5q-72 0 -121 -51t-49 -129v-195h-60v530h-70z" />
    <glyph glyph-name="afii10100" unicode="&#x453;" horiz-adv-x="425" 
d="M80 0v500h335v-55h-275v-445h-60zM220 570l90 145h75v-1l-115 -144h-50z" />
    <glyph glyph-name="afii10101" unicode="&#x454;" horiz-adv-x="570" 
d="M45 250q0 111 71.5 185.5t173.5 74.5q119 0 189 -88q31 -38 46 -87h-60q-14 35 -37 60q-52 60 -138 60q-71 0 -122 -49.5t-63 -125.5h225v-55h-225q12 -79 63 -129.5t122 -50.5q87 0 142 65q26 30 38 65h60q-15 -51 -47 -93q-76 -92 -193 -92q-102 0 -173.5 74.5
t-71.5 185.5z" />
    <glyph glyph-name="afii10102" unicode="&#x455;" horiz-adv-x="510" 
d="M40 150h65q13 -32 34 -53q48 -52 131 -52q68 0 101.5 24.5t33.5 65.5q0 22 -13 38.5t-41.5 27.5t-51 17t-64.5 15q-49 9 -83.5 23t-60.5 44.5t-26 74.5q0 55 49.5 95t135.5 40q108 0 171 -73q27 -31 39 -72h-65q-11 27 -29 45q-45 45 -116 45q-60 0 -92.5 -23.5
t-32.5 -56.5q0 -18 10 -32.5t24 -24t39.5 -17.5t45 -12.5t51.5 -10.5q36 -8 63.5 -17.5t53 -26t39.5 -41.5t14 -58q0 -63 -50.5 -104t-144.5 -41q-120 0 -186 80q-31 35 -44 80z" />
    <glyph glyph-name="afii10103" unicode="&#x456;" horiz-adv-x="220" 
d="M65 650q0 19 13 32t32 13t32 -13t13 -32t-13 -32t-32 -13t-32 13t-13 32zM80 0v500h60v-500h-60z" />
    <glyph glyph-name="afii10104" unicode="&#x457;" horiz-adv-x="220" 
d="M80 0v500h60v-500h-60zM150 630q0 19 13 32t32 13t32 -13t13 -32t-13 -32t-32 -13t-32 13t-13 32zM-20 630q0 19 13 32t32 13t32 -13t13 -32t-13 -32t-32 -13t-32 13t-13 32z" />
    <glyph glyph-name="afii10105" unicode="&#x458;" horiz-adv-x="220" 
d="M65 650q0 19 13 32t32 13t32 -13t13 -32t-13 -32t-32 -13t-32 13t-13 32zM-65 -190v55h145v635h60v-690h-205z" />
    <glyph glyph-name="afii10106" unicode="&#x459;" horiz-adv-x="775" 
d="M20 0l140 500h260v-180h145q81 0 130.5 -45.5t49.5 -114.5t-49.5 -114.5t-130.5 -45.5h-205v445h-155l-125 -445h-60zM420 55h145q56 0 88 29.5t32 75.5t-32 75.5t-88 29.5h-145v-210z" />
    <glyph glyph-name="afii10107" unicode="&#x45a;" horiz-adv-x="845" 
d="M80 0v500h60v-200h290v200h60v-200h155q77 0 123.5 -42.5t46.5 -107.5t-46.5 -107.5t-123.5 -42.5h-215v245h-290v-245h-60zM490 55h155q52 0 81 26t29 69t-29 69t-81 26h-155v-190z" />
    <glyph glyph-name="afii10108" unicode="&#x45b;" horiz-adv-x="575" 
d="M15 530v55h70v115h60v-115h130v-55h-130v-195h1q18 37 63.5 66t115.5 29q84 0 137 -58t53 -157v-215h-60v215q0 77 -37.5 118.5t-102.5 41.5q-72 0 -121 -51t-49 -129v-195h-60v530h-70z" />
    <glyph glyph-name="afii10109" unicode="&#x45c;" horiz-adv-x="515" 
d="M80 0v500h60v-210h120l165 210h70l-185 -240l200 -260h-70l-180 235h-120v-235h-60zM238 561l90 145h75v-1l-115 -144h-50z" />
    <glyph glyph-name="afii10110" unicode="&#x45e;" horiz-adv-x="505" 
d="M25 500h65l115 -445h95l130 445h65l-205 -690h-65l60 190h-125zM120 690h55q0 -31 22 -50.5t63 -19.5t63 19.5t22 50.5h55q0 -50 -39 -85t-101 -35t-101 35t-39 85z" />
    <glyph glyph-name="afii10193" unicode="&#x45f;" horiz-adv-x="575" 
d="M80 0v500h60v-445h295v445h60v-500h-175v-120h-60v120h-180z" />
    <glyph glyph-name="afii10050" unicode="&#x490;" horiz-adv-x="550" 
d="M90 0v700h375v100h65v-160h-375v-640h-65z" />
    <glyph glyph-name="afii10098" unicode="&#x491;" horiz-adv-x="425" 
d="M80 0v500h275v90h60v-145h-275v-445h-60z" />
    <glyph glyph-name="uni1E9E" unicode="&#x1e9e;" horiz-adv-x="700" 
d="M85 0v460q0 114 66.5 177t198.5 63h257v-61l-187 -204v-5q112 -8 173.5 -66t61.5 -149q0 -93 -70.5 -154t-194.5 -61h-70v60h70q94 0 147 44.5t53 110.5t-53 110.5t-147 44.5h-50v65l180 200h-170q-108 0 -154 -42.5t-46 -136.5v-456h-65z" />
    <glyph glyph-name="endash" unicode="&#x2013;" horiz-adv-x="665" 
d="M60 240v55h545v-55h-545z" />
    <glyph glyph-name="emdash" unicode="&#x2014;" horiz-adv-x="855" 
d="M60 240v55h735v-55h-735z" />
    <glyph glyph-name="quoteleft" unicode="&#x2018;" horiz-adv-x="195" 
d="M45 590q0 102 100 120v-30q-60 -15 -60 -65q0 -6 2 -14l3 -6l6 2q12 3 14 3q15 0 27.5 -12.5t12.5 -27.5q0 -23 -13.5 -36.5t-36.5 -13.5q-25 0 -40 20t-15 60z" />
    <glyph glyph-name="quoteright" unicode="&#x2019;" horiz-adv-x="195" 
d="M45 660q0 23 13.5 36.5t36.5 13.5q25 0 40 -20t15 -60q0 -102 -100 -120v30q60 15 60 65q0 2 -3 14l-2 6l-6 -3q-10 -2 -14 -2q-15 0 -27.5 12.5t-12.5 27.5z" />
    <glyph glyph-name="quotesinglbase" unicode="&#x201a;" horiz-adv-x="195" 
d="M45 30q0 23 13.5 36.5t36.5 13.5q25 0 40 -20t15 -60q0 -102 -100 -120v30q60 15 60 65q0 2 -3 14l-2 6l-6 -3q-10 -2 -14 -2q-15 0 -27.5 12.5t-12.5 27.5z" />
    <glyph glyph-name="quotedblleft" unicode="&#x201c;" horiz-adv-x="335" 
d="M45 590q0 102 100 120v-30q-60 -15 -60 -65q0 -6 2 -14l3 -6l6 2q12 3 14 3q15 0 27.5 -12.5t12.5 -27.5q0 -23 -13.5 -36.5t-36.5 -13.5q-25 0 -40 20t-15 60zM185 590q0 102 100 120v-30q-60 -15 -60 -65q0 -6 2 -14l3 -6l6 2q12 3 14 3q15 0 27.5 -12.5t12.5 -27.5
q0 -23 -13.5 -36.5t-36.5 -13.5q-25 0 -40 20t-15 60z" />
    <glyph glyph-name="quotedblright" unicode="&#x201d;" horiz-adv-x="335" 
d="M45 660q0 23 13.5 36.5t36.5 13.5q25 0 40 -20t15 -60q0 -102 -100 -120v30q60 15 60 65q0 2 -3 14l-2 6l-6 -3q-10 -2 -14 -2q-15 0 -27.5 12.5t-12.5 27.5zM185 660q0 23 13.5 36.5t36.5 13.5q25 0 40 -20t15 -60q0 -102 -100 -120v30q60 15 60 65q0 2 -3 14l-2 6
l-6 -3q-10 -2 -14 -2q-15 0 -27.5 12.5t-12.5 27.5z" />
    <glyph glyph-name="quotedblbase" unicode="&#x201e;" horiz-adv-x="335" 
d="M45 30q0 23 13.5 36.5t36.5 13.5q25 0 40 -20t15 -60q0 -102 -100 -120v30q60 15 60 65q0 2 -3 14l-2 6l-6 -3q-10 -2 -14 -2q-15 0 -27.5 12.5t-12.5 27.5zM185 30q0 23 13.5 36.5t36.5 13.5q25 0 40 -20t15 -60q0 -102 -100 -120v30q60 15 60 65q0 2 -3 14l-2 6l-6 -3
q-10 -2 -14 -2q-15 0 -27.5 12.5t-12.5 27.5z" />
    <glyph glyph-name="dagger" unicode="&#x2020;" horiz-adv-x="460" 
d="M50 440v60h150v200h60v-200h150v-60h-150v-440h-60v440h-150z" />
    <glyph glyph-name="daggerdbl" unicode="&#x2021;" horiz-adv-x="460" 
d="M50 160v60h150v260h-150v60h150v160h60v-160h150v-60h-150v-260h150v-60h-150v-160h-60v160h-150z" />
    <glyph glyph-name="bullet" unicode="&#x2022;" horiz-adv-x="370" 
d="M120 280q0 26 19.5 45.5t45.5 19.5t45.5 -19.5t19.5 -45.5t-19.5 -45.5t-45.5 -19.5t-45.5 19.5t-19.5 45.5z" />
    <glyph glyph-name="ellipsis" unicode="&#x2026;" horiz-adv-x="620" 
d="M45 35q0 23 13.5 36.5t36.5 13.5t36.5 -13.5t13.5 -36.5t-13.5 -36.5t-36.5 -13.5t-36.5 14t-13.5 36zM260 35q0 23 13.5 36.5t36.5 13.5t36.5 -13.5t13.5 -36.5t-13.5 -36.5t-36.5 -13.5t-36.5 14t-13.5 36zM475 35q0 23 13.5 36.5t36.5 13.5t36.5 -13.5t13.5 -36.5
t-13.5 -36.5t-36.5 -13.5t-36.5 14t-13.5 36z" />
    <glyph glyph-name="perthousand" unicode="&#x2030;" horiz-adv-x="1130" 
d="M40 545q0 68 48.5 116.5t116.5 48.5t116.5 -48.5t48.5 -116.5t-48.5 -116.5t-116.5 -48.5t-116.5 48.5t-48.5 116.5zM140 0l420 700h65l-420 -700h-65zM100 545q0 -48 30 -79t75 -31t75 31t30 79t-30 79t-75 31t-75 -31t-30 -79zM760 155q0 68 48.5 116.5t116.5 48.5
t116.5 -48.5t48.5 -116.5t-48.5 -116.5t-116.5 -48.5t-116.5 48.5t-48.5 116.5zM390 155q0 68 48.5 116.5t116.5 48.5t116.5 -48.5t48.5 -116.5t-48.5 -116.5t-116.5 -48.5t-116.5 48.5t-48.5 116.5zM820 155q0 -48 30 -79t75 -31t75 31t30 79t-30 79t-75 31t-75 -31
t-30 -79zM450 155q0 -48 30 -79t75 -31t75 31t30 79t-30 79t-75 31t-75 -31t-30 -79z" />
    <glyph glyph-name="guilsinglleft" unicode="&#x2039;" horiz-adv-x="355" 
d="M40 250l230 235l40 -40l-190 -195l190 -195l-40 -40z" />
    <glyph glyph-name="guilsinglright" unicode="&#x203a;" horiz-adv-x="355" 
d="M45 55l190 195l-190 195l40 40l230 -235l-230 -235z" />
    <glyph glyph-name="fraction" unicode="&#x2044;" horiz-adv-x="140" 
d="M-175 0l430 700h60l-430 -700h-60z" />
    <glyph glyph-name="zerosuperior" unicode="&#x2070;" horiz-adv-x="370" 
d="M30 630q0 80 45 130t110 50t110 -50t45 -130t-45 -130t-110 -50t-110 50t-45 130zM90 630q0 -59 26 -92t69 -33t69 33t26 92t-26 92t-69 33t-69 -33t-26 -92z" />
    <glyph glyph-name="foursuperior" unicode="&#x2074;" horiz-adv-x="320" 
d="M20 535v55l135 210h65l-135 -210h110v70h60v-70h50v-55h-50v-75h-60v75h-175z" />
    <glyph glyph-name="fivesuperior" unicode="&#x2075;" horiz-adv-x="345" 
d="M40 555h65q5 -15 15 -25q21 -25 60 -25q80 0 80 65q0 25 -21.5 42.5t-58.5 17.5q-26 0 -52 -15q-10 -7 -18 -15l-55 10l10 190h225v-55h-170l-6 -85h1q7 7 19 12q22 13 56 13q59 0 94.5 -32.5t35.5 -82.5q0 -54 -36 -87t-100 -33q-80 0 -119 52q-17 21 -25 53z" />
    <glyph glyph-name="sixsuperior" unicode="&#x2076;" horiz-adv-x="330" 
d="M25 570q0 58 50 120l90 110h70l-75 -91l-30 -24v-5q4 1 12 5q12 5 23 5q62 0 101 -35t39 -85t-39 -85t-101 -35t-101 35t-39 85zM85 570q0 -27 21.5 -46t58.5 -19t58.5 19t21.5 46t-21.5 46t-58.5 19t-58.5 -19t-21.5 -46z" />
    <glyph glyph-name="sevensuperior" unicode="&#x2077;" horiz-adv-x="285" 
d="M20 745v55h255v-55l-150 -285h-65l150 284v1h-190z" />
    <glyph glyph-name="eightsuperior" unicode="&#x2078;" horiz-adv-x="370" 
d="M35 550q0 43 35 67q14 10 35 18v5q-15 5 -28 17q-27 22 -27 58q0 40 35.5 67.5t99.5 27.5t99.5 -27.5t35.5 -67.5q0 -36 -28 -58q-13 -11 -27 -17v-5q17 -7 35 -18q35 -27 35 -67q0 -41 -39.5 -70.5t-110.5 -29.5t-110.5 29.5t-39.5 70.5zM115 711q0 -46 70 -46t70 46
q0 44 -70 44t-70 -44zM95 555q0 -21 22.5 -35.5t67.5 -14.5t67.5 14.5t22.5 35.5t-22.5 35.5t-67.5 14.5t-67.5 -14.5t-22.5 -35.5z" />
    <glyph glyph-name="ninesuperior" unicode="&#x2079;" horiz-adv-x="330" 
d="M25 690q0 50 39 85t101 35t101 -35t39 -85q0 -58 -50 -120l-90 -110h-70l75 91l30 24v5q-8 -4 -12 -5q-13 -5 -23 -5q-62 0 -101 35t-39 85zM85 690q0 -27 21.5 -46t58.5 -19t58.5 19t21.5 46t-21.5 46t-58.5 19t-58.5 -19t-21.5 -46z" />
    <glyph glyph-name="zeroinferior" unicode="&#x2080;" horiz-adv-x="370" 
d="M30 70q0 80 45 130t110 50t110 -50t45 -130t-45 -130t-110 -50t-110 50t-45 130zM90 70q0 -59 26 -92t69 -33t69 33t26 92t-26 92t-69 33t-69 -33t-26 -92z" />
    <glyph glyph-name="oneinferior" unicode="&#x2081;" horiz-adv-x="340" 
d="M55 -100v55h100v220l-90 -55v65l95 55h55v-285h95v-55h-255z" />
    <glyph glyph-name="twoinferior" unicode="&#x2082;" horiz-adv-x="350" 
d="M35 -100v55l85 50q71 42 100.5 71t29.5 59q0 27 -19 43.5t-56 16.5q-40 0 -64 -30q-12 -15 -16 -30h-60q8 33 25 57q40 58 115 58q62 0 98.5 -32.5t36.5 -82.5q0 -97 -170 -175l-5 -3l-5 -2v-1l10 1h175v-55h-280z" />
    <glyph glyph-name="threeinferior" unicode="&#x2083;" horiz-adv-x="345" 
d="M30 -5h65q5 -13 16 -25q23 -25 64 -25q37 0 56 16.5t19 43.5q0 25 -20 40t-59 15h-71v50l105 75v1l-10 -1h-145v55h240v-55l-95 -68l-10 -6v-1h5q51 0 85.5 -32.5t34.5 -77.5q0 -47 -36.5 -78.5t-98.5 -31.5q-79 0 -119 52q-19 23 -26 53z" />
    <glyph glyph-name="fourinferior" unicode="&#x2084;" horiz-adv-x="320" 
d="M20 -25v55l135 210h65l-135 -210h110v70h60v-70h50v-55h-50v-75h-60v75h-175z" />
    <glyph glyph-name="fiveinferior" unicode="&#x2085;" horiz-adv-x="345" 
d="M40 -5h65q5 -15 15 -25q21 -25 60 -25q80 0 80 65q0 25 -21.5 42.5t-58.5 17.5q-26 0 -52 -15q-10 -7 -18 -15l-55 10l10 190h225v-55h-170l-6 -85h1q7 7 19 12q22 13 56 13q59 0 94.5 -32.5t35.5 -82.5q0 -54 -36 -87t-100 -33q-80 0 -119 52q-17 21 -25 53z" />
    <glyph glyph-name="sixinferior" unicode="&#x2086;" horiz-adv-x="330" 
d="M25 10q0 58 50 120l90 110h70l-75 -91l-30 -24v-5q4 1 12 5q12 5 23 5q62 0 101 -35t39 -85t-39 -85t-101 -35t-101 35t-39 85zM85 10q0 -27 21.5 -46t58.5 -19t58.5 19t21.5 46t-21.5 46t-58.5 19t-58.5 -19t-21.5 -46z" />
    <glyph glyph-name="seveninferior" unicode="&#x2087;" horiz-adv-x="285" 
d="M20 185v55h255v-55l-150 -285h-65l150 284v1h-190z" />
    <glyph glyph-name="eightinferior" unicode="&#x2088;" horiz-adv-x="370" 
d="M35 -10q0 43 35 67q14 10 35 18v5q-15 5 -28 17q-27 22 -27 58q0 40 35.5 67.5t99.5 27.5t99.5 -27.5t35.5 -67.5q0 -36 -28 -58q-13 -11 -27 -17v-5q17 -7 35 -18q35 -27 35 -67q0 -41 -39.5 -70.5t-110.5 -29.5t-110.5 29.5t-39.5 70.5zM115 151q0 -46 70 -46t70 46
q0 44 -70 44t-70 -44zM95 -5q0 -21 22.5 -35.5t67.5 -14.5t67.5 14.5t22.5 35.5t-22.5 35.5t-67.5 14.5t-67.5 -14.5t-22.5 -35.5z" />
    <glyph glyph-name="nineinferior" unicode="&#x2089;" horiz-adv-x="330" 
d="M25 130q0 50 39 85t101 35t101 -35t39 -85q0 -58 -50 -120l-90 -110h-70l75 91l30 24v5q-8 -4 -12 -5q-13 -5 -23 -5q-62 0 -101 35t-39 85zM85 130q0 -27 21.5 -46t58.5 -19t58.5 19t21.5 46t-21.5 46t-58.5 19t-58.5 -19t-21.5 -46z" />
    <glyph glyph-name="Euro" unicode="&#x20ac;" horiz-adv-x="830" 
d="M20 250v55h62q-2 30 -2 45t2 45h-62v55h72q30 122 125 196t223 74q168 0 273 -125q45 -55 67 -125h-65q-20 53 -57 95q-85 95 -218 95q-102 0 -178 -57t-104 -153h282v-55h-293q-2 -30 -2 -45t2 -45h293v-55h-282q29 -97 104.5 -153.5t177.5 -56.5q136 0 222 102
q37 44 58 103h65q-22 -74 -69 -133q-104 -132 -276 -132q-128 0 -223 74t-125 196h-72z" />
    <glyph glyph-name="uni20B4" unicode="&#x20b4;" horiz-adv-x="640" 
d="M55 390v60h395q12 9 22 22q23 31 23 68q0 52 -44.5 86t-130.5 34q-97 0 -153 -58q-25 -25 -37 -57h-65q13 47 47 87q78 88 208 88q112 0 176 -52.5t64 -127.5q0 -55 -35 -90h60v-60h-530zM55 250v60h530v-60h-395q-13 -10 -23 -23q-22 -30 -22 -67q0 -52 44.5 -86
t130.5 -34q98 0 153 57q24 24 37 58h65q-13 -48 -47 -88q-73 -87 -208 -87q-112 0 -176 52.5t-64 127.5q0 56 34 90h-59z" />
    <glyph glyph-name="uni20BD" unicode="&#x20bd;" horiz-adv-x="665" 
d="M35 110v60h85v90h-85v60h85v380h255q114 0 182 -62.5t68 -157.5t-68 -157.5t-182 -62.5h-190v-90h255v-60h-255v-110h-65v110h-85zM185 320h190q89 0 137 43t48 117t-48 117t-137 43h-190v-320z" />
    <glyph glyph-name="afii61352" unicode="&#x2116;" horiz-adv-x="1060" 
d="M710 550q0 68 46 114t114 46t114 -46t46 -114t-46 -114t-114 -46t-114 46t-46 114zM90 0v700h100l360 -620l5 -10h1l-1 10v620h65v-700h-100l-360 620l-5 10h-1l1 -10v-620h-65zM770 550q0 -45 29 -75t71 -30t71 30t29 75t-29 75t-71 30t-71 -30t-29 -75zM735 245v60h270
v-60h-270z" />
    <glyph glyph-name="trademark" unicode="&#x2122;" horiz-adv-x="745" 
d="M330 380v320h85l85 -180h20l85 180h85v-320h-55v255l1 10h-1l-85 -180h-80l-85 180h-1l1 -10v-255h-55zM10 645v55h285v-55h-115v-265h-55v265h-115z" />
    <glyph glyph-name="arrowleft" unicode="&#x2190;" horiz-adv-x="900" 
d="M90 335v10l175 170h15v-150h530v-50h-530v-150h-15z" />
    <glyph glyph-name="arrowup" unicode="&#x2191;" horiz-adv-x="900" 
d="M275 525v15l170 175h10l170 -175v-15h-150v-525h-50v525h-150z" />
    <glyph glyph-name="arrowright" unicode="&#x2192;" horiz-adv-x="900" 
d="M90 315v50h530v150h15l175 -170v-10l-175 -170h-15v150h-530z" />
    <glyph glyph-name="arrowdown" unicode="&#x2193;" horiz-adv-x="900" 
d="M275 160v15h150v525h50v-525h150v-15l-170 -175h-10z" />
    <glyph glyph-name="uni2196" unicode="&#x2196;" horiz-adv-x="900" 
d="M185 360v250l10 10h250v-15l-105 -105l380 -380l-35 -35l-380 380l-105 -105h-15z" />
    <glyph glyph-name="uni2197" unicode="&#x2197;" horiz-adv-x="900" 
d="M185 120l380 380l-105 105v15h250l10 -10v-250h-15l-105 105l-380 -380z" />
    <glyph glyph-name="uni2198" unicode="&#x2198;" horiz-adv-x="900" 
d="M185 585l35 35l380 -380l105 105h15v-250l-10 -10h-250v15l105 105z" />
    <glyph glyph-name="uni2199" unicode="&#x2199;" horiz-adv-x="900" 
d="M185 95v250h15l105 -105l380 380l35 -35l-380 -380l105 -105v-15h-250z" />
    <glyph glyph-name="minus" unicode="&#x2212;" horiz-adv-x="500" 
d="M60 255v60h380v-60h-380z" />
    <glyph glyph-name="approxequal" unicode="&#x2248;" horiz-adv-x="500" 
d="M55 290v15q0 49 31 79.5t84 30.5q43 0 90 -37q13 -12 17.5 -15.5t15 -10.5t19 -9.5t18.5 -2.5q55 0 55 55v15h60v-15q0 -49 -31 -79.5t-84 -30.5q-45 0 -89 38q-2 1 -10 7.5t-10 8t-9 6.5t-10.5 6.5t-9 4t-11 3.5t-11.5 1q-55 0 -55 -55v-15h-60zM55 125v15q0 49 31 79.5
t84 30.5q43 0 90 -37q13 -12 17.5 -15.5t15 -10.5t19 -9.5t18.5 -2.5q55 0 55 55v15h60v-15q0 -49 -31 -79.5t-84 -30.5q-45 0 -89 38q-2 1 -10 7.5t-10 8t-9 6.5t-10.5 6.5t-9 4t-11 3.5t-11.5 1q-55 0 -55 -55v-15h-60z" />
    <glyph glyph-name="notequal" unicode="&#x2260;" horiz-adv-x="500" 
d="M65 145v55h120l70 130h-190v55h220l80 145h60l-80 -145h90v-55h-120l-70 -130h190v-55h-220l-80 -145h-60l80 145h-90z" />
    <glyph glyph-name="lessequal" unicode="&#x2264;" horiz-adv-x="500" 
d="M55 280v65l380 175v-60l-320 -145v-5l320 -145v-60zM55 165v55l380 -175v-55z" />
    <glyph glyph-name="greaterequal" unicode="&#x2265;" horiz-adv-x="500" 
d="M65 105v60l320 145v5l-320 145v60l380 -175v-65zM65 -10v55l380 175v-55z" />
    <glyph glyph-name="commaaccent" unicode="&#xf6c3;" horiz-adv-x="160" 
d="M30 -140q0 15 13.5 27.5t31.5 12.5q24 0 39.5 -19t15.5 -56q0 -44 -26 -72.5t-69 -32.5v30q55 7 55 55q0 2 -3 14l-2 6l-4 -3q-8 -2 -11 -2q-40 0 -40 40z" />
    <glyph glyph-name="cyrBreve" unicode="&#xf6d1;" horiz-adv-x="360" 
d="M30 905h55q0 -39 25.5 -62t69.5 -23t69.5 23t25.5 62h55q0 -57 -42 -96t-108 -39t-108 39t-42 96z" />
    <glyph glyph-name="cyrbreve" unicode="&#xf6d4;" horiz-adv-x="340" 
d="M30 680h55q0 -31 22 -50.5t63 -19.5t63 19.5t22 50.5h55q0 -50 -39 -85t-101 -35t-101 35t-39 85z" />
    <glyph glyph-name="zero.oldstyle" unicode="&#xf730;" 
d="M45 250q0 112 73 186t182 74t182 -74t73 -186t-73 -186t-182 -74t-182 74t-73 186zM105 250q0 -89 56 -147t139 -58t139 58t56 147t-56 147t-139 58t-139 -58t-56 -147z" />
    <glyph glyph-name="one.oldstyle" unicode="&#xf731;" horiz-adv-x="285" 
d="M35 325v70l115 105h55v-500h-60v425z" />
    <glyph glyph-name="two.oldstyle" unicode="&#xf732;" horiz-adv-x="495" 
d="M69 430q62 80 176 80q95 0 150 -48t55 -122q0 -65 -39 -111.5t-116 -88.5l-145 -80l-10 -5v-1l10 1h315v-55h-430v55l205 115q78 44 114 83.5t36 86.5q0 51 -37.5 83t-107.5 32q-77 0 -122 -53q-18 -21 -28 -52h-65q12 46 39 80z" />
    <glyph glyph-name="three.oldstyle" unicode="&#xf733;" horiz-adv-x="515" 
d="M10 -10h65q11 -38 33 -68q52 -67 142 -67q77 0 121 40t44 105q0 62 -44.5 101t-125.5 39h-85v55h85q71 0 110.5 36t39.5 94q0 54 -40 92t-105 38q-80 0 -127 -53q-20 -22 -33 -52h-60q14 46 42 80q64 80 178 80q91 0 148 -55t57 -130t-53 -120q-22 -19 -52 -30v-5
q33 -10 62 -34q63 -55 63 -136q0 -88 -61 -144t-164 -56q-126 0 -195 95q-31 40 -45 95z" />
    <glyph glyph-name="four.oldstyle" unicode="&#xf734;" horiz-adv-x="510" 
d="M10 0v55l250 445h70l-250 -445h260v200h60v-200h105v-55h-105v-190h-60v190h-330z" />
    <glyph glyph-name="five.oldstyle" unicode="&#xf735;" horiz-adv-x="530" 
d="M45 -5h65q11 -39 31 -70q48 -70 139 -70q75 0 122.5 47.5t47.5 122.5t-49 125t-121 50q-67 0 -116 -43q-20 -17 -34 -42h-60l25 385h370v-55h-315l-16 -250h1q13 17 36 30q50 30 119 30q91 0 155.5 -66.5t64.5 -163.5q0 -98 -64.5 -161.5t-165.5 -63.5q-129 0 -194 97
q-30 45 -41 98z" />
    <glyph glyph-name="six.oldstyle" unicode="&#xf736;" horiz-adv-x="580" 
d="M45 225q0 67 23.5 115.5t81.5 124.5l180 235h70l-180 -230l-25 -30v-5q9 7 26 15q36 15 74 15q101 0 170.5 -69.5t69.5 -170.5q0 -98 -70.5 -166.5t-174.5 -68.5t-174.5 68.5t-70.5 166.5zM105 225q0 -75 53.5 -127.5t131.5 -52.5t131.5 52.5t53.5 127.5q0 79 -53 132
t-132 53t-132 -52.5t-53 -132.5z" />
    <glyph glyph-name="seven.oldstyle" unicode="&#xf737;" horiz-adv-x="440" 
d="M5 445v55h430v-55l-275 -635h-65l275 634v1h-365z" />
    <glyph glyph-name="eight.oldstyle" unicode="&#xf738;" 
d="M45 190q0 90 72 144q31 24 73 36v5q-32 11 -58 32q-57 47 -57 123q0 74 62 127t163 53t163 -53t62 -127q0 -75 -58 -123q-27 -22 -57 -32v-5q40 -12 72 -36q73 -55 73 -144q0 -82 -69.5 -141t-185.5 -59t-185.5 59t-69.5 141zM135 530q0 -53 44 -91.5t121 -38.5t121 38.5
t44 91.5q0 51 -44.5 88t-120.5 37t-120.5 -37t-44.5 -88zM105 190q0 -60 52.5 -102.5t142.5 -42.5t142.5 42.5t52.5 102.5q0 63 -54 109t-141 46t-141 -46t-54 -109z" />
    <glyph glyph-name="nine.oldstyle" unicode="&#xf739;" horiz-adv-x="580" 
d="M45 275q0 98 70.5 166.5t174.5 68.5t174.5 -68.5t70.5 -166.5q0 -67 -23.5 -115.5t-81.5 -124.5l-175 -225h-70l175 220l25 30v5q-10 -9 -26 -15q-32 -15 -74 -15q-101 0 -170.5 69.5t-69.5 170.5zM105 275q0 -79 53 -132t132 -53t132 52.5t53 132.5q0 75 -53.5 127.5
t-131.5 52.5t-131.5 -52.5t-53.5 -127.5z" />
    <glyph glyph-name="acircumflex.sc" horiz-adv-x="615" 
d="M25 0l165 600h235l165 -600h-65l-50 190h-335l-50 -190h-65zM155 250h305l-80 290h-145zM165 690v1l110 144h65l110 -144v-1h-60l-75 100h-15l-75 -100h-60z" />
    <glyph glyph-name="ecircumflex.sc" horiz-adv-x="560" 
d="M90 0v600h425v-60h-360v-205h300v-60h-300v-215h360v-60h-425zM160 690v1l110 144h65l110 -144v-1h-60l-75 100h-15l-75 -100h-60z" />
    <glyph glyph-name="Imacron.alt" horiz-adv-x="485" 
d="M50 0v60h160v580h-160v60h385v-60h-160v-580h160v-60h-385zM115 820v55h255v-55h-255z" />
    <glyph glyph-name="Idotaccent.alt" horiz-adv-x="485" 
d="M50 0v60h160v580h-160v60h385v-60h-160v-580h160v-60h-385zM200 850q0 19 13 32t32 13t32 -13t13 -32t-13 -32t-32 -13t-32 13t-13 32z" />
    <glyph glyph-name="Idieresis.alt" horiz-adv-x="485" 
d="M50 0v60h160v580h-160v60h385v-60h-160v-580h160v-60h-385zM285 850q0 19 13 32t32 13t32 -13t13 -32t-13 -32t-32 -13t-32 13t-13 32zM115 850q0 19 13 32t32 13t32 -13t13 -32t-13 -32t-32 -13t-32 13t-13 32z" />
    <glyph glyph-name="Icircumflex.alt" horiz-adv-x="485" 
d="M50 0v60h160v580h-160v60h385v-60h-160v-580h160v-60h-385zM100 790v1l110 144h65l110 -144v-1h-60l-75 100h-15l-75 -100h-60z" />
    <glyph glyph-name="Iacute.alt" horiz-adv-x="485" 
d="M50 0v60h160v580h-160v60h385v-60h-160v-580h160v-60h-385zM210 790l90 145h75v-1l-115 -144h-50z" />
    <glyph glyph-name="Igrave.alt" horiz-adv-x="485" 
d="M50 0v60h160v580h-160v60h385v-60h-160v-580h160v-60h-385zM105 934v1h75l90 -145h-50z" />
    <glyph glyph-name="lcommaaccent.alt" horiz-adv-x="220" 
d="M80 0v700h60v-700h-60zM60 -140q0 15 13.5 27.5t31.5 12.5q24 0 39.5 -19t15.5 -56q0 -44 -26 -72.5t-69 -32.5v30q55 7 55 55q0 2 -3 14l-2 6l-4 -3q-8 -2 -11 -2q-40 0 -40 40z" />
    <glyph glyph-name="lcaron.alt" horiz-adv-x="270" 
d="M80 0v700h60v-700h-60zM195 665q0 15 13.5 27.5t31.5 12.5q24 0 39.5 -19t15.5 -56q0 -44 -26 -72.5t-69 -32.5v30q55 7 55 55q0 2 -3 14l-2 6l-4 -3q-8 -2 -11 -2q-40 0 -40 40z" />
    <glyph glyph-name="lacute.alt" horiz-adv-x="220" 
d="M80 0v700h60v-700h-60zM85 790l90 145h75v-1l-115 -144h-50z" />
    <glyph glyph-name="atilde.alt" horiz-adv-x="560" 
d="M60 140q0 66 49.5 108t140.5 42h180v33q0 62 -35.5 97t-99.5 35q-79 0 -124 -53q-21 -24 -31 -52h-60q14 47 40 80q64 80 175 80q89 0 142 -51t53 -136v-323h-60v90h-1q-14 -25 -43 -50q-62 -50 -151 -50q-80 0 -127.5 42.5t-47.5 107.5zM120 140q0 -44 31.5 -69.5
t93.5 -25.5q81 0 133 55t52 135h-180q-66 0 -98 -25.5t-32 -69.5zM135 605v26q0 37 23.5 60.5t61.5 23.5q35 0 75 -32q37 -33 55 -33q15 0 25 10t10 25v25h50v-26q0 -37 -23.5 -60.5t-61.5 -23.5q-37 0 -74 33q-2 1 -11 9t-12 9.5t-10 6t-12 6t-11 1.5q-15 0 -25 -10
t-10 -25v-25h-50z" />
    <glyph glyph-name="aring.alt" horiz-adv-x="560" 
d="M60 140q0 66 49.5 108t140.5 42h180v33q0 62 -35.5 97t-99.5 35q-79 0 -124 -53q-21 -24 -31 -52h-60q14 47 40 80q64 80 175 80q89 0 142 -51t53 -136v-323h-60v90h-1q-14 -25 -43 -50q-62 -50 -151 -50q-80 0 -127.5 42.5t-47.5 107.5zM120 140q0 -44 31.5 -69.5
t93.5 -25.5q81 0 133 55t52 135h-180q-66 0 -98 -25.5t-32 -69.5zM190 685q0 42 29 71t71 29t71 -29t29 -71t-29 -71t-71 -29t-71 29t-29 71zM235 685q0 -23 16 -39t39 -16t39 16t16 39t-16 39t-39 16t-39 -16t-16 -39z" />
    <glyph glyph-name="aogonek.alt" horiz-adv-x="560" 
d="M60 140q0 66 49.5 108t140.5 42h180v33q0 62 -35.5 97t-99.5 35q-79 0 -124 -53q-21 -24 -31 -52h-60q14 47 40 80q64 80 175 80q89 0 142 -51t53 -136v-323q-38 -18 -60 -35q-60 -45 -60 -95q0 -19 13.5 -32t36.5 -13q25 0 48 7l22 8v-45q-6 -4 -20 -10q-26 -10 -50 -10
q-44 0 -72 25.5t-28 64.5q0 55 55 102q26 23 55 38v2v83h-1q-14 -25 -43 -50q-62 -50 -151 -50q-80 0 -127.5 42.5t-47.5 107.5zM120 140q0 -44 31.5 -69.5t93.5 -25.5q81 0 133 55t52 135h-180q-66 0 -98 -25.5t-32 -69.5z" />
    <glyph glyph-name="amacron.alt" horiz-adv-x="560" 
d="M60 140q0 66 49.5 108t140.5 42h180v33q0 62 -35.5 97t-99.5 35q-79 0 -124 -53q-21 -24 -31 -52h-60q14 47 40 80q64 80 175 80q89 0 142 -51t53 -136v-323h-60v90h-1q-14 -25 -43 -50q-62 -50 -151 -50q-80 0 -127.5 42.5t-47.5 107.5zM120 140q0 -44 31.5 -69.5
t93.5 -25.5q81 0 133 55t52 135h-180q-66 0 -98 -25.5t-32 -69.5zM160 625v55h255v-55h-255z" />
    <glyph glyph-name="adieresis.alt" horiz-adv-x="560" 
d="M60 140q0 66 49.5 108t140.5 42h180v33q0 62 -35.5 97t-99.5 35q-79 0 -124 -53q-21 -24 -31 -52h-60q14 47 40 80q64 80 175 80q89 0 142 -51t53 -136v-323h-60v90h-1q-14 -25 -43 -50q-62 -50 -151 -50q-80 0 -127.5 42.5t-47.5 107.5zM120 140q0 -44 31.5 -69.5
t93.5 -25.5q81 0 133 55t52 135h-180q-66 0 -98 -25.5t-32 -69.5zM325 660q0 19 13 32t32 13t32 -13t13 -32t-13 -32t-32 -13t-32 13t-13 32zM155 660q0 19 13 32t32 13t32 -13t13 -32t-13 -32t-32 -13t-32 13t-13 32z" />
    <glyph glyph-name="acircumflex.alt" horiz-adv-x="560" 
d="M60 140q0 66 49.5 108t140.5 42h180v33q0 62 -35.5 97t-99.5 35q-79 0 -124 -53q-21 -24 -31 -52h-60q14 47 40 80q64 80 175 80q89 0 142 -51t53 -136v-323h-60v90h-1q-14 -25 -43 -50q-62 -50 -151 -50q-80 0 -127.5 42.5t-47.5 107.5zM120 140q0 -44 31.5 -69.5
t93.5 -25.5q81 0 133 55t52 135h-180q-66 0 -98 -25.5t-32 -69.5zM145 600v1l110 144h65l110 -144v-1h-60l-75 100h-15l-75 -100h-60z" />
    <glyph glyph-name="abreve.alt" horiz-adv-x="560" 
d="M60 140q0 66 49.5 108t140.5 42h180v33q0 62 -35.5 97t-99.5 35q-79 0 -124 -53q-21 -24 -31 -52h-60q14 47 40 80q64 80 175 80q89 0 142 -51t53 -136v-323h-60v90h-1q-14 -25 -43 -50q-62 -50 -151 -50q-80 0 -127.5 42.5t-47.5 107.5zM120 140q0 -44 31.5 -69.5
t93.5 -25.5q81 0 133 55t52 135h-180q-66 0 -98 -25.5t-32 -69.5zM150 725h55q0 -31 21.5 -50.5t58.5 -19.5t58.5 19.5t21.5 50.5h55q0 -50 -38 -85t-97 -35t-97 35t-38 85z" />
    <glyph glyph-name="aacute.alt" horiz-adv-x="560" 
d="M60 140q0 66 49.5 108t140.5 42h180v33q0 62 -35.5 97t-99.5 35q-79 0 -124 -53q-21 -24 -31 -52h-60q14 47 40 80q64 80 175 80q89 0 142 -51t53 -136v-323h-60v90h-1q-14 -25 -43 -50q-62 -50 -151 -50q-80 0 -127.5 42.5t-47.5 107.5zM120 140q0 -44 31.5 -69.5
t93.5 -25.5q81 0 133 55t52 135h-180q-66 0 -98 -25.5t-32 -69.5zM260 600l90 145h75v-1l-115 -144h-50z" />
    <glyph glyph-name="agrave.alt" horiz-adv-x="560" 
d="M60 140q0 66 49.5 108t140.5 42h180v33q0 62 -35.5 97t-99.5 35q-79 0 -124 -53q-21 -24 -31 -52h-60q14 47 40 80q64 80 175 80q89 0 142 -51t53 -136v-323h-60v90h-1q-14 -25 -43 -50q-62 -50 -151 -50q-80 0 -127.5 42.5t-47.5 107.5zM120 140q0 -44 31.5 -69.5
t93.5 -25.5q81 0 133 55t52 135h-180q-66 0 -98 -25.5t-32 -69.5zM160 744v1h75l90 -145h-50z" />
    <glyph glyph-name="afii10110.alt" horiz-adv-x="505" 
d="M25 500h65l115 -445h95l130 445h65l-165 -550q-21 -71 -61 -105.5t-109 -34.5h-80v55h80q48 0 71.5 19.5t38.5 65.5l15 50h-125zM133 684h55q0 -31 22 -50.5t63 -19.5t63 19.5t22 50.5h55q0 -50 -39 -85t-101 -35t-101 35t-39 85z" />
    <glyph glyph-name="lslash.alt" horiz-adv-x="250" 
d="M5 245v60l85 40v355h60v-325l95 45v-60l-95 -45v-315h-60v285z" />
    <glyph glyph-name="ydieresis.alt" horiz-adv-x="505" 
d="M25 500h65l115 -445h95l130 445h65l-165 -550q-21 -71 -61 -105.5t-109 -34.5h-80v55h80q48 0 71.5 19.5t38.5 65.5l15 50h-125zM300 660q0 19 13 32t32 13t32 -13t13 -32t-13 -32t-32 -13t-32 13t-13 32zM130 660q0 19 13 32t32 13t32 -13t13 -32t-13 -32t-32 -13
t-32 13t-13 32z" />
    <glyph glyph-name="Germandbls" horiz-adv-x="700" 
d="M85 0v460q0 114 66.5 177t198.5 63h257v-61l-187 -204v-5q112 -8 173.5 -66t61.5 -149q0 -93 -70.5 -154t-194.5 -61h-70v60h70q94 0 147 44.5t53 110.5t-53 110.5t-147 44.5h-50v65l180 200h-170q-108 0 -154 -42.5t-46 -136.5v-456h-65z" />
    <glyph glyph-name="l.alt" horiz-adv-x="220" 
d="M80 0v700h60v-700h-60z" />
    <glyph glyph-name="g.alt" horiz-adv-x="550" 
d="M20 -60q0 57 57 94q26 17 58 26v115q-24 14 -43 36q-42 48 -42 114q0 77 60 131t155 54q32 0 54 -5q14 -4 21 -5h210v-55h-120l-8 1v-1q14 -10 29 -30q29 -39 29 -90q0 -77 -60 -131t-155 -54q-29 0 -54 5q-7 1 -21 5v-75l21 2q39 3 54 3q118 0 181.5 -42.5t63.5 -97.5
t-63.5 -97.5t-181.5 -42.5t-181.5 42.5t-63.5 97.5zM110 325q0 -54 43 -92t112 -38t112 38t43 92t-43 92t-112 38t-112 -38t-43 -92zM80 -60q0 -32 46.5 -58.5t138.5 -26.5t138.5 26.5t46.5 58.5q0 31 -47 58t-138 27q-92 0 -138.5 -26.5t-46.5 -58.5z" />
    <glyph glyph-name="a.alt" horiz-adv-x="560" 
d="M60 140q0 66 49.5 108t140.5 42h180v33q0 62 -35.5 97t-99.5 35q-79 0 -124 -53q-21 -24 -31 -52h-60q14 47 40 80q64 80 175 80q89 0 142 -51t53 -136v-323h-60v90h-1q-14 -25 -43 -50q-62 -50 -151 -50q-80 0 -127.5 42.5t-47.5 107.5zM120 140q0 -44 31.5 -69.5
t93.5 -25.5q81 0 133 55t52 135h-180q-66 0 -98 -25.5t-32 -69.5z" />
    <glyph glyph-name="afii10085.alt" horiz-adv-x="505" 
d="M25 500h65l115 -445h95l130 445h65l-165 -550q-21 -71 -61 -105.5t-109 -34.5h-80v55h80q48 0 71.5 19.5t38.5 65.5l15 50h-125z" />
    <glyph glyph-name="y.alt" horiz-adv-x="505" 
d="M25 500h65l115 -445h95l130 445h65l-165 -550q-21 -71 -61 -105.5t-109 -34.5h-80v55h80q48 0 71.5 19.5t38.5 65.5l15 50h-125z" />
    <glyph glyph-name="I.alt" horiz-adv-x="485" 
d="M50 0v60h160v580h-160v60h385v-60h-160v-580h160v-60h-385z" />
    <glyph glyph-name="afii10065.alt" horiz-adv-x="560" 
d="M60 140q0 66 49.5 108t140.5 42h180v33q0 62 -35.5 97t-99.5 35q-79 0 -124 -53q-21 -24 -31 -52h-60q14 47 40 80q64 80 175 80q89 0 142 -51t53 -136v-323h-60v90h-1q-14 -25 -43 -50q-62 -50 -151 -50q-80 0 -127.5 42.5t-47.5 107.5zM120 140q0 -44 31.5 -69.5
t93.5 -25.5q81 0 133 55t52 135h-180q-66 0 -98 -25.5t-32 -69.5z" />
    <glyph glyph-name="nine.taboldstyle" horiz-adv-x="560" 
d="M35 275q0 98 70.5 166.5t174.5 68.5t174.5 -68.5t70.5 -166.5q0 -67 -23.5 -115.5t-81.5 -124.5l-175 -225h-70l175 220l25 30v5q-10 -9 -26 -15q-32 -15 -74 -15q-101 0 -170.5 69.5t-69.5 170.5zM95 275q0 -79 53 -132t132 -53t132 52.5t53 132.5q0 75 -53.5 127.5
t-131.5 52.5t-131.5 -52.5t-53.5 -127.5z" />
    <glyph glyph-name="eight.taboldstyle" horiz-adv-x="560" 
d="M25 190q0 90 72 144q31 24 73 36v5q-32 11 -58 32q-57 47 -57 123q0 74 62 127t163 53t163 -53t62 -127q0 -75 -58 -123q-27 -22 -57 -32v-5q40 -12 72 -36q73 -55 73 -144q0 -82 -69.5 -141t-185.5 -59t-185.5 59t-69.5 141zM115 530q0 -53 44 -91.5t121 -38.5t121 38.5
t44 91.5q0 51 -44.5 88t-120.5 37t-120.5 -37t-44.5 -88zM85 190q0 -60 52.5 -102.5t142.5 -42.5t142.5 42.5t52.5 102.5q0 63 -54 109t-141 46t-141 -46t-54 -109z" />
    <glyph glyph-name="seven.taboldstyle" horiz-adv-x="560" 
d="M50 310v190h470v-55l-290 -635h-65l290 634v1h-345v-135h-60z" />
    <glyph glyph-name="six.taboldstyle" horiz-adv-x="560" 
d="M35 225q0 67 23.5 115.5t81.5 124.5l180 235h70l-180 -230l-25 -30v-5q9 7 26 15q36 15 74 15q101 0 170.5 -69.5t69.5 -170.5q0 -98 -70.5 -166.5t-174.5 -68.5t-174.5 68.5t-70.5 166.5zM95 225q0 -75 53.5 -127.5t131.5 -52.5t131.5 52.5t53.5 127.5q0 79 -53 132
t-132 53t-132 -52.5t-53 -132.5z" />
    <glyph glyph-name="five.taboldstyle" horiz-adv-x="560" 
d="M60 -5h65q11 -39 31 -70q48 -70 139 -70q75 0 122.5 47.5t47.5 122.5t-49 125t-121 50q-67 0 -116 -43q-20 -17 -34 -42h-60l25 385h370v-55h-315l-16 -250h1q14 17 36 30q50 30 119 30q91 0 155.5 -66.5t64.5 -163.5q0 -98 -64.5 -161.5t-165.5 -63.5q-129 0 -194 97
q-30 45 -41 98z" />
    <glyph glyph-name="four.taboldstyle" horiz-adv-x="560" 
d="M40 0v55l250 445h70l-250 -445h260v200h60v-200h105v-55h-105v-190h-60v190h-330z" />
    <glyph glyph-name="three.taboldstyle" horiz-adv-x="560" 
d="M35 -10h65q11 -38 33 -68q52 -67 142 -67q77 0 121 40t44 105q0 62 -44.5 101t-125.5 39h-85v55h85q71 0 110.5 36t39.5 94q0 54 -40 92t-105 38q-80 0 -127 -53q-20 -22 -33 -52h-60q14 46 42 80q64 80 178 80q91 0 148 -55t57 -130t-53 -120q-22 -19 -52 -30v-5
q33 -10 62 -34q63 -55 63 -136q0 -88 -61 -144t-164 -56q-126 0 -195 95q-31 40 -45 95z" />
    <glyph glyph-name="two.taboldstyle" horiz-adv-x="560" 
d="M99 430q62 80 176 80q95 0 150 -48t55 -122q0 -65 -39 -111.5t-116 -88.5l-145 -80l-10 -5v-1l10 1h315v-55h-430v55l205 115q78 44 114 83.5t36 86.5q0 51 -37.5 83t-107.5 32q-77 0 -122 -53q-18 -21 -28 -52h-65q12 46 39 80z" />
    <glyph glyph-name="one.taboldstyle" horiz-adv-x="560" 
d="M90 0v55h180v370l-130 -100v70l135 105h55v-445h170v-55h-410z" />
    <glyph glyph-name="zero.taboldstyle" horiz-adv-x="560" 
d="M25 250q0 112 73 186t182 74t182 -74t73 -186t-73 -186t-182 -74t-182 74t-73 186zM85 250q0 -89 56 -147t139 -58t139 58t56 147t-56 147t-139 58t-139 -58t-56 -147z" />
    <glyph glyph-name="at.case" horiz-adv-x="815" 
d="M50 360q0 158 108.5 266.5t266.5 108.5q152 0 251 -91.5t99 -208.5q0 -107 -67.5 -168.5t-196.5 -61.5h-1v50h-1q-2 -2 -6 -10q-31 -50 -103 -50q-60 0 -105 47.5t-45 117.5t44.5 117.5t105.5 47.5q79 0 109 -60h1v50h60v-255q66 0 105.5 45t39.5 130q0 99 -80 172
t-210 73q-136 0 -228 -91t-92 -229q0 -141 90.5 -230.5t229.5 -89.5q74 0 137 25q25 9 53 25v-55q-28 -16 -53 -25q-63 -25 -137 -25q-161 0 -268 107t-107 268zM310 360q0 -48 28.5 -79t71.5 -31t71.5 31t28.5 79t-28.5 79t-71.5 31t-71.5 -31t-28.5 -79z" />
    <glyph glyph-name="parenleft.case" horiz-adv-x="365" 
d="M80 350q0 194 117 347q52 69 118 118l35 -45q-56 -44 -103 -109q-102 -144 -102 -311q0 -164 102 -311q47 -65 103 -109l-35 -45q-66 49 -118 118q-117 153 -117 347z" />
    <glyph glyph-name="parenright.case" horiz-adv-x="365" 
d="M117 36q103 148 103 311q0 166 -103 311q-47 64 -102 109l35 45q65 -50 117 -118q118 -156 118 -347t-118 -347q-52 -68 -117 -118l-35 45q55 45 102 109z" />
    <glyph glyph-name="bracketleft.case" horiz-adv-x="325" 
d="M90 -85v870h210v-60h-145v-750h145v-60h-210z" />
    <glyph glyph-name="bracketright.case" horiz-adv-x="325" 
d="M25 -85v60h145v750h-145v60h210v-870h-210z" />
    <glyph glyph-name="braceleft.case" horiz-adv-x="340" 
d="M45 325v55h30q55 0 55 55v230q0 53 35.5 86.5t94.5 33.5h60v-60h-60q-30 0 -47.5 -16.5t-17.5 -43.5v-230q0 -44 -30 -66q-12 -9 -30 -14v-5q18 -5 30 -14q30 -22 30 -66v-235q0 -27 17.5 -43.5t47.5 -16.5h60v-60h-60q-59 0 -94.5 33.5t-35.5 86.5v235q0 55 -55 55h-30z
" />
    <glyph glyph-name="braceright.case" horiz-adv-x="340" 
d="M20 -85v60h60q30 0 47.5 16.5t17.5 43.5v235q0 44 30 66q12 9 30 14v5q-18 5 -30 14q-30 22 -30 66v230q0 27 -17.5 43.5t-47.5 16.5h-60v60h60q59 0 94.5 -33.5t35.5 -86.5v-230q0 -55 55 -55h30v-55h-30q-55 0 -55 -55v-235q0 -53 -35.5 -86.5t-94.5 -33.5h-60z" />
    <glyph glyph-name="nine.tab" 
d="M40 475q0 102 74.5 173.5t185.5 71.5t185.5 -71.5t74.5 -173.5q0 -17 -1.5 -32t-6.5 -31t-7 -26.5t-12.5 -27.5t-13.5 -23.5t-17.5 -26t-17.5 -23.5t-22 -27.5t-22 -27.5l-180 -230h-75l185 234l4 5l1 1q-9 -4 -20 -5q-25 -5 -65 -5q-105 0 -177.5 71.5t-72.5 173.5z
M105 475q0 -79 55 -132t140 -53t140 53t55 132t-55 132t-140 53t-140 -53t-55 -132z" />
    <glyph glyph-name="afii10069.alt" horiz-adv-x="570" 
d="M5 -120v175h55q16 8 27 25q28 37 28 115v305h360v-445h75v-175h-60v120h-425v-120h-60zM130 55h285v390h-240v-250q0 -61 -23 -109q-11 -20 -22 -30v-1z" />
    <glyph glyph-name="nine.dnom" horiz-adv-x="330" 
d="M25 230q0 50 39 85t101 35t101 -35t39 -85q0 -58 -50 -120l-90 -110h-70l75 91l30 24v5q-8 -4 -12 -5q-13 -5 -23 -5q-62 0 -101 35t-39 85zM85 230q0 -27 21.5 -46t58.5 -19t58.5 19t21.5 46t-21.5 46t-58.5 19t-58.5 -19t-21.5 -46z" />
    <glyph glyph-name="eight.dnom" horiz-adv-x="370" 
d="M35 90q0 43 35 67q14 10 35 18v5q-15 5 -28 17q-27 22 -27 58q0 40 35.5 67.5t99.5 27.5t99.5 -27.5t35.5 -67.5q0 -36 -28 -58q-13 -11 -27 -17v-5q17 -7 35 -18q35 -27 35 -67q0 -41 -39.5 -70.5t-110.5 -29.5t-110.5 29.5t-39.5 70.5zM115 251q0 -46 70 -46t70 46
q0 44 -70 44t-70 -44zM95 95q0 -21 22.5 -35.5t67.5 -14.5t67.5 14.5t22.5 35.5t-22.5 35.5t-67.5 14.5t-67.5 -14.5t-22.5 -35.5z" />
    <glyph glyph-name="seven.dnom" horiz-adv-x="285" 
d="M20 285v55h255v-55l-150 -285h-65l150 284v1h-190z" />
    <glyph glyph-name="six.dnom" horiz-adv-x="330" 
d="M25 110q0 58 50 120l90 110h70l-75 -91l-30 -24v-5q4 1 12 5q12 5 23 5q62 0 101 -35t39 -85t-39 -85t-101 -35t-101 35t-39 85zM85 110q0 -27 21.5 -46t58.5 -19t58.5 19t21.5 46t-21.5 46t-58.5 19t-58.5 -19t-21.5 -46z" />
    <glyph glyph-name="five.dnom" horiz-adv-x="345" 
d="M40 95h65q5 -15 15 -25q21 -25 60 -25q80 0 80 65q0 25 -21.5 42.5t-58.5 17.5q-26 0 -52 -15q-10 -7 -18 -15l-55 10l10 190h225v-55h-170l-6 -85h1q7 7 19 12q22 13 56 13q59 0 94.5 -32.5t35.5 -82.5q0 -54 -36 -87t-100 -33q-80 0 -119 52q-17 21 -25 53z" />
    <glyph glyph-name="four.dnom" horiz-adv-x="320" 
d="M20 75v55l135 210h65l-135 -210h110v70h60v-70h50v-55h-50v-75h-60v75h-175z" />
    <glyph glyph-name="three.dnom" horiz-adv-x="345" 
d="M30 95h65q5 -13 16 -25q23 -25 64 -25q37 0 56 16.5t19 43.5q0 25 -20 40t-59 15h-71v50l105 75v1l-10 -1h-145v55h240v-55l-95 -68l-10 -6v-1h5q51 0 85.5 -32.5t34.5 -77.5q0 -47 -36.5 -78.5t-98.5 -31.5q-79 0 -119 52q-19 23 -26 53z" />
    <glyph glyph-name="two.dnom" horiz-adv-x="350" 
d="M35 0v55l85 50q71 42 100.5 71t29.5 59q0 27 -19 43.5t-56 16.5q-40 0 -64 -30q-12 -15 -16 -30h-60q8 33 25 57q40 58 115 58q62 0 98.5 -32.5t36.5 -82.5q0 -97 -170 -175l-5 -3l-5 -2v-1l10 1h175v-55h-280z" />
    <glyph glyph-name="one.dnom" horiz-adv-x="340" 
d="M55 0v55h100v220l-90 -55v65l95 55h55v-285h95v-55h-255z" />
    <glyph glyph-name="zero.dnom" horiz-adv-x="370" 
d="M30 170q0 80 45 130t110 50t110 -50t45 -130t-45 -130t-110 -50t-110 50t-45 130zM90 170q0 -59 26 -92t69 -33t69 33t26 92t-26 92t-69 33t-69 -33t-26 -92z" />
    <glyph glyph-name="nine.numr" horiz-adv-x="330" 
d="M25 590q0 50 39 85t101 35t101 -35t39 -85q0 -58 -50 -120l-90 -110h-70l75 91l30 24v5q-8 -4 -12 -5q-13 -5 -23 -5q-62 0 -101 35t-39 85zM85 590q0 -27 21.5 -46t58.5 -19t58.5 19t21.5 46t-21.5 46t-58.5 19t-58.5 -19t-21.5 -46z" />
    <glyph glyph-name="eight.numr" horiz-adv-x="370" 
d="M35 450q0 43 35 67q14 10 35 18v5q-15 5 -28 17q-27 22 -27 58q0 40 35.5 67.5t99.5 27.5t99.5 -27.5t35.5 -67.5q0 -36 -28 -58q-13 -11 -27 -17v-5q17 -7 35 -18q35 -27 35 -67q0 -41 -39.5 -70.5t-110.5 -29.5t-110.5 29.5t-39.5 70.5zM115 611q0 -46 70 -46t70 46
q0 44 -70 44t-70 -44zM95 455q0 -21 22.5 -35.5t67.5 -14.5t67.5 14.5t22.5 35.5t-22.5 35.5t-67.5 14.5t-67.5 -14.5t-22.5 -35.5z" />
    <glyph glyph-name="seven.numr" horiz-adv-x="285" 
d="M20 645v55h255v-55l-150 -285h-65l150 284v1h-190z" />
    <glyph glyph-name="six.numr" horiz-adv-x="330" 
d="M25 470q0 58 50 120l90 110h70l-75 -91l-30 -24v-5q4 1 12 5q12 5 23 5q62 0 101 -35t39 -85t-39 -85t-101 -35t-101 35t-39 85zM85 470q0 -27 21.5 -46t58.5 -19t58.5 19t21.5 46t-21.5 46t-58.5 19t-58.5 -19t-21.5 -46z" />
    <glyph glyph-name="five.numr" horiz-adv-x="345" 
d="M40 455h65q5 -15 15 -25q21 -25 60 -25q80 0 80 65q0 25 -21.5 42.5t-58.5 17.5q-26 0 -52 -15q-10 -7 -18 -15l-55 10l10 190h225v-55h-170l-6 -85h1q7 7 19 12q22 13 56 13q59 0 94.5 -32.5t35.5 -82.5q0 -54 -36 -87t-100 -33q-80 0 -119 52q-17 21 -25 53z" />
    <glyph glyph-name="four.numr" horiz-adv-x="320" 
d="M20 435v55l135 210h65l-135 -210h110v70h60v-70h50v-55h-50v-75h-60v75h-175z" />
    <glyph glyph-name="three.numr" horiz-adv-x="345" 
d="M30 455h65q5 -13 16 -25q23 -25 64 -25q37 0 56 16.5t19 43.5q0 25 -20 40t-59 15h-71v50l105 75v1l-10 -1h-145v55h240v-55l-95 -68l-10 -6v-1h5q51 0 85.5 -32.5t34.5 -77.5q0 -47 -36.5 -78.5t-98.5 -31.5q-79 0 -119 52q-19 23 -26 53z" />
    <glyph glyph-name="two.numr" horiz-adv-x="350" 
d="M35 360v55l85 50q71 42 100.5 71t29.5 59q0 27 -19 43.5t-56 16.5q-40 0 -64 -30q-12 -15 -16 -30h-60q8 33 25 57q40 58 115 58q62 0 98.5 -32.5t36.5 -82.5q0 -97 -170 -175l-5 -3l-5 -2v-1l10 1h175v-55h-280z" />
    <glyph glyph-name="one.numr" horiz-adv-x="340" 
d="M55 360v55h100v220l-90 -55v65l95 55h55v-285h95v-55h-255z" />
    <glyph glyph-name="zero.numr" horiz-adv-x="370" 
d="M30 530q0 80 45 130t110 50t110 -50t45 -130t-45 -130t-110 -50t-110 50t-45 130zM90 530q0 -59 26 -92t69 -33t69 33t26 92t-26 92t-69 33t-69 -33t-26 -92z" />
    <glyph glyph-name="eight.tab" 
d="M30 190q0 41 15.5 75.5t34 52.5t45 33t35.5 18t19 6v1q-3 0 -14 4.5t-29.5 16t-35 28.5t-28.5 46t-12 64q0 75 66.5 130t173.5 55t173.5 -55t66.5 -130q0 -80 -60 -126q-26 -21 -60 -33v-1q42 -12 75 -36q75 -57 75 -149q0 -86 -74 -148t-196 -62t-196 62t-74 148z
M125 535q0 -53 46.5 -94t128.5 -41t128.5 41t46.5 94q0 52 -46 88.5t-129 36.5t-129 -36.5t-46 -88.5zM95 190q0 -64 54 -107t151 -43t151 43t54 107t-54 107t-151 43t-151 -43t-54 -107z" />
    <glyph glyph-name="seven.tab" 
d="M50 505v195h505v-60l-295 -640h-70l295 639v1h-370v-135h-65z" />
    <glyph glyph-name="six.tab" 
d="M40 225q0 17 1.5 32t6.5 31t7 26.5t12.5 27.5t13.5 23.5t17.5 26t17.5 23.5t22 27.5t22 27.5l180 230h75l-185 -234l-4 -5l-1 -1l20 5q25 5 65 5q105 0 177.5 -71.5t72.5 -173.5t-74.5 -173.5t-185.5 -71.5t-185.5 71.5t-74.5 173.5zM105 225q0 -79 55 -132t140 -53
t140 53t55 132t-55 132t-140 53t-140 -53t-55 -132z" />
    <glyph glyph-name="five.tab" 
d="M50 180h65q10 -36 37 -70q58 -70 158 -70q81 0 133 51t52 129t-52 129t-133 51q-75 0 -130 -43q-25 -17 -40 -42h-60l30 385h405v-60h-350l-20 -239v-1q18 18 41 30q54 30 124 30q108 0 179 -69t71 -171t-71 -171t-179 -69q-140 0 -213 100q-33 44 -47 100z" />
    <glyph glyph-name="four.tab" 
d="M40 160v60l250 480h70l-250 -480h305v190h5h60v-190h105v-60h-105v-160h-65v160h-375z" />
    <glyph glyph-name="three.tab" 
d="M35 180h65q10 -38 36 -70q58 -70 164 -70q85 0 135 45.5t50 114.5t-50 114.5t-135 45.5h-125v60l250 219v1h-355v60h445v-60l-240 -210l-10 -8v-2h35q110 0 180 -64t70 -156t-70 -156t-180 -64q-145 0 -219 100q-32 42 -46 100z" />
    <glyph glyph-name="two.tab" 
d="M50 0v60l215 165q120 92 165 148t45 127q0 69 -48.5 114.5t-126.5 45.5q-94 0 -141 -78q-22 -36 -29 -77h-70q7 57 37 107q65 108 203 108q103 0 171.5 -64.5t68.5 -155.5q0 -83 -55.5 -155.5t-164.5 -154.5l-160 -121l-10 -7v-3l10 1h380v-60h-490z" />
    <glyph glyph-name="one.tab" 
d="M80 0v60h205v565l-130 -100v70l135 105h60v-640h195v-60h-465z" />
    <glyph glyph-name="zero.tab" 
d="M20 255v190q0 124 76.5 199.5t203.5 75.5t203.5 -75.5t76.5 -199.5v-190q0 -124 -76.5 -199.5t-203.5 -75.5t-203.5 75.5t-76.5 199.5zM85 445v-190q0 -97 58.5 -156t156.5 -59t156.5 59t58.5 156v190q0 97 -58.5 156t-156.5 59t-156.5 -59t-58.5 -156z" />
    <glyph glyph-name="afii10021.alt" horiz-adv-x="730" 
d="M0 -140v200h70q21 13 40 46q40 72 40 199v395h465v-640h95v-200h-65v140h-580v-140h-65zM150 60h400v580h-335v-335q0 -125 -33 -199q-14 -32 -32 -46z" />
    <glyph glyph-name="f.alt" horiz-adv-x="300" 
d="M25 445v55h70v50q0 150 145 150h80v-55h-80q-85 0 -85 -95v-50h135v-55h-135v-445h-60v445h-70z" />
    <glyph glyph-name="t.alt" horiz-adv-x="355" 
d="M25 445v55h70v110h60v-110h165v-55h-165v-300q0 -90 85 -90h85v-55h-85q-145 0 -145 145v300h-70z" />
    <glyph glyph-name="j.alt" horiz-adv-x="220" 
d="M65 650q0 19 13 32t31 13q20 0 33 -13t13 -32t-13 -32t-32 -13t-32 13t-13 32zM-65 -190v55h65q80 0 80 95v540h60v-540q0 -150 -140 -150h-65z" />
    <glyph glyph-name="afii10055.alt" horiz-adv-x="485" 
d="M50 0v60h160v580h-160v60h385v-60h-160v-580h160v-60h-385z" />
    <glyph glyph-name="afii10056.alt" horiz-adv-x="485" 
d="M50 0v60h160v580h-160v60h385v-60h-160v-580h160v-60h-385zM285 830q0 19 13 32t32 13t32 -13t13 -32t-13 -32t-32 -13t-32 13t-13 32zM115 830q0 19 13 32t32 13t32 -13t13 -32t-13 -32t-32 -13t-32 13t-13 32z" />
    <glyph glyph-name="afii10061.alt" horiz-adv-x="680" 
d="M155 0h-65v700h65v-315h230q95 0 95 95v95q0 57 37.5 93.5t97.5 36.5h30v-60h-30q-30 0 -50 -20t-20 -50v-95q0 -29 -6.5 -52.5t-16 -36.5t-20 -21.5t-17.5 -11t-10 -2.5v-1q3 0 10 -2.5t19.5 -11t23.5 -21t19 -36.5t8 -54v-105q0 -30 20 -50t50 -20h30v-60h-30
q-60 0 -97.5 36.5t-37.5 93.5v105q0 95 -95 95h-240v-325zM298 769l90 145h75v-1l-115 -144h-50z" />
    <glyph glyph-name="afii10051.alt" horiz-adv-x="775" 
d="M10 640v60h520v-60h-240v-220h190q111 0 178 -64t67 -166v-65q0 -107 -65 -168.5t-180 -61.5h-1v60h1q180 0 180 170v65q0 80 -47 125t-133 45h-190v-360h-65v640h-215z" />
    <glyph glyph-name="afii10058.alt" horiz-adv-x="1110" 
d="M-10 0v60q7 -4 14 -5q17 -5 36 -5q62 0 91 51t29 189v410h455v-250h210q114 0 182 -63t68 -162t-68 -162t-182 -63h-275v640h-325v-350q0 -164 -45 -232t-130 -68q-23 0 -43 5q-7 1 -17 5zM615 60h210q89 0 137 44.5t48 120.5t-48 120.5t-137 44.5h-210v-330z" />
    <glyph glyph-name="afii10099.alt" horiz-adv-x="575" 
d="M15 530v55h70v115h60v-115h130v-55h-130v-195h1q18 37 63.5 66t115.5 29q84 0 137 -58t53 -157v-255q0 -72 -38 -111t-107 -39h-55v55h55q85 0 85 95v255q0 77 -37.5 118.5t-102.5 41.5q-72 0 -121 -51t-49 -129v-195h-60v530h-70z" />
    <glyph glyph-name="afii10105.alt" horiz-adv-x="220" 
d="M65 650q0 19 13 32t31 13q20 0 33 -13t13 -32t-13 -32t-32 -13t-32 13t-13 32zM-65 -190v55h65q80 0 80 95v540h60v-540q0 -150 -140 -150h-65z" />
    <glyph glyph-name="afii10106.alt" horiz-adv-x="835" 
d="M0 4v54l11 -4q9 -4 29 -4q43 0 64 30t21 105v315h355v-180h145q81 0 130.5 -45.5t49.5 -114.5t-49.5 -114.5t-130.5 -45.5h-205v445h-235v-260q0 -101 -34 -145.5t-101 -44.5q-24 0 -36 4q-7 1 -14 5zM480 55h145q56 0 88 29.5t32 75.5t-32 75.5t-88 29.5h-145v-210z" />
    <glyph glyph-name="afii10109.alt" horiz-adv-x="530" 
d="M140 0h-60v500h60v-220h160q65 0 65 65v60q0 46 29 73t81 27h20v-55h-20q-23 0 -36.5 -14.5t-13.5 -40.5v-60q0 -30 -12.5 -49.5t-22.5 -24.5t-15 -5v-1q5 0 17.5 -6.5t27.5 -27.5t15 -51v-65q0 -26 13.5 -40.5t36.5 -14.5h20v-55h-20q-52 0 -81 27t-29 73v65
q0 65 -65 65h-170v-225zM235 570l90 145h75v-1l-115 -144h-50z" />
    <glyph glyph-name="ff.alt" horiz-adv-x="605" 
d="M25 445v55h70v50q0 150 145 150h80v-55h-80q-85 0 -85 -95v-50h245v50q0 150 145 150h80v-55h-80q-85 0 -85 -95v-50h135v-55h-135v-445h-60v445h-245v-445h-60v445h-70z" />
    <glyph glyph-name="fi.alt" horiz-adv-x="540" 
d="M25 445v55h70v50q0 150 145 150h190v-55h-190q-85 0 -85 -95v-50h305v-500h-60v445h-245v-445h-60v445h-70z" />
    <glyph glyph-name="f_j.alt" horiz-adv-x="540" 
d="M25 445v55h70v51q0 149 142 149h193v-55h-189q-86 0 -86 -94v-51h305v-540q0 -150 -140 -150h-65v55h65q80 0 80 95v485h-245v-445h-60v445h-70z" />
    <glyph glyph-name="fl.alt" horiz-adv-x="540" 
d="M25 445v55h70v50q0 69 50 114.5t135 45.5q81 0 130.5 -45.5t49.5 -114.5v-550h-60v550q0 46 -32 75.5t-88 29.5q-58 0 -91.5 -29.5t-33.5 -75.5v-50h135v-55h-135v-445h-60v445h-70z" />
    <glyph glyph-name="f_t.alt" horiz-adv-x="660" 
d="M25 445v55h70v50q0 69 50 114.5t135 45.5q81 0 130.5 -45.5t49.5 -114.5v-50h165v-55h-165v-300q0 -90 85 -90h85v-55h-85q-145 0 -145 145v300h-245v-445h-60v445h-70zM155 500h245v50q0 46 -32 75.5t-88 29.5q-58 0 -91.5 -29.5t-33.5 -75.5v-50z" />
    <glyph glyph-name="afii10072.alt" horiz-adv-x="760" 
d="M25 -5v55h20q23 0 36.5 14.5t13.5 40.5v65q0 28 13 48t24.5 26.5t20.5 9.5v1q-48 16 -48 80v60q0 26 -13.5 40.5t-36.5 14.5h-20v55h20q52 0 81 -27t29 -73v-60q0 -65 65 -65h120v220h60v-220h120q65 0 65 65v60q0 46 29 73t81 27h20v-55h-20q-23 0 -36.5 -14.5
t-13.5 -40.5v-60q0 -30 -12 -49.5t-22.5 -25t-15.5 -5.5v-1h1q1 -1 2.5 -1.5t4 -1.5t4.5 -2q18 -7 33 -26.5t15 -52.5v-65q0 -26 13.5 -40.5t36.5 -14.5h20v-55h-20q-52 0 -81 27t-29 73v65q0 65 -65 65h-130v-225h-60v225h-130q-65 0 -65 -65v-65q0 -46 -29 -73t-81 -27
h-20z" />
    <glyph glyph-name="A_A" horiz-adv-x="1220" 
d="M25 0l185 700h250l146 -550l3 -15h2l3 15l146 550h250l185 -700h-65l-60 230h-370l-60 -230h-60l-60 230h-370l-60 -230h-65zM715 290h340l-95 350h-150zM165 290h340l-95 350h-150z" />
    <glyph glyph-name="A_R" horiz-adv-x="1045" 
d="M25 0l185 700h535q114 0 179.5 -59.5t65.5 -155.5q0 -82 -48.5 -139t-136.5 -71l180 -275h-75l-175 270h-215v-270h-65v270h-295l-70 -270h-65zM520 330h225q89 0 134.5 40.5t45.5 114.5t-45.5 114.5t-134.5 40.5h-225v-310zM175 330h280v310h-200z" />
    <glyph glyph-name="A_T" horiz-adv-x="735" 
d="M35 0l169 640h-119v60h565v-60h-119l169 -640h-65l-60 230h-175v-230h-65v230h-175l-60 -230h-65zM400 290h160l-95 350h-65v-350zM175 290h160v350h-65z" />
    <glyph glyph-name="A_V" horiz-adv-x="1040" 
d="M25 0l185 700h250l170 -640h145l165 640h70l-185 -700h-245l-60 230h-370l-60 -230h-65zM165 290h340l-95 350h-150z" />
    <glyph glyph-name="C_E" horiz-adv-x="800" 
d="M50 350q0 160 103 265t257 105q168 0 273 -125q45 -55 67 -125h-65q-20 53 -57 95q-85 95 -218 95q-129 0 -212 -86t-83 -224t83 -224t212 -86q136 0 222 102q37 44 58 103h65q-22 -74 -69 -133q-104 -132 -276 -132q-154 0 -257 105t-103 265zM285 180v340h255v-60h-190
v-75h140v-60h-140v-85h190v-60h-255z" />
    <glyph glyph-name="C_O" horiz-adv-x="800" 
d="M50 350q0 160 103 265t257 105q168 0 273 -125q45 -55 67 -125h-65q-20 53 -57 95q-85 95 -218 95q-129 0 -212 -86t-83 -224t83 -224t212 -86q136 0 222 102q37 44 58 103h65q-22 -74 -69 -133q-104 -132 -276 -132q-154 0 -257 105t-103 265zM245 350q0 72 49 121
t121 49t121 -49t49 -121t-49 -121t-121 -49t-121 49t-49 121zM310 350q0 -48 30 -79t75 -31t75 31t30 79t-30 79t-75 31t-75 -31t-30 -79z" />
    <glyph glyph-name="D_E" horiz-adv-x="1065" 
d="M90 0v700h930v-60h-500v-1q38 -25 69 -61q71 -85 81 -193h275v-60h-275q-3 -51 -19 -96.5t-36.5 -74t-42 -51t-35 -32t-17.5 -10.5v-1h500v-60h-930zM155 60h155q131 0 213 81t82 209t-82 209t-213 81h-155v-580z" />
    <glyph glyph-name="E_A" horiz-adv-x="1135" 
d="M90 0v700h425v-60h-360v-255h435l85 315h250l185 -700h-65l-87 325h-318l-85 -325h-465zM655 385h287l-67 255h-150zM155 60h350l70 265h-420v-265z" />
    <glyph glyph-name="J_A" horiz-adv-x="920" 
d="M0 155l65 15q11 -38 32 -65q49 -65 138 -65q76 0 120.5 47t44.5 133v480h310l185 -700h-65l-60 230h-305v-10q0 -111 -62.5 -175.5t-167.5 -64.5q-124 0 -191 87q-31 40 -44 88zM465 290h290l-95 350h-195v-350z" />
    <glyph glyph-name="K_K" horiz-adv-x="860" 
d="M515 360l245 340h80l-245 -340l255 -360h-80zM90 0v700h65v-315h155l225 315h80l-245 -340l255 -360h-80l-230 325h-160v-325h-65z" />
    <glyph glyph-name="K_O" horiz-adv-x="1100" 
d="M90 0v700h65v-315h155l225 315h80l-245 -340l255 -360h-80l-230 325h-160v-325h-65zM555 355q0 108 75 184t180 76t180 -76t75 -184t-75 -184t-180 -76t-180 76t-75 184zM620 355q0 -85 55.5 -142.5t134.5 -57.5t134.5 57.5t55.5 142.5t-55.5 142.5t-134.5 57.5
t-134.5 -57.5t-55.5 -142.5z" />
    <glyph glyph-name="L_A" horiz-adv-x="940" 
d="M90 0v700h65v-640h155l170 640h250l185 -700h-65l-60 230h-370l-45 -170h160v-60h-445zM435 290h340l-95 350h-150z" />
    <glyph glyph-name="L_I" horiz-adv-x="620" 
d="M470 170v530h65v-530h-65zM90 0v700h65v-640h380v-60h-445z" />
    <glyph glyph-name="L_L" horiz-adv-x="625" 
d="M275 170v530h65v-470h270v-60h-335zM90 0v700h65v-640h380v-60h-445z" />
    <glyph glyph-name="L_F" horiz-adv-x="640" 
d="M285 160v540h325v-60h-260v-184h210v-61h-210v-235h-65zM90 0v700h65v-640h380v-60h-445z" />
    <glyph glyph-name="L_O" horiz-adv-x="800" 
d="M240 450q0 108 75 184t180 76t180 -76t75 -184t-75 -184t-180 -76t-180 76t-75 184zM90 0v700h65v-640h380v-60h-445zM305 450q0 -85 55.5 -142.5t134.5 -57.5t134.5 57.5t55.5 142.5t-55.5 142.5t-134.5 57.5t-134.5 -57.5t-55.5 -142.5z" />
    <glyph glyph-name="N_A" horiz-adv-x="1085" 
d="M90 0v700h100l374 -625l5 -10h1v635h305l185 -700h-65l-60 230h-300v-230h-100l-374 625l-5 10h-1v-635h-65zM635 290h285l-95 350h-190v-350z" />
    <glyph glyph-name="O_C" horiz-adv-x="1180" 
d="M50 350q0 160 103 265t257 105q63 0 136 -25q25 -9 54 -25q29 16 54 25q73 25 136 25q168 0 273 -125q45 -55 67 -125h-65q-20 53 -57 95q-85 95 -218 95q-50 0 -99 -15l-36 -15q31 -29 57 -71q58 -94 58 -209t-58 -209q-26 -42 -57 -71q17 -9 36 -15q43 -15 99 -15
q136 0 222 102q37 44 58 103h65q-22 -74 -69 -133q-104 -132 -276 -132q-69 0 -136 25q-25 9 -54 25q-29 -16 -54 -25q-67 -25 -136 -25q-154 0 -257 105t-103 265zM115 350q0 -138 83 -224t212 -86q52 0 97 15q22 6 38 15q-33 32 -58 71q-57 92 -57 209t57 209q25 39 58 71
q-15 7 -38 15q-51 15 -97 15q-129 0 -212 -86t-83 -224zM495 350q0 -105 52 -184q21 -34 53 -61q31 28 52 61q53 80 53 184t-53 184q-21 33 -52 61q-32 -27 -53 -61q-52 -79 -52 -184z" />
    <glyph glyph-name="O_G" horiz-adv-x="1240" 
d="M50 350q0 160 103 265t257 105q63 0 136 -25q25 -9 54 -25q29 16 54 25q73 25 136 25q170 0 271 -123q45 -54 69 -122h-65q-23 53 -59 92q-87 93 -216 93q-50 0 -99 -15l-36 -15q31 -29 57 -71q58 -94 58 -209t-58 -209q-26 -42 -57 -71q17 -9 36 -15q43 -15 99 -15
q114 0 193.5 74.5t91.5 185.5h-140v60h295v-60h-90q-22 -144 -116 -232t-234 -88q-69 0 -136 25q-25 9 -54 25q-29 -16 -54 -25q-67 -25 -136 -25q-154 0 -257 105t-103 265zM115 350q0 -138 83 -224t212 -86q52 0 97 15q22 6 38 15q-33 32 -58 71q-57 92 -57 209t57 209
q25 39 58 71q-15 7 -38 15q-51 15 -97 15q-129 0 -212 -86t-83 -224zM495 350q0 -105 52 -184q21 -34 53 -61q31 28 52 61q53 80 53 184t-53 184q-21 33 -52 61q-32 -27 -53 -61q-52 -79 -52 -184z" />
    <glyph glyph-name="O_L_I" horiz-adv-x="1400" 
d="M50 350q0 160 103 265t257 105t257 -105t103 -265t-103 -265t-257 -105t-257 105t-103 265zM115 350q0 -138 83 -224t212 -86t212 86t83 224t-83 224t-212 86t-212 -86t-83 -224zM1250 170v530h65v-530h-65zM870 0v700h65v-640h380v-60h-445z" />
    <glyph glyph-name="O_O" horiz-adv-x="1200" 
d="M50 350q0 160 103 265t257 105q63 0 136 -25q25 -9 54 -25q29 16 54 25q73 25 136 25q154 0 257 -105t103 -265t-103 -265t-257 -105q-69 0 -136 25q-25 9 -54 25q-29 -16 -54 -25q-67 -25 -136 -25q-154 0 -257 105t-103 265zM655 70q17 -9 36 -15q43 -15 99 -15
q129 0 212 86t83 224t-83 224t-212 86q-50 0 -99 -15l-36 -15q31 -29 57 -71q58 -94 58 -209t-58 -209q-26 -42 -57 -71zM115 350q0 -138 83 -224t212 -86q52 0 97 15q22 6 38 15q-33 32 -58 71q-57 92 -57 209t57 209q25 39 58 71q-15 7 -38 15q-51 15 -97 15
q-129 0 -212 -86t-83 -224zM495 350q0 -105 52 -184q21 -34 53 -61q31 28 52 61q53 80 53 184t-53 184q-21 33 -52 61q-32 -27 -53 -61q-52 -79 -52 -184z" />
    <glyph glyph-name="P_H" horiz-adv-x="1185" 
d="M90 0v700h285q114 0 182 -63t68 -162v-90h405v315h65v-700h-65v325h-405v-325h-65v315q-18 -19 -44 -33q-62 -32 -141 -32h-220v-250h-65zM155 310h220q89 0 137 44.5t48 120.5t-48 120.5t-137 44.5h-220v-330z" />
    <glyph glyph-name="R_J" horiz-adv-x="1015" 
d="M90 0v700h290q114 0 179.5 -59.5t65.5 -155.5q0 -82 -48.5 -139t-136.5 -71l50 -75q63 -94 104 -127t106 -33q76 0 120.5 47t44.5 133v480h65v-480q0 -111 -62.5 -175.5t-167.5 -64.5q-82 0 -140 46t-130 154l-60 90h-215v-270h-65zM155 330h225q89 0 134.5 40.5
t45.5 114.5t-45.5 114.5t-134.5 40.5h-225v-310z" />
    <glyph glyph-name="S_A" horiz-adv-x="1270" 
d="M15 185h65q14 -42 42 -73q64 -72 173 -72q94 0 144.5 40t50.5 100q0 27 -10.5 49t-24.5 36t-40.5 28.5t-44.5 22t-52 19.5q-79 26 -126 70t-47 125q0 78 66 134t174 56q142 0 219 -93q33 -40 46 -92h-65q-11 35 -36 62q-59 63 -164 63q-83 0 -129 -37.5t-46 -92.5
q0 -32 13.5 -56.5t41.5 -42.5t53 -29t65 -24q37 -13 64 -27.5t53.5 -37.5t40.5 -56.5t14 -76.5q0 -83 -70.5 -141.5t-189.5 -58.5q-150 0 -230 102q-35 46 -50 103zM625 0l185 700h250l185 -700h-65l-60 230h-370l-60 -230h-65zM765 290h340l-95 350h-150z" />
    <glyph glyph-name="T_A" horiz-adv-x="775" 
d="M10 640v60h555l185 -700h-65l-60 230h-300v-230h-65v640h-250zM325 290h285l-95 350h-190v-350z" />
    <glyph glyph-name="T_E" horiz-adv-x="715" 
d="M10 640v60h565v-60h-250v-160h330v-60h-330v-150h250v-60h-250v-150h330v-60h-395v640h-250z" />
    <glyph glyph-name="T_H_E" horiz-adv-x="1240" 
d="M10 640v60h545v-60h-240v-255h405v315h475v-60h-410v-255h335v-60h-335v-265h410v-60h-475v325h-405v-325h-65v640h-240z" />
    <glyph glyph-name="T_T" horiz-adv-x="850" 
d="M10 640v60h565v-60h-250v-640h-65v640h-250zM415 420v60h395v-60h-165v-420h-65v420h-165z" />
    <glyph glyph-name="U_U" horiz-adv-x="780" 
d="M85 260v440h65v-440q0 -99 64.5 -159.5t175.5 -60.5t175.5 60.5t64.5 159.5v440h65v-440q0 -125 -82.5 -202.5t-222.5 -77.5t-222.5 77.5t-82.5 202.5zM230 300v250h65v-250q0 -115 95 -115t95 115v250h65v-250q0 -82 -43.5 -128.5t-116.5 -46.5t-116.5 46.5t-43.5 128.5
z" />
    <glyph glyph-name="W_E" horiz-adv-x="1260" 
d="M40 700h70l135 -640h35l140 640h120l140 -640h35l135 640h365v-60h-310l-55 -255h290v-60h-305l-60 -265h440v-60h-585l-135 640h-30l-135 -640h-135z" />
    <glyph glyph-name="afii10024.alt" horiz-adv-x="985" 
d="M25 -5v60h30q30 0 50 20t20 50v105q0 35 10.5 61t25.5 38.5t25 18t17 6.5v1l-13 6q-20 7 -37.5 37t-17.5 82v95q0 30 -20 50t-50 20h-30v60h30q60 0 97.5 -36.5t37.5 -93.5v-95q0 -95 95 -95h165v315h65v-315h165q95 0 95 95v95q0 57 37.5 93.5t97.5 36.5h30v-60h-30
q-30 0 -50 -20t-20 -50v-95q0 -36 -8.5 -62.5t-23 -39t-22.5 -17t-16 -6.5v-1q36 -14 53 -34q27 -34 27 -90v-105q0 -30 20 -50t50 -20h30v-60h-30q-60 0 -97.5 36.5t-37.5 93.5v105q0 95 -95 95h-175v-325h-65v325h-175q-95 0 -95 -95v-105q0 -57 -37.5 -93.5t-97.5 -36.5
h-30z" />
    <glyph glyph-name="afii10076.alt" horiz-adv-x="530" 
d="M140 0h-60v500h60v-220h160q65 0 65 65v60q0 46 29 73t81 27h20v-55h-20q-23 0 -36.5 -14.5t-13.5 -40.5v-60q0 -30 -12.5 -49.5t-22.5 -24.5t-15 -5v-1q5 0 17.5 -6.5t27.5 -27.5t15 -51v-65q0 -26 13.5 -40.5t36.5 -14.5h20v-55h-20q-52 0 -81 27t-29 73v65
q0 65 -65 65h-170v-225z" />
    <glyph glyph-name="afii10028.alt" horiz-adv-x="680" 
d="M155 0h-65v700h65v-315h230q95 0 95 95v95q0 57 37.5 93.5t97.5 36.5h30v-60h-30q-30 0 -50 -20t-20 -50v-95q0 -29 -6.5 -52.5t-16 -36.5t-20 -21.5t-17.5 -11t-10 -2.5v-1q3 0 10 -2.5t19.5 -11t23.5 -21t19 -36.5t8 -54v-105q0 -30 20 -50t50 -20h30v-60h-30
q-60 0 -97.5 36.5t-37.5 93.5v105q0 95 -95 95h-240v-325z" />
    <glyph glyph-name="afii10077.alt" horiz-adv-x="580" 
d="M0 4v54l11 -4q9 -4 29 -4q43 0 64 30t21 105v315h375v-500h-60v445h-255v-260q0 -101 -34 -145.5t-101 -44.5q-24 0 -36 4q-7 1 -14 5z" />
    <glyph glyph-name="afii10029.alt" horiz-adv-x="725" 
d="M-10 0v60q7 -4 14 -5q17 -5 36 -5q62 0 91 51t29 189v410h475v-700h-65v640h-345v-350q0 -164 -45 -232t-130 -68q-23 0 -43 5q-7 1 -17 5z" />
    <glyph glyph-name="gcommaaccent.alt" horiz-adv-x="550" 
d="M210 665q0 44 26 72.5t69 32.5v-30q-55 -7 -55 -55q0 -4 2 -14l3 -6l4 2q9 3 11 3q40 0 40 -40q0 -15 -13.5 -27.5t-31.5 -12.5q-24 0 -39.5 19t-15.5 56zM20 -60q0 57 57 94q26 17 58 26v115q-24 14 -43 36q-42 48 -42 114q0 77 60 131t155 54q32 0 54 -5q14 -4 21 -5
h210v-55h-120l-8 1v-1q14 -10 29 -30q29 -39 29 -90q0 -77 -60 -131t-155 -54q-29 0 -54 5q-7 1 -21 5v-75l21 2q39 3 54 3q118 0 181.5 -42.5t63.5 -97.5t-63.5 -97.5t-181.5 -42.5t-181.5 42.5t-63.5 97.5zM110 325q0 -54 43 -92t112 -38t112 38t43 92t-43 92t-112 38
t-112 -38t-43 -92zM80 -60q0 -32 46.5 -58.5t138.5 -26.5t138.5 26.5t46.5 58.5q0 31 -47 58t-138 27q-92 0 -138.5 -26.5t-46.5 -58.5z" />
    <glyph glyph-name="gbreve.alt" horiz-adv-x="550" 
d="M20 -60q0 57 57 94q26 17 58 26v115q-24 14 -43 36q-42 48 -42 114q0 77 60 131t155 54q32 0 54 -5q14 -4 21 -5h210v-55h-120l-8 1v-1q14 -10 29 -30q29 -39 29 -90q0 -77 -60 -131t-155 -54q-29 0 -54 5q-7 1 -21 5v-75l21 2q39 3 54 3q118 0 181.5 -42.5t63.5 -97.5
t-63.5 -97.5t-181.5 -42.5t-181.5 42.5t-63.5 97.5zM110 325q0 -54 43 -92t112 -38t112 38t43 92t-43 92t-112 38t-112 -38t-43 -92zM80 -60q0 -32 46.5 -58.5t138.5 -26.5t138.5 26.5t46.5 58.5q0 31 -47 58t-138 27q-92 0 -138.5 -26.5t-46.5 -58.5zM125 721h55
q0 -31 21.5 -50.5t58.5 -19.5t58.5 19.5t21.5 50.5h55q0 -50 -38 -85t-97 -35t-97 35t-38 85z" />
    <glyph glyph-name="Iogonek.alt" horiz-adv-x="485" 
d="M50 0v60h160v580h-160v60h385v-60h-160v-580h160v-60q-38 -18 -60 -35q-60 -45 -60 -95q0 -19 13.5 -32t36.5 -13q25 0 48 7l22 8v-45q-6 -4 -20 -10q-26 -10 -50 -10q-44 0 -72 25.5t-28 64.5q0 55 52 99q22 19 53 36h-320z" />
    <glyph glyph-name="Aacute.alt2" horiz-adv-x="670" 
d="M25 0l185 700h100v125h75v-1l-20 -124h95l185 -700h-65l-60 230h-370l-60 -230h-65zM165 290h340l-95 350h-150z" />
    <glyph glyph-name="Adieresis.alt2" horiz-adv-x="670" 
d="M500 665q0 19 13 32t32 13t32 -13t13 -32t-13 -32t-32 -13t-32 13t-13 32zM80 665q0 19 13 32t32 13t32 -13t13 -32t-13 -32t-32 -13t-32 13t-13 32zM25 0l185 700h250l185 -700h-65l-60 230h-370l-60 -230h-65zM165 290h340l-95 350h-150z" />
    <glyph glyph-name="Aring.alt2" horiz-adv-x="670" 
d="M25 0l185 700h50q-9 5 -13 12q-12 14 -12 38q0 31 28.5 55.5t71.5 24.5t71.5 -24.5t28.5 -55.5q0 -23 -13 -38q-4 -8 -12 -12h50l185 -700h-65l-60 230h-370l-60 -230h-65zM280 745q0 -19 15 -32t40 -13t40 13t15 32t-15 32t-40 13t-40 -13t-15 -32zM165 290h340l-95 350
h-150z" />
    <glyph glyph-name="Odieresis.alt2" horiz-adv-x="820" 
d="M50 350q0 160 103 265t257 105t257 -105t103 -265t-103 -265t-257 -105t-257 105t-103 265zM670 665q0 19 13 32t32 13t32 -13t13 -32t-13 -32t-32 -13t-32 13t-13 32zM60 665q0 19 13 32t32 13t32 -13t13 -32t-13 -32t-32 -13t-32 13t-13 32zM115 350q0 -138 83 -224
t212 -86t212 86t83 224t-83 224t-212 86t-212 -86t-83 -224z" />
    <glyph glyph-name="Otilde.alt2" horiz-adv-x="820" 
d="M260 710v26q0 37 23.5 60.5t61.5 23.5q35 0 75 -32q37 -33 55 -33q15 0 25 10t10 25v25h50v-26q0 -37 -23.5 -60.5t-61.5 -23.5q-37 0 -74 33q-2 1 -11 9t-12 9.5t-10 6t-12 6t-11 1.5q-15 0 -25 -10t-10 -25v-25h-50zM50 325q0 150 102.5 247.5t257.5 97.5t257.5 -97.5
t102.5 -247.5q0 -149 -103 -247t-257 -98t-257 98t-103 247zM115 325q0 -127 83 -206t212 -79t212 79t83 206t-83 206t-212 79t-212 -79t-83 -206z" />
    <glyph glyph-name="Scaron.alt2" horiz-adv-x="635" 
d="M45 185h65q14 -42 42 -73q64 -72 173 -72q94 0 144.5 40t50.5 100q0 16 -3.5 29t-12.5 25t-16.5 20.5t-24.5 18t-26.5 14.5t-32.5 13.5t-33 11.5t-37 11.5t-36 11.5q-40 11 -67 21t-59 26.5t-51.5 35.5t-32.5 48t-13 64q0 67 48 118.5t132 66.5l-75 99v1h60l70 -95h25
l70 95h60v-1l-75 -101q102 -21 157 -102q24 -34 33 -76h-65q-11 35 -36 62q-59 63 -164 63q-83 0 -129 -37.5t-46 -92.5q0 -69 93 -109q31 -14 130 -43q41 -13 66.5 -22.5t58.5 -27t51.5 -36.5t32 -48t13.5 -64q0 -83 -70.5 -141.5t-189.5 -58.5q-150 0 -230 102
q-35 46 -50 103z" />
    <glyph glyph-name="Udieresis.alt2" horiz-adv-x="710" 
d="M550 655q0 19 13 32t32 13t32 -13t13 -32t-13 -32t-32 -13t-32 13t-13 32zM70 655q0 19 13 32t32 13t32 -13t13 -32t-13 -32t-32 -13t-32 13t-13 32zM85 260v320h65v-320q0 -105 55 -162.5t150 -57.5t150 57.5t55 162.5v320h65v-320q0 -127 -74.5 -203.5t-195.5 -76.5
t-195.5 76.5t-74.5 203.5z" />
    <glyph glyph-name="Zcaron.alt2" 
d="M35 0v60l440 575v5h-425v60h190l-80 114v1h60l75 -115h15l75 115h60v-1l-80 -114h195v-60l-440 -575v-5h445v-60h-530z" />
    <glyph glyph-name="ampersand.alt2" horiz-adv-x="855" 
d="M65 280q0 111 71.5 185.5t173.5 74.5q96 0 161.5 -61t83.5 -164l-425 -85q15 -80 82 -132.5t173 -52.5q164 0 256 130q39 55 59 130h-85v50h235v-50h-90q-22 -86 -71 -158q-109 -157 -304 -157q-144 0 -232 82t-88 208zM125 285l360 75q-20 53 -65.5 89t-109.5 36
q-80 0 -132.5 -55.5t-52.5 -144.5z" />
    <glyph glyph-name="ampersand.alt" horiz-adv-x="695" 
d="M50 185q0 41 15 74t39.5 53t43.5 30.5t38 17.5l13 4v1q-3 0 -15 5t-32 18t-38 30.5t-31 47.5t-13 64q0 78 66 134t174 56q140 0 217 -93q33 -41 48 -92h-65q-12 34 -38 62q-59 63 -162 63q-83 0 -129 -37.5t-46 -92.5t49.5 -97.5t125.5 -42.5h40v-60h-40
q-90 0 -142.5 -42.5t-52.5 -102.5t53.5 -102.5t146.5 -42.5q98 0 151.5 52t53.5 143v95h-85v60h255v-60h-105v-95q0 -114 -73.5 -184.5t-196.5 -70.5q-119 0 -192 61.5t-73 143.5z" />
    <glyph glyph-name="florin.alt" horiz-adv-x="355" 
d="M-75 -190v55h60q90 0 105 105l70 475h-60v55h70l10 70q9 54 50 92t100 38h80v-55h-80q-78 0 -90 -75l-10 -70h130v-55h-140l-70 -475q-12 -84 -51 -122t-114 -38h-60z" />
    <glyph glyph-name="periodcentered.case" horiz-adv-x="280" 
d="M90 360q0 23 13.5 36.5t36.5 13.5t36.5 -13.5t13.5 -36.5t-13.5 -36.5t-36.5 -13.5t-36.5 14t-13.5 36z" />
    <glyph glyph-name="tcaron.alt" horiz-adv-x="355" 
d="M210 574q0 15 13.5 27.5t31.5 12.5q24 0 39.5 -19t15.5 -56q0 -44 -26 -72.5t-69 -32.5v30q55 7 55 55q0 2 -3 14l-2 6l-4 -3q-8 -2 -11 -2q-40 0 -40 40zM25 445v55h70v110h60v-465q0 -90 85 -90h85v-55h-85q-145 0 -145 145v300h-70z" />
    <glyph glyph-name="tcommaaccent.alt" horiz-adv-x="355" 
d="M25 445v55h70v110h60v-110h165v-55h-165v-300q0 -90 85 -90h85v-55h-85q-145 0 -145 145v300h-70zM160 -140q0 15 13.5 27.5t31.5 12.5q24 0 39.5 -19t15.5 -56q0 -44 -26 -72.5t-69 -32.5v30q55 7 55 55q0 2 -3 14l-2 6l-4 -3q-8 -2 -11 -2q-40 0 -40 40z" />
    <glyph glyph-name="uni021B.alt" horiz-adv-x="355" 
d="M25 445v55h70v110h60v-110h165v-55h-165v-300q0 -90 85 -90h85v-55h-85q-145 0 -145 145v300h-70zM160 -140q0 15 13.5 27.5t31.5 12.5q24 0 39.5 -19t15.5 -56q0 -44 -26 -72.5t-69 -32.5v30q55 7 55 55q0 2 -3 14l-2 6l-4 -3q-8 -2 -11 -2q-40 0 -40 40z" />
    <glyph glyph-name="Eacute.alt2" horiz-adv-x="610" 
d="M90 0v700h215v125h75v-1l-20 -124h205v-60h-410v-255h335v-60h-335v-265h410v-60h-475z" />
    <glyph glyph-name="Iacute.alt2" horiz-adv-x="245" 
d="M95 700v125h75v-1l-20 -124h-55zM90 0v640h65v-640h-65z" />
    <glyph glyph-name="Oacute.alt2" horiz-adv-x="820" 
d="M50 350q0 152 93.5 254.5t236.5 114.5v106h75v-1l-17 -105q144 -10 238 -113.5t94 -255.5q0 -160 -103 -265t-257 -105t-257 105t-103 265zM115 350q0 -138 83 -224t212 -86t212 86t83 224t-83 224t-212 86t-212 -86t-83 -224z" />
    <glyph glyph-name="Uacute.alt2" horiz-adv-x="710" 
d="M325 700v125h75v-1l-20 -124h-55zM85 260v440h65v-440q0 -105 55 -162.5t150 -57.5t150 57.5t55 162.5v440h65v-440q0 -127 -74.5 -203.5t-195.5 -76.5t-195.5 76.5t-74.5 203.5z" />
    <glyph glyph-name="Yacute.alt2" horiz-adv-x="635" 
d="M290 700v125h75v-1l-20 -124h-55zM10 700h80l225 -370h5l225 370h80l-275 -445v-255h-65v255z" />
    <glyph glyph-name="emdash.case" horiz-adv-x="855" 
d="M60 350v55h735v-55h-735z" />
    <glyph glyph-name="a.sc" horiz-adv-x="615" 
d="M25 0l165 600h235l165 -600h-65l-50 190h-335l-50 -190h-65zM155 250h305l-80 290h-145z" />
    <glyph glyph-name="aacute.sc" horiz-adv-x="615" 
d="M25 0l165 600h235l165 -600h-65l-50 190h-335l-50 -190h-65zM155 250h305l-80 290h-145zM280 690l90 145h75v-1l-115 -144h-50z" />
    <glyph glyph-name="abreve.sc" horiz-adv-x="615" 
d="M25 0l165 600h235l165 -600h-65l-50 190h-335l-50 -190h-65zM155 250h305l-80 290h-145zM170 810h55q0 -31 21.5 -50.5t58.5 -19.5t58.5 19.5t21.5 50.5h55q0 -50 -38 -85t-97 -35t-97 35t-38 85z" />
    <glyph glyph-name="exclamdown.case" horiz-adv-x="280" 
d="M90 660q0 23 13.5 36.5t36.5 13.5t36.5 -14t13.5 -36q0 -23 -13.5 -36.5t-36.5 -13.5t-36.5 13.5t-13.5 36.5zM110 0v360l10 135h40l10 -135v-360h-60z" />
    <glyph glyph-name="adieresis.sc" horiz-adv-x="615" 
d="M25 0l165 600h235l165 -600h-65l-50 190h-335l-50 -190h-65zM155 250h305l-80 290h-145zM350 750q0 19 13 32t32 13t32 -13t13 -32t-13 -32t-32 -13t-32 13t-13 32zM180 750q0 19 13 32t32 13t32 -13t13 -32t-13 -32t-32 -13t-32 13t-13 32z" />
    <glyph glyph-name="agrave.sc" horiz-adv-x="615" 
d="M25 0l165 600h235l165 -600h-65l-50 190h-335l-50 -190h-65zM155 250h305l-80 290h-145zM170 834v1h75l90 -145h-50z" />
    <glyph glyph-name="amacron.sc" horiz-adv-x="615" 
d="M25 0l165 600h235l165 -600h-65l-50 190h-335l-50 -190h-65zM155 250h305l-80 290h-145zM180 720v55h255v-55h-255z" />
    <glyph glyph-name="aogonek.sc" horiz-adv-x="615" 
d="M25 0l165 600h235l165 -600q-38 -18 -60 -35q-60 -45 -60 -95q0 -19 13.5 -32t36.5 -13q25 0 48 7l22 8v-45q-6 -4 -20 -10q-26 -10 -50 -10q-44 0 -72 25.5t-28 64.5q0 55 52 99q22 19 53 36h1l-51 190h-335l-50 -190h-65zM155 250h305l-80 290h-145z" />
    <glyph glyph-name="aring.sc" horiz-adv-x="615" 
d="M25 0l165 600h235l165 -600h-65l-50 190h-335l-50 -190h-65zM155 250h305l-80 290h-145zM210 760q0 42 29 71t71 29t71 -29t29 -71t-29 -71t-71 -29t-71 29t-29 71zM255 760q0 -23 16 -39t39 -16t39 16t16 39t-16 39t-39 16t-39 -16t-16 -39z" />
    <glyph glyph-name="atilde.sc" horiz-adv-x="615" 
d="M25 0l165 600h235l165 -600h-65l-50 190h-335l-50 -190h-65zM155 250h305l-80 290h-145zM160 700v26q0 37 23.5 60.5t61.5 23.5q35 0 75 -32q37 -33 55 -33q15 0 25 10t10 25v25h50v-26q0 -37 -23.5 -60.5t-61.5 -23.5q-37 0 -74 33q-2 1 -11 9t-12 9.5t-10 6t-12 6
t-11 1.5q-15 0 -25 -10t-10 -25v-25h-50z" />
    <glyph glyph-name="ae.sc" horiz-adv-x="865" 
d="M25 0l165 600h630v-60h-340v-205h280v-60h-280v-215h340v-60h-405v190h-275l-50 -190h-65zM155 250h260v290h-180z" />
    <glyph glyph-name="b.sc" horiz-adv-x="650" 
d="M90 0v600h300q77 0 126 -45t49 -110q0 -67 -43 -106q-18 -17 -42 -24v-5q30 -6 57 -23q58 -38 58 -117q0 -70 -57.5 -120t-149.5 -50h-298zM155 340h235q52 0 81 27t29 73t-29 73t-81 27h-235v-200zM155 60h235q66 0 103 31.5t37 78.5t-37 78.5t-103 31.5h-235v-220z" />
    <glyph glyph-name="c.sc" horiz-adv-x="725" 
d="M50 300q0 131 94.5 225.5t225.5 94.5q152 0 242 -110q40 -48 63 -110h-65q-18 46 -51 80q-74 80 -189 80q-105 0 -180 -76t-75 -184t75 -184t180 -76q122 0 194 87q33 39 51 88h65q-22 -65 -63 -118q-95 -117 -247 -117q-131 0 -225.5 94.5t-94.5 225.5z" />
    <glyph glyph-name="cacute.sc" horiz-adv-x="725" 
d="M50 300q0 131 94.5 225.5t225.5 94.5q152 0 242 -110q40 -48 63 -110h-65q-18 46 -51 80q-74 80 -189 80q-105 0 -180 -76t-75 -184t75 -184t180 -76q122 0 194 87q33 39 51 88h65q-22 -65 -63 -118q-95 -117 -247 -117q-131 0 -225.5 94.5t-94.5 225.5zM335 690l90 145
h75v-1l-115 -144h-50z" />
    <glyph glyph-name="ccaron.sc" horiz-adv-x="725" 
d="M50 300q0 131 94.5 225.5t225.5 94.5q152 0 242 -110q40 -48 63 -110h-65q-18 46 -51 80q-74 80 -189 80q-105 0 -180 -76t-75 -184t75 -184t180 -76q122 0 194 87q33 39 51 88h65q-22 -65 -63 -118q-95 -117 -247 -117q-131 0 -225.5 94.5t-94.5 225.5zM230 834v1h60
l75 -100h15l75 100h60v-1l-110 -144h-65z" />
    <glyph glyph-name="ccedilla.sc" horiz-adv-x="725" 
d="M50 300q0 131 94.5 225.5t225.5 94.5q152 0 242 -110q40 -48 63 -110h-65q-18 46 -51 80q-74 80 -189 80q-105 0 -180 -76t-75 -184t75 -184t180 -76q122 0 194 87q33 39 51 88h65q-20 -62 -59 -112q-93 -114 -231 -123l-15 -35q34 -4 57 -28t23 -57q0 -43 -28.5 -69
t-76.5 -26q-28 0 -52 10q-12 5 -18 10v45q6 -5 18 -10q24 -10 52 -10q26 0 40.5 13.5t14.5 36.5q0 20 -15.5 32.5t-44.5 12.5h-35l35 75q-125 12 -210 103.5t-85 216.5z" />
    <glyph glyph-name="ccircumflex.sc" horiz-adv-x="725" 
d="M50 300q0 131 94.5 225.5t225.5 94.5q152 0 242 -110q40 -48 63 -110h-65q-18 46 -51 80q-74 80 -189 80q-105 0 -180 -76t-75 -184t75 -184t180 -76q122 0 194 87q33 39 51 88h65q-22 -65 -63 -118q-95 -117 -247 -117q-131 0 -225.5 94.5t-94.5 225.5zM230 690v1
l110 144h65l110 -144v-1h-60l-75 100h-15l-75 -100h-60z" />
    <glyph glyph-name="d.sc" horiz-adv-x="665" 
d="M90 0v600h205q145 0 232.5 -83.5t87.5 -216.5t-87.5 -216.5t-232.5 -83.5h-205zM155 60h140q119 0 187 65t68 175t-68 175t-187 65h-140v-480z" />
    <glyph glyph-name="dcaron.sc" horiz-adv-x="665" 
d="M90 0v600h205q145 0 232.5 -83.5t87.5 -216.5t-87.5 -216.5t-232.5 -83.5h-205zM155 60h140q119 0 187 65t68 175t-68 175t-187 65h-140v-480zM200 824v1h60l75 -100h15l75 100h60v-1l-110 -144h-65z" />
    <glyph glyph-name="dcroat.sc" horiz-adv-x="670" 
d="M25 265v60h70v275h205q145 0 232.5 -83.5t87.5 -216.5t-87.5 -216.5t-232.5 -83.5h-205v265h-70zM160 60h140q119 0 187 65t68 175t-68 175t-187 65h-140v-215h155v-60h-155v-205z" />
    <glyph glyph-name="eth.sc" horiz-adv-x="670" 
d="M25 265v60h70v275h205q145 0 232.5 -83.5t87.5 -216.5t-87.5 -216.5t-232.5 -83.5h-205v265h-70zM160 60h140q119 0 187 65t68 175t-68 175t-187 65h-140v-215h155v-60h-155v-205z" />
    <glyph glyph-name="e.sc" horiz-adv-x="560" 
d="M90 0v600h425v-60h-360v-205h300v-60h-300v-215h360v-60h-425z" />
    <glyph glyph-name="eacute.sc" horiz-adv-x="560" 
d="M90 0v600h425v-60h-360v-205h300v-60h-300v-215h360v-60h-425zM260 690l90 145h75v-1l-115 -144h-50z" />
    <glyph glyph-name="ecaron.sc" horiz-adv-x="560" 
d="M90 0v600h425v-60h-360v-205h300v-60h-300v-215h360v-60h-425zM160 834v1h60l75 -100h15l75 100h60v-1l-110 -144h-65z" />
    <glyph glyph-name="yacute.alt" horiz-adv-x="505" 
d="M25 500h65l115 -445h95l130 445h65l-165 -550q-21 -71 -61 -105.5t-109 -34.5h-80v55h80q48 0 71.5 19.5t38.5 65.5l15 50h-125zM235 600l90 145h75v-1l-115 -144h-50z" />
    <glyph glyph-name="edieresis.sc" horiz-adv-x="560" 
d="M90 0v600h425v-60h-360v-205h300v-60h-300v-215h360v-60h-425zM340 755q0 19 13 32t32 13t32 -13t13 -32t-13 -32t-32 -13t-32 13t-13 32zM170 755q0 19 13 32t32 13t32 -13t13 -32t-13 -32t-32 -13t-32 13t-13 32z" />
    <glyph glyph-name="edotaccent.sc" horiz-adv-x="560" 
d="M90 0v600h425v-60h-360v-205h300v-60h-300v-215h360v-60h-425zM260 750q0 19 13 32t32 13t32 -13t13 -32t-13 -32t-32 -13t-32 13t-13 32z" />
    <glyph glyph-name="egrave.sc" horiz-adv-x="560" 
d="M90 0v600h425v-60h-360v-205h300v-60h-300v-215h360v-60h-425zM180 834v1h75l90 -145h-50z" />
    <glyph glyph-name="emacron.sc" horiz-adv-x="560" 
d="M90 0v600h425v-60h-360v-205h300v-60h-300v-215h360v-60h-425zM180 730v55h255v-55h-255z" />
    <glyph glyph-name="eogonek.sc" horiz-adv-x="560" 
d="M90 0v600h425v-60h-360v-205h300v-60h-300v-215h360v-60q-38 -18 -60 -35q-60 -45 -60 -95q0 -19 13.5 -32t36.5 -13q25 0 48 7l22 8v-45q-6 -4 -20 -10q-26 -10 -50 -10q-44 0 -72 25.5t-28 64.5q0 55 52 99q22 19 53 36h-360z" />
    <glyph glyph-name="f.sc" horiz-adv-x="530" 
d="M90 0v600h415v-60h-350v-225h280v-60h-280v-255h-65z" />
    <glyph glyph-name="g.sc" horiz-adv-x="780" 
d="M50 300q0 131 94.5 225.5t226.5 94.5q149 0 242 -105q39 -44 62 -105h-65q-18 42 -51 75q-75 75 -189 75q-105 0 -180 -76t-75 -184t75 -184t180 -76q99 0 170.5 65t79.5 155h-120v60h270v-60h-85q-12 -116 -101 -198t-214 -82q-131 0 -225.5 94.5t-94.5 225.5z" />
    <glyph glyph-name="gbreve.sc" horiz-adv-x="780" 
d="M50 300q0 131 94.5 225.5t226.5 94.5q149 0 242 -105q39 -44 62 -105h-65q-18 42 -51 75q-75 75 -189 75q-105 0 -180 -76t-75 -184t75 -184t180 -76q99 0 170.5 65t79.5 155h-120v60h270v-60h-85q-12 -116 -101 -198t-214 -82q-131 0 -225.5 94.5t-94.5 225.5zM240 810
h55q0 -31 21.5 -50.5t58.5 -19.5t58.5 19.5t21.5 50.5h55q0 -50 -38 -85t-97 -35t-97 35t-38 85z" />
    <glyph glyph-name="gcommaaccent.sc" horiz-adv-x="780" 
d="M50 300q0 131 94.5 225.5t226.5 94.5q149 0 242 -105q39 -44 62 -105h-65q-18 42 -51 75q-75 75 -189 75q-105 0 -180 -76t-75 -184t75 -184t180 -76q99 0 170.5 65t79.5 155h-120v60h270v-60h-85q-12 -116 -101 -198t-214 -82q-131 0 -225.5 94.5t-94.5 225.5zM330 -140
q0 15 13.5 27.5t31.5 12.5q24 0 39.5 -19t15.5 -56q0 -44 -26 -72.5t-69 -32.5v30q55 7 55 55q0 2 -3 14l-2 6l-4 -3q-8 -2 -11 -2q-40 0 -40 40z" />
    <glyph glyph-name="h.sc" horiz-adv-x="670" 
d="M90 0v600h65v-265h360v265h65v-600h-65v275h-360v-275h-65z" />
    <glyph glyph-name="i.sc" horiz-adv-x="245" 
d="M90 0v600h65v-600h-65z" />
    <glyph glyph-name="iacute.sc" horiz-adv-x="245" 
d="M90 0v600h65v-600h-65zM95 690l90 145h75v-1l-115 -144h-50z" />
    <glyph glyph-name="icircumflex.sc" horiz-adv-x="245" 
d="M90 0v600h65v-600h-65zM-20 690v1l110 144h65l110 -144v-1h-60l-75 100h-15l-75 -100h-60z" />
    <glyph glyph-name="dotlessi.sc" horiz-adv-x="245" 
d="M90 0v600h65v-600h-65zM80 750q0 19 13 32t32 13t32 -13t13 -32t-13 -32t-32 -13t-32 13t-13 32z" />
    <glyph glyph-name="idieresis.sc" horiz-adv-x="245" 
d="M90 0v600h65v-600h-65zM165 755q0 19 13 32t32 13t32 -13t13 -32t-13 -32t-32 -13t-32 13t-13 32zM-5 755q0 19 13 32t32 13t32 -13t13 -32t-13 -32t-32 -13t-32 13t-13 32z" />
    <glyph glyph-name="igrave.sc" horiz-adv-x="245" 
d="M90 0v600h65v-600h-65zM-10 834v1h75l90 -145h-50z" />
    <glyph glyph-name="imacron.sc" horiz-adv-x="245" 
d="M90 0v600h65v-600h-65zM-5 730v55h255v-55h-255z" />
    <glyph glyph-name="iogonek.sc" horiz-adv-x="245" 
d="M-15 -135q0 54 53 99q22 19 53 36h-1v600h65v-600q-38 -18 -60 -35q-60 -45 -60 -95q0 -19 13.5 -32t36.5 -13q25 0 48 7l22 8v-45q-6 -4 -20 -10q-26 -10 -50 -10q-44 0 -72 25.5t-28 64.5z" />
    <glyph glyph-name="j.sc" horiz-adv-x="520" 
d="M0 140l65 15q10 -32 31 -60q45 -60 124 -60q69 0 109.5 42t40.5 116v407h65v-407q0 -99 -58.5 -158.5t-156.5 -59.5q-112 0 -178 82q-28 36 -42 83z" />
    <glyph glyph-name="k.sc" horiz-adv-x="590" 
d="M90 0v600h65v-265h145l190 265h80l-210 -290l220 -310h-80l-195 275h-150v-275h-65z" />
    <glyph glyph-name="kcommaaccent.sc" horiz-adv-x="590" 
d="M90 0v600h65v-265h145l190 265h80l-210 -290l220 -310h-80l-195 275h-150v-275h-65zM270 -140q0 15 13.5 27.5t31.5 12.5q24 0 39.5 -19t15.5 -56q0 -44 -26 -72.5t-69 -32.5v30q55 7 55 55q0 2 -3 14l-2 6l-4 -3q-8 -2 -11 -2q-40 0 -40 40z" />
    <glyph glyph-name="l.sc" horiz-adv-x="505" 
d="M90 0v600h65v-540h340v-60h-405z" />
    <glyph glyph-name="lacute.sc" horiz-adv-x="505" 
d="M90 0v600h65v-540h340v-60h-405zM105 690l90 145h75v-1l-115 -144h-50z" />
    <glyph glyph-name="lcaron.sc" horiz-adv-x="505" 
d="M90 0v600h65v-540h340v-60h-405zM240 570q0 15 13.5 27.5t31.5 12.5q24 0 39.5 -19t15.5 -56q0 -44 -26 -72.5t-69 -32.5v30q55 7 55 55q0 2 -3 14l-2 6l-4 -3q-8 -2 -11 -2q-40 0 -40 40z" />
    <glyph glyph-name="lcommaaccent.sc" horiz-adv-x="505" 
d="M90 0v600h65v-540h340v-60h-405zM250 -140q0 15 13.5 27.5t31.5 12.5q24 0 39.5 -19t15.5 -56q0 -44 -26 -72.5t-69 -32.5v30q55 7 55 55q0 2 -3 14l-2 6l-4 -3q-8 -2 -11 -2q-40 0 -40 40z" />
    <glyph glyph-name="lslash.sc" horiz-adv-x="505" 
d="M25 205v65l65 30v300h65v-275l130 60v-65l-130 -60v-200h340v-60h-405v235z" />
    <glyph glyph-name="m.sc" horiz-adv-x="845" 
d="M90 0v600h105l200 -390h55l200 390h105v-600h-65v530l1 10h-1l-200 -390h-135l-200 390h-1l1 -10v-530h-65z" />
    <glyph glyph-name="n.sc" horiz-adv-x="680" 
d="M90 0v600h95l340 -525h1l-1 10v515h65v-600h-95l-340 525h-1l1 -10v-515h-65z" />
    <glyph glyph-name="nacute.sc" horiz-adv-x="680" 
d="M90 0v600h95l340 -525h1l-1 10v515h65v-600h-95l-340 525h-1l1 -10v-515h-65zM310 690l90 145h75v-1l-115 -144h-50z" />
    <glyph glyph-name="ncaron.sc" horiz-adv-x="680" 
d="M90 0v600h95l340 -525h1l-1 10v515h65v-600h-95l-340 525h-1l1 -10v-515h-65zM200 834v1h60l75 -100h15l75 100h60v-1l-110 -144h-65z" />
    <glyph glyph-name="ncommaaccent.sc" horiz-adv-x="680" 
d="M90 0v600h95l340 -525h1l-1 10v515h65v-600h-95l-340 525h-1l1 -10v-515h-65zM295 -140q0 15 13.5 27.5t31.5 12.5q24 0 39.5 -19t15.5 -56q0 -44 -26 -72.5t-69 -32.5v30q55 7 55 55q0 2 -3 14l-2 6l-4 -3q-8 -2 -11 -2q-40 0 -40 40z" />
    <glyph glyph-name="ntilde.sc" horiz-adv-x="680" 
d="M90 0v600h95l340 -525h1l-1 10v515h65v-600h-95l-340 525h-1l1 -10v-515h-65zM195 700v26q0 37 23.5 60.5t61.5 23.5q35 0 75 -32q37 -33 55 -33q15 0 25 10t10 25v25h50v-26q0 -37 -23.5 -60.5t-61.5 -23.5q-37 0 -74 33q-2 1 -11 9t-12 9.5t-10 6t-12 6t-11 1.5
q-15 0 -25 -10t-10 -25v-25h-50z" />
    <glyph glyph-name="o.sc" horiz-adv-x="750" 
d="M50 300q0 135 93.5 227.5t231.5 92.5t231.5 -92.5t93.5 -227.5t-93.5 -227.5t-231.5 -92.5t-231.5 92.5t-93.5 227.5zM115 300q0 -112 73.5 -186t186.5 -74t186.5 74t73.5 186t-73.5 186t-186.5 74t-186.5 -74t-73.5 -186z" />
    <glyph glyph-name="oacute.sc" horiz-adv-x="750" 
d="M50 300q0 135 93.5 227.5t231.5 92.5t231.5 -92.5t93.5 -227.5t-93.5 -227.5t-231.5 -92.5t-231.5 92.5t-93.5 227.5zM115 300q0 -112 73.5 -186t186.5 -74t186.5 74t73.5 186t-73.5 186t-186.5 74t-186.5 -74t-73.5 -186zM345 690l90 145h75v-1l-115 -144h-50z" />
    <glyph glyph-name="ocircumflex.sc" horiz-adv-x="750" 
d="M50 300q0 135 93.5 227.5t231.5 92.5t231.5 -92.5t93.5 -227.5t-93.5 -227.5t-231.5 -92.5t-231.5 92.5t-93.5 227.5zM115 300q0 -112 73.5 -186t186.5 -74t186.5 74t73.5 186t-73.5 186t-186.5 74t-186.5 -74t-73.5 -186zM235 690v1l110 144h65l110 -144v-1h-60l-75 100
h-15l-75 -100h-60z" />
    <glyph glyph-name="odieresis.sc" horiz-adv-x="750" 
d="M50 300q0 135 93.5 227.5t231.5 92.5t231.5 -92.5t93.5 -227.5t-93.5 -227.5t-231.5 -92.5t-231.5 92.5t-93.5 227.5zM115 300q0 -112 73.5 -186t186.5 -74t186.5 74t73.5 186t-73.5 186t-186.5 74t-186.5 -74t-73.5 -186zM415 750q0 19 13 32t32 13t32 -13t13 -32
t-13 -32t-32 -13t-32 13t-13 32zM245 750q0 19 13 32t32 13t32 -13t13 -32t-13 -32t-32 -13t-32 13t-13 32z" />
    <glyph glyph-name="ograve.sc" horiz-adv-x="750" 
d="M50 300q0 135 93.5 227.5t231.5 92.5t231.5 -92.5t93.5 -227.5t-93.5 -227.5t-231.5 -92.5t-231.5 92.5t-93.5 227.5zM115 300q0 -112 73.5 -186t186.5 -74t186.5 74t73.5 186t-73.5 186t-186.5 74t-186.5 -74t-73.5 -186zM240 834v1h75l90 -145h-50z" />
    <glyph glyph-name="ohungarumlaut.sc" horiz-adv-x="750" 
d="M50 300q0 135 93.5 227.5t231.5 92.5t231.5 -92.5t93.5 -227.5t-93.5 -227.5t-231.5 -92.5t-231.5 92.5t-93.5 227.5zM115 300q0 -112 73.5 -186t186.5 -74t186.5 74t73.5 186t-73.5 186t-186.5 74t-186.5 -74t-73.5 -186zM405 690l75 145h70v-1l-100 -144h-45zM260 690
l75 145h70v-1l-100 -144h-45z" />
    <glyph glyph-name="omacron.sc" horiz-adv-x="750" 
d="M50 300q0 135 93.5 227.5t231.5 92.5t231.5 -92.5t93.5 -227.5t-93.5 -227.5t-231.5 -92.5t-231.5 92.5t-93.5 227.5zM115 300q0 -112 73.5 -186t186.5 -74t186.5 74t73.5 186t-73.5 186t-186.5 74t-186.5 -74t-73.5 -186zM245 725v55h255v-55h-255z" />
    <glyph glyph-name="oslash.sc" horiz-adv-x="750" 
d="M25 -5v70l76 59q-51 81 -51 176q0 135 93.5 227.5t231.5 92.5q144 0 239 -101l111 86v-70l-76 -59q51 -81 51 -176q0 -135 -93.5 -227.5t-231.5 -92.5q-145 0 -240 100zM115 300q0 -77 36 -138l414 320q-75 78 -190 78q-113 0 -186.5 -74t-73.5 -186zM599 437l-415 -319
q75 -78 191 -78q113 0 186.5 74t73.5 186q0 76 -36 137z" />
    <glyph glyph-name="otilde.sc" horiz-adv-x="750" 
d="M50 300q0 135 93.5 227.5t231.5 92.5t231.5 -92.5t93.5 -227.5t-93.5 -227.5t-231.5 -92.5t-231.5 92.5t-93.5 227.5zM115 300q0 -112 73.5 -186t186.5 -74t186.5 74t73.5 186t-73.5 186t-186.5 74t-186.5 -74t-73.5 -186zM225 700v26q0 37 23.5 60.5t61.5 23.5
q35 0 75 -32q37 -33 55 -33q15 0 25 10t10 25v25h50v-26q0 -37 -23.5 -60.5t-61.5 -23.5q-37 0 -74 33q-2 1 -11 9t-12 9.5t-10 6t-12 6t-11 1.5q-15 0 -25 -10t-10 -25v-25h-50z" />
    <glyph glyph-name="oe.sc" horiz-adv-x="1060" 
d="M50 300q0 135 91.5 227.5t223.5 92.5q106 0 189 -65q34 -27 61 -65v110h400v-60h-335v-205h275v-60h-275v-215h335v-60h-400v110q-25 -36 -61 -65q-81 -65 -189 -65q-132 0 -223.5 92.5t-91.5 227.5zM115 300q0 -112 72.5 -186t178.5 -74q105 0 177 74t72 186t-72 186
t-178 74t-178 -74t-72 -186z" />
    <glyph glyph-name="p.sc" horiz-adv-x="620" 
d="M90 0v600h265q103 0 164 -55.5t61 -139.5q0 -85 -61 -140t-164 -55h-200v-210h-65zM155 270h200q77 0 118.5 36.5t41.5 98.5t-41.5 98.5t-118.5 36.5h-200v-270z" />
    <glyph glyph-name="q.sc" horiz-adv-x="750" 
d="M50 300q0 135 93.5 227.5t231.5 92.5t231.5 -92.5t93.5 -227.5q0 -128 -83.5 -218t-211.5 -100v-162h-60v162q-128 10 -211.5 100t-83.5 218zM115 300q0 -112 73.5 -186t186.5 -74t186.5 74t73.5 186t-73.5 186t-186.5 74t-186.5 -74t-73.5 -186z" />
    <glyph glyph-name="r.sc" horiz-adv-x="635" 
d="M90 0v600h270q98 0 159 -54t61 -131q0 -70 -43 -118t-117 -67l150 -230h-75l-145 225h-195v-225h-65zM155 285h205q73 0 114 36t41 94q0 55 -41 90t-114 35h-205v-255z" />
    <glyph glyph-name="racute.sc" horiz-adv-x="635" 
d="M90 0v600h270q98 0 159 -54t61 -131q0 -70 -43 -118t-117 -67l150 -230h-75l-145 225h-195v-225h-65zM155 285h205q73 0 114 36t41 94q0 55 -41 90t-114 35h-205v-255zM275 690l90 145h75v-1l-115 -144h-50z" />
    <glyph glyph-name="rcaron.sc" horiz-adv-x="635" 
d="M90 0v600h270q98 0 159 -54t61 -131q0 -70 -43 -118t-117 -67l150 -230h-75l-145 225h-195v-225h-65zM155 285h205q73 0 114 36t41 94q0 55 -41 90t-114 35h-205v-255zM175 834v1h60l75 -100h15l75 100h60v-1l-110 -144h-65z" />
    <glyph glyph-name="rcommaaccent.sc" horiz-adv-x="635" 
d="M90 0v600h270q98 0 159 -54t61 -131q0 -70 -43 -118t-117 -67l150 -230h-75l-145 225h-195v-225h-65zM155 285h205q73 0 114 36t41 94q0 55 -41 90t-114 35h-205v-255zM270 -140q0 15 13.5 27.5t31.5 12.5q24 0 39.5 -19t15.5 -56q0 -44 -26 -72.5t-69 -32.5v30
q55 7 55 55q0 2 -3 14l-2 6l-4 -3q-8 -2 -11 -2q-40 0 -40 40z" />
    <glyph glyph-name="s.sc" 
d="M45 160h65q10 -33 37 -60q56 -60 158 -60q84 0 132 35.5t48 84.5q0 19 -7 34.5t-24.5 27.5t-32 20t-44.5 16.5t-45.5 12.5t-51.5 12q-43 9 -75.5 20.5t-64 30t-48.5 48t-17 68.5q0 71 60.5 120.5t164.5 49.5q129 0 199 -80q31 -35 41 -80h-65q-9 28 -31 50
q-50 50 -144 50q-75 0 -117.5 -33t-42.5 -77q0 -23 12.5 -41t29.5 -29.5t48 -22t53.5 -16t61.5 -13.5q44 -10 76 -21.5t64 -30.5t48.5 -48t16.5 -68q0 -75 -66.5 -127.5t-178.5 -52.5q-140 0 -214 90q-32 40 -46 90z" />
    <glyph glyph-name="sacute.sc" 
d="M45 160h65q10 -33 37 -60q56 -60 158 -60q84 0 132 35.5t48 84.5q0 19 -7 34.5t-24.5 27.5t-32 20t-44.5 16.5t-45.5 12.5t-51.5 12q-43 9 -75.5 20.5t-64 30t-48.5 48t-17 68.5q0 71 60.5 120.5t164.5 49.5q129 0 199 -80q31 -35 41 -80h-65q-9 28 -31 50
q-50 50 -144 50q-75 0 -117.5 -33t-42.5 -77q0 -23 12.5 -41t29.5 -29.5t48 -22t53.5 -16t61.5 -13.5q44 -10 76 -21.5t64 -30.5t48.5 -48t16.5 -68q0 -75 -66.5 -127.5t-178.5 -52.5q-140 0 -214 90q-32 40 -46 90zM269 684l90 145h75v-1l-115 -144h-50z" />
    <glyph glyph-name="scaron.sc" 
d="M45 160h65q10 -33 37 -60q56 -60 158 -60q84 0 132 35.5t48 84.5q0 19 -7 34.5t-24.5 27.5t-32 20t-44.5 16.5t-45.5 12.5t-51.5 12q-43 9 -75.5 20.5t-64 30t-48.5 48t-17 68.5q0 71 60.5 120.5t164.5 49.5q129 0 199 -80q31 -35 41 -80h-65q-9 28 -31 50
q-50 50 -144 50q-75 0 -117.5 -33t-42.5 -77q0 -23 12.5 -41t29.5 -29.5t48 -22t53.5 -16t61.5 -13.5q44 -10 76 -21.5t64 -30.5t48.5 -48t16.5 -68q0 -75 -66.5 -127.5t-178.5 -52.5q-140 0 -214 90q-32 40 -46 90zM160 831v1h60l75 -100h15l75 100h60v-1l-110 -144h-65z
" />
    <glyph glyph-name="scedilla.sc" 
d="M45 160h65q10 -33 37 -60q56 -60 158 -60q84 0 132 35.5t48 84.5q0 19 -7 34.5t-24.5 27.5t-32 20t-44.5 16.5t-45.5 12.5t-51.5 12q-43 9 -75.5 20.5t-64 30t-48.5 48t-17 68.5q0 71 60.5 120.5t164.5 49.5q129 0 199 -80q31 -35 41 -80h-65q-9 28 -31 50
q-50 50 -144 50q-75 0 -117.5 -33t-42.5 -77q0 -23 12.5 -41t29.5 -29.5t48 -22t53.5 -16t61.5 -13.5q44 -10 76 -21.5t64 -30.5t48.5 -48t16.5 -68q0 -71 -60.5 -122t-163.5 -57l-16 -36q34 -4 57 -28t23 -57q0 -43 -28.5 -69t-76.5 -26q-28 0 -52 10q-12 5 -18 10v45
q6 -5 18 -10q24 -10 52 -10q26 0 40.5 13.5t14.5 36.5q0 20 -15.5 32.5t-44.5 12.5h-35l36 76q-130 6 -195 94q-30 38 -41 85z" />
    <glyph glyph-name="scommaaccent.sc" 
d="M45 160h65q10 -33 37 -60q56 -60 158 -60q84 0 132 35.5t48 84.5q0 19 -7 34.5t-24.5 27.5t-32 20t-44.5 16.5t-45.5 12.5t-51.5 12q-43 9 -75.5 20.5t-64 30t-48.5 48t-17 68.5q0 71 60.5 120.5t164.5 49.5q129 0 199 -80q31 -35 41 -80h-65q-9 28 -31 50
q-50 50 -144 50q-75 0 -117.5 -33t-42.5 -77q0 -23 12.5 -41t29.5 -29.5t48 -22t53.5 -16t61.5 -13.5q44 -10 76 -21.5t64 -30.5t48.5 -48t16.5 -68q0 -75 -66.5 -127.5t-178.5 -52.5q-140 0 -214 90q-32 40 -46 90zM260 -140q0 15 13.5 27.5t31.5 12.5q24 0 39.5 -19
t15.5 -56q0 -44 -26 -72.5t-69 -32.5v30q55 7 55 55q0 2 -3 14l-2 6l-4 -3q-8 -2 -11 -2q-40 0 -40 40z" />
    <glyph glyph-name="t.sc" horiz-adv-x="535" 
d="M10 540v60h515v-60h-225v-540h-65v540h-225z" />
    <glyph glyph-name="tcaron.sc" horiz-adv-x="535" 
d="M10 540v60h515v-60h-225v-540h-65v540h-225zM125 834v1h60l75 -100h15l75 100h60v-1l-110 -144h-65z" />
    <glyph glyph-name="tcommaaccent.sc" horiz-adv-x="535" 
d="M10 540v60h515v-60h-225v-540h-65v540h-225zM220 -140q0 15 13.5 27.5t31.5 12.5q24 0 39.5 -19t15.5 -56q0 -44 -26 -72.5t-69 -32.5v30q55 7 55 55q0 2 -3 14l-2 6l-4 -3q-8 -2 -11 -2q-40 0 -40 40z" />
    <glyph glyph-name="uni021B.sc" horiz-adv-x="535" 
d="M10 540v60h515v-60h-225v-540h-65v540h-225zM220 -140q0 15 13.5 27.5t31.5 12.5q24 0 39.5 -19t15.5 -56q0 -44 -26 -72.5t-69 -32.5v30q55 7 55 55q0 2 -3 14l-2 6l-4 -3q-8 -2 -11 -2q-40 0 -40 40z" />
    <glyph glyph-name="u.sc" horiz-adv-x="670" 
d="M85 230v370h65v-370q0 -90 49 -140t136 -50t136 50t49 140v370h65v-370q0 -112 -69 -181t-181 -69t-181 69t-69 181z" />
    <glyph glyph-name="uacute.sc" horiz-adv-x="670" 
d="M85 230v370h65v-370q0 -90 49 -140t136 -50t136 50t49 140v370h65v-370q0 -112 -69 -181t-181 -69t-181 69t-69 181zM300 690l90 145h75v-1l-115 -144h-50z" />
    <glyph glyph-name="ucircumflex.sc" horiz-adv-x="670" 
d="M85 230v370h65v-370q0 -90 49 -140t136 -50t136 50t49 140v370h65v-370q0 -112 -69 -181t-181 -69t-181 69t-69 181zM195 690v1l110 144h65l110 -144v-1h-60l-75 100h-15l-75 -100h-60z" />
    <glyph glyph-name="udieresis.sc" horiz-adv-x="670" 
d="M85 230v370h65v-370q0 -90 49 -140t136 -50t136 50t49 140v370h65v-370q0 -112 -69 -181t-181 -69t-181 69t-69 181zM375 750q0 19 13 32t32 13t32 -13t13 -32t-13 -32t-32 -13t-32 13t-13 32zM205 750q0 19 13 32t32 13t32 -13t13 -32t-13 -32t-32 -13t-32 13t-13 32z
" />
    <glyph glyph-name="ugrave.sc" horiz-adv-x="670" 
d="M85 230v370h65v-370q0 -90 49 -140t136 -50t136 50t49 140v370h65v-370q0 -112 -69 -181t-181 -69t-181 69t-69 181zM205 834v1h75l90 -145h-50z" />
    <glyph glyph-name="uhungarumlaut.sc" horiz-adv-x="670" 
d="M85 230v370h65v-370q0 -90 49 -140t136 -50t136 50t49 140v370h65v-370q0 -112 -69 -181t-181 -69t-181 69t-69 181zM380 690l75 145h70v-1l-100 -144h-45zM235 690l75 145h70v-1l-100 -144h-45z" />
    <glyph glyph-name="umacron.sc" horiz-adv-x="670" 
d="M85 230v370h65v-370q0 -90 49 -140t136 -50t136 50t49 140v370h65v-370q0 -112 -69 -181t-181 -69t-181 69t-69 181zM210 715v55h255v-55h-255z" />
    <glyph glyph-name="uogonek.sc" horiz-adv-x="670" 
d="M85 230v370h65v-370q0 -90 49 -140t136 -50t136 50t49 140v370h65v-370q0 -96 -46.5 -156.5t-123.5 -83.5q-27 -16 -50 -34q-50 -42 -50 -86q0 -19 13.5 -32t36.5 -13q25 0 48 7l22 8v-45q-6 -4 -20 -10q-26 -10 -50 -10q-44 0 -72 25.5t-28 64.5q0 49 37 86q18 18 37 29
h-4q-112 0 -181 69t-69 181z" />
    <glyph glyph-name="uring.sc" horiz-adv-x="670" 
d="M85 230v370h65v-370q0 -90 49 -140t136 -50t136 50t49 140v370h65v-370q0 -112 -69 -181t-181 -69t-181 69t-69 181zM240 760q0 42 29 71t71 29t71 -29t29 -71t-29 -71t-71 -29t-71 29t-29 71zM285 760q0 -23 16 -39t39 -16t39 16t16 39t-16 39t-39 16t-39 -16t-16 -39z
" />
    <glyph glyph-name="v.sc" horiz-adv-x="615" 
d="M25 600h70l145 -540h135l145 540h70l-165 -600h-235z" />
    <glyph glyph-name="w.sc" horiz-adv-x="875" 
d="M40 600h70l120 -540h30l120 540h115l120 -540h30l120 540h70l-135 -600h-130l-120 530h-25l-120 -530h-130z" />
    <glyph glyph-name="x.sc" horiz-adv-x="590" 
d="M20 0l175 305l-160 295h70l145 -265h90l145 265h70l-160 -295l175 -305h-70l-160 275h-90l-160 -275h-70z" />
    <glyph glyph-name="y.sc" horiz-adv-x="575" 
d="M10 600h75l200 -310h5l200 310h75l-245 -380v-220h-65v220z" />
    <glyph glyph-name="yacute.sc" horiz-adv-x="575" 
d="M10 600h75l200 -310h5l200 310h75l-245 -380v-220h-65v220zM260 690l90 145h75v-1l-115 -144h-50z" />
    <glyph glyph-name="ydieresis.sc" horiz-adv-x="575" 
d="M10 600h75l200 -310h5l200 310h75l-245 -380v-220h-65v220zM325 750q0 19 13 32t32 13t32 -13t13 -32t-13 -32t-32 -13t-32 13t-13 32zM155 750q0 19 13 32t32 13t32 -13t13 -32t-13 -32t-32 -13t-32 13t-13 32z" />
    <glyph glyph-name="z.sc" horiz-adv-x="550" 
d="M35 0v60l395 479v1h-380v60h465v-60l-395 -479v-1h395v-60h-480z" />
    <glyph glyph-name="zacute.sc" horiz-adv-x="550" 
d="M35 0v60l395 479v1h-380v60h465v-60l-395 -479v-1h395v-60h-480zM245 690l90 145h75v-1l-115 -144h-50z" />
    <glyph glyph-name="zcaron.sc" horiz-adv-x="550" 
d="M35 0v60l395 479v1h-380v60h465v-60l-395 -479v-1h395v-60h-480zM140 834v1h60l75 -100h15l75 100h60v-1l-110 -144h-65z" />
    <glyph glyph-name="zdotaccent.sc" horiz-adv-x="550" 
d="M35 0v60l395 479v1h-380v60h465v-60l-395 -479v-1h395v-60h-480zM240 750q0 19 13 32t32 13t32 -13t13 -32t-13 -32t-32 -13t-32 13t-13 32z" />
    <glyph glyph-name="germandbls.sc" horiz-adv-x="650" 
d="M85 0v380q0 107 60 163.5t175 56.5h240v-60l-160 -174v-1q92 -4 148.5 -56.5t56.5 -128.5q0 -75 -62.5 -127.5t-167.5 -52.5h-70v60h70q78 0 121.5 34.5t43.5 85.5q0 55 -43 90t-122 35h-55v60l160 175h-160q-88 0 -129 -40t-41 -120v-380h-65z" />
    <glyph glyph-name="uni1E9E.sc" horiz-adv-x="650" 
d="M85 0v380q0 107 60 163.5t175 56.5h240v-60l-160 -174v-1q92 -4 148.5 -56.5t56.5 -128.5q0 -75 -62.5 -127.5t-167.5 -52.5h-70v60h70q78 0 121.5 34.5t43.5 85.5q0 55 -43 90t-122 35h-55v60l160 175h-160q-88 0 -129 -40t-41 -120v-380h-65z" />
    <glyph glyph-name="thorn.sc" horiz-adv-x="650" 
d="M90 0v600h65v-115h240q99 0 157 -51.5t58 -128.5q0 -78 -58 -129t-157 -51h-240v-125h-65zM155 185h240q73 0 111.5 32.5t38.5 87.5t-38.5 87.5t-111.5 32.5h-240v-240z" />
    <glyph glyph-name="dollar.sc" 
d="M45 160h65q10 -33 37 -60q56 -60 158 -60q84 0 132 35.5t48 84.5q0 19 -7 34.5t-24.5 27.5t-32 20t-44.5 16.5t-45.5 12.5t-51.5 12q-43 9 -75.5 20.5t-64 30t-48.5 48t-17 68.5q0 65 50 112t140 56v82h65v-81q115 -10 174 -85q25 -33 36 -74h-65q-9 28 -31 50
q-50 50 -144 50q-75 0 -117.5 -33t-42.5 -77q0 -23 12.5 -41t29.5 -29.5t48 -22t53.5 -16t61.5 -13.5q44 -10 76 -21.5t64 -30.5t48.5 -48t16.5 -68q0 -71 -59 -122t-161 -57v-81h-65v82q-118 14 -181 96q-27 38 -39 82z" />
    <glyph glyph-name="Euro.sc" horiz-adv-x="760" 
d="M20 210v55h65v70h-65v55h75q37 98 118.5 164t191.5 66q152 0 242 -110q40 -48 63 -110h-65q-18 46 -51 80q-74 80 -189 80q-87 0 -154 -51.5t-91 -118.5h240v-55h-250v-70h250v-55h-240q24 -67 91 -118.5t154 -51.5q122 0 194 87q33 39 51 88h65q-22 -65 -63 -118
q-95 -117 -247 -117q-117 0 -199.5 66.5t-110.5 163.5h-75z" />
    <glyph glyph-name="sterling.sc" horiz-adv-x="515" 
d="M30 0v60h17q73 0 73 80v150h-70v60h70v105q0 75 51 125t129 50q99 0 150 -73q22 -31 30 -72h-65q-6 23 -20 42q-33 43 -95 43q-53 0 -84 -31t-31 -84v-105h155v-60h-155v-150q0 -51 -28 -73l-7 -6v-1h345v-60h-465z" />
    <glyph glyph-name="yen.sc" horiz-adv-x="575" 
d="M10 600h75l200 -300h5l200 300h75l-235 -355h135v-60h-145v-55h145v-60h-145v-70h-65v70h-145v60h145v55h-145v60h135z" />
    <glyph glyph-name="uni20BD.sc" horiz-adv-x="610" 
d="M35 95v60h75v65h-75v60h75v320h245q96 0 155.5 -54.5t59.5 -135.5t-59.5 -135.5t-155.5 -54.5h-180v-65h220v-60h-220v-95h-65v95h-75zM175 280h180q71 0 110.5 36t39.5 94t-39.5 94t-110.5 36h-180v-260z" />
    <glyph glyph-name="currency.sc" horiz-adv-x="610" 
d="M35 95v60h75v65h-75v60h75v320h245q96 0 155.5 -54.5t59.5 -135.5t-59.5 -135.5t-155.5 -54.5h-180v-65h220v-60h-220v-95h-65v95h-75zM175 280h180q71 0 110.5 36t39.5 94t-39.5 94t-110.5 36h-180v-260z" />
    <glyph glyph-name="uni20B4.sc" horiz-adv-x="595" 
d="M55 330v60h355q11 7 22 18q23 25 23 52q0 44 -37.5 72t-112.5 28q-88 0 -142 -50q-23 -23 -33 -50h-65q10 45 41 80q70 80 199 80q101 0 158 -46.5t57 -113.5q0 -34 -13 -54q-4 -10 -12 -16h45v-60h-485zM55 210v60h485v-60h-355q-11 -6 -23 -18q-22 -24 -22 -52
q0 -44 37.5 -72t112.5 -28q88 0 142 50q23 23 33 50h65q-10 -45 -41 -80q-70 -80 -199 -80q-101 0 -158 46.5t-57 113.5q0 35 12 54q4 9 13 16h-45z" />
    <glyph glyph-name="afii10065.sc" horiz-adv-x="615" 
d="M25 0l165 600h235l165 -600h-65l-50 190h-335l-50 -190h-65zM155 250h305l-80 290h-145z" />
    <glyph glyph-name="afii10066.sc" horiz-adv-x="620" 
d="M90 0v600h435v-60h-370v-170h205q92 0 151 -54t59 -131t-59 -131t-151 -54h-270zM155 60h205q67 0 106 35t39 90t-39 90t-106 35h-205v-250z" />
    <glyph glyph-name="afii10067.sc" horiz-adv-x="650" 
d="M90 0v600h300q77 0 126 -45t49 -110q0 -67 -43 -106q-18 -17 -42 -24v-5q30 -6 57 -23q58 -38 58 -117q0 -70 -57.5 -120t-149.5 -50h-298zM155 340h235q52 0 81 27t29 73t-29 73t-81 27h-235v-200zM155 60h235q66 0 103 31.5t37 78.5t-37 78.5t-103 31.5h-235v-220z" />
    <glyph glyph-name="afii10068.sc" horiz-adv-x="515" 
d="M90 0v600h405v-60h-340v-540h-65z" />
    <glyph glyph-name="afii10069.sc" horiz-adv-x="660" 
d="M5 -130v190h70l140 540h230l140 -540h70v-190h-65v130h-520v-130h-65zM140 60h380l-125 480h-130z" />
    <glyph glyph-name="afii10070.sc" horiz-adv-x="560" 
d="M90 0v600h425v-60h-360v-205h300v-60h-300v-215h360v-60h-425z" />
    <glyph glyph-name="afii10071.sc" horiz-adv-x="560" 
d="M90 0v600h425v-60h-360v-205h300v-60h-300v-215h360v-60h-425zM340 730q0 19 13 32t32 13t32 -13t13 -32t-13 -32t-32 -13t-32 13t-13 32zM170 730q0 19 13 32t32 13t32 -13t13 -32t-13 -32t-32 -13t-32 13t-13 32z" />
    <glyph glyph-name="afii10072.sc" horiz-adv-x="905" 
d="M10 0l225 310l-210 290h80l190 -265h125v265h65v-265h125l190 265h80l-210 -290l225 -310h-80l-200 275h-130v-275h-65v275h-130l-200 -275h-80z" />
    <glyph glyph-name="afii10073.sc" horiz-adv-x="590" 
d="M35 170h65q10 -36 36 -65q57 -65 164 -65q78 0 124 36t46 84q0 55 -43.5 90t-126.5 35h-85v60h85q68 0 109 33t41 77q0 45 -39 75t-111 30q-94 0 -146 -60q-24 -27 -34 -60h-65q14 51 44 90q70 90 201 90q97 0 156 -49t59 -116q0 -65 -50 -107q-22 -18 -50 -28v-5
q37 -11 60 -29q60 -45 60 -126q0 -75 -63.5 -127.5t-171.5 -52.5q-146 0 -219 95q-32 39 -46 95z" />
    <glyph glyph-name="afii10074.sc" horiz-adv-x="680" 
d="M90 0v600h65v-510l-1 -10h1l350 520h85v-600h-65v510l1 10h-1l-350 -520h-85z" />
    <glyph glyph-name="afii10075.sc" horiz-adv-x="680" 
d="M90 0v600h65v-510l-1 -10h1l350 520h85v-600h-65v510l1 10h-1l-350 -520h-85zM190 810h55q0 -39 25.5 -62t69.5 -23t69.5 23t25.5 62h55q0 -57 -42 -96t-108 -39t-108 39t-42 96z" />
    <glyph glyph-name="afii10076.sc" horiz-adv-x="590" 
d="M90 0v600h65v-265h145l190 265h80l-210 -290l220 -310h-80l-195 275h-150v-275h-65z" />
    <glyph glyph-name="afii10077.sc" horiz-adv-x="605" 
d="M25 0l160 600h235l160 -600h-65l-145 540h-135l-145 -540h-65z" />
    <glyph glyph-name="afii10078.sc" horiz-adv-x="845" 
d="M90 0v600h105l200 -390h55l200 390h105v-600h-65v530l1 10h-1l-200 -390h-135l-200 390h-1l1 -10v-530h-65z" />
    <glyph glyph-name="afii10079.sc" horiz-adv-x="670" 
d="M90 0v600h65v-265h360v265h65v-600h-65v275h-360v-275h-65z" />
    <glyph glyph-name="afii10080.sc" horiz-adv-x="750" 
d="M50 300q0 135 93.5 227.5t231.5 92.5t231.5 -92.5t93.5 -227.5t-93.5 -227.5t-231.5 -92.5t-231.5 92.5t-93.5 227.5zM115 300q0 -112 73.5 -186t186.5 -74t186.5 74t73.5 186t-73.5 186t-186.5 74t-186.5 -74t-73.5 -186z" />
    <glyph glyph-name="afii10081.sc" horiz-adv-x="665" 
d="M90 0v600h485v-600h-65v540h-355v-540h-65z" />
    <glyph glyph-name="afii10082.sc" horiz-adv-x="620" 
d="M90 0v600h265q103 0 164 -55.5t61 -139.5q0 -85 -61 -140t-164 -55h-200v-210h-65zM155 270h200q77 0 118.5 36.5t41.5 98.5t-41.5 98.5t-118.5 36.5h-200v-270z" />
    <glyph glyph-name="afii10083.sc" horiz-adv-x="725" 
d="M50 300q0 131 94.5 225.5t225.5 94.5q152 0 242 -110q40 -48 63 -110h-65q-18 46 -51 80q-74 80 -189 80q-105 0 -180 -76t-75 -184t75 -184t180 -76q122 0 194 87q33 39 51 88h65q-22 -65 -63 -118q-95 -117 -247 -117q-131 0 -225.5 94.5t-94.5 225.5z" />
    <glyph glyph-name="afii10084.sc" horiz-adv-x="535" 
d="M10 540v60h515v-60h-225v-540h-65v540h-225z" />
    <glyph glyph-name="afii10085.sc" horiz-adv-x="560" 
d="M15 600h70l130 -325h135l135 325h70l-250 -600h-70l90 215h-155z" />
    <glyph glyph-name="afii10086.sc" horiz-adv-x="805" 
d="M45 305q0 109 88 185t237 80v70h65v-70q149 -4 237 -80t88 -185t-88 -185t-237 -80v-70h-65v70q-149 4 -237 80t-88 185zM435 510v-410q124 4 192 61.5t68 143.5t-68 143.5t-192 61.5zM110 305q0 -86 68 -143.5t192 -61.5v410q-124 -4 -192 -61.5t-68 -143.5z" />
    <glyph glyph-name="afii10087.sc" horiz-adv-x="590" 
d="M20 0l175 305l-160 295h70l145 -265h90l145 265h70l-160 -295l175 -305h-70l-160 275h-90l-160 -275h-70z" />
    <glyph glyph-name="afii10088.sc" horiz-adv-x="655" 
d="M90 0v600h65v-540h335v540h65v-540h80v-190h-65v130h-480z" />
    <glyph glyph-name="afii10089.sc" horiz-adv-x="635" 
d="M75 400v200h65v-200q0 -75 40 -115t115 -40q73 0 132 27q32 13 53 28v300h65v-600h-65v240q-22 -15 -54 -28q-63 -27 -136 -27q-98 0 -156.5 58.5t-58.5 156.5z" />
    <glyph glyph-name="afii10090.sc" horiz-adv-x="925" 
d="M90 0v600h65v-540h275v540h66v-540h274v540h65v-600h-745z" />
    <glyph glyph-name="afii10091.sc" horiz-adv-x="935" 
d="M90 0v600h65v-540h275v540h66v-540h274v540h65v-540h80v-190h-65v130h-760z" />
    <glyph glyph-name="afii10092.sc" horiz-adv-x="650" 
d="M-5 540v60h210v-210h185q103 0 164 -55.5t61 -139.5q0 -85 -61 -140t-164 -55h-250v540h-145zM205 60h185q77 0 118.5 36.5t41.5 98.5t-41.5 98.5t-118.5 36.5h-185v-270z" />
    <glyph glyph-name="afii10093.sc" horiz-adv-x="795" 
d="M640 0v600h65v-600h-65zM90 0v600h65v-210h185q103 0 164 -55.5t61 -139.5q0 -85 -61 -140t-164 -55h-250zM155 60h185q77 0 118.5 36.5t41.5 98.5t-41.5 98.5t-118.5 36.5h-185v-270z" />
    <glyph glyph-name="afii10094.sc" horiz-adv-x="610" 
d="M90 0v600h65v-210h195q103 0 164 -55.5t61 -139.5q0 -85 -61 -140t-164 -55h-260zM155 60h195q77 0 118.5 36.5t41.5 98.5t-41.5 98.5t-118.5 36.5h-195v-270z" />
    <glyph glyph-name="afii10095.sc" horiz-adv-x="720" 
d="M40 215h65q18 -49 51 -88q73 -87 194 -87q100 0 169.5 65.5t85.5 169.5h-275v60h275q-16 97 -86 161t-169 64q-115 0 -189 -80q-33 -34 -51 -80h-65q24 64 62 110q90 110 243 110q134 0 227 -93t93 -227q0 -131 -94.5 -225.5t-225.5 -94.5q-152 0 -247 117
q-41 53 -63 118z" />
    <glyph glyph-name="afii10096.sc" horiz-adv-x="940" 
d="M90 0v600h65v-265h125q14 124 98.5 204.5t206.5 80.5q129 0 217 -91t88 -229t-88 -229t-217 -91q-123 0 -210 85t-95 210h-125v-275h-65zM345 300q0 -115 68.5 -187.5t171.5 -72.5t171.5 72.5t68.5 187.5t-68.5 187.5t-171.5 72.5t-171.5 -72.5t-68.5 -187.5z" />
    <glyph glyph-name="afii10097.sc" horiz-adv-x="640" 
d="M60 415q0 81 60 133t165 52h265v-600h-65v225h-210l-130 -225h-75l135 235q-42 12 -73 36q-72 54 -72 144zM125 415q0 -59 41.5 -94.5t118.5 -35.5h200v255h-200q-81 0 -120.5 -33t-39.5 -92z" />
    <glyph glyph-name="afii10098.sc" horiz-adv-x="515" 
d="M90 0v600h340v90h65v-150h-340v-540h-65z" />
    <glyph glyph-name="afii10099.sc" horiz-adv-x="715" 
d="M10 540v60h480v-60h-220v-180h175q104 0 162 -54.5t58 -145.5v-240h-200v60h135v180q0 140 -156 140h-174v-300h-65v540h-195z" />
    <glyph glyph-name="afii10100.sc" horiz-adv-x="515" 
d="M90 0v600h405v-60h-340v-540h-65zM260 680l90 145h75v-1l-115 -144h-50z" />
    <glyph glyph-name="afii10101.sc" horiz-adv-x="725" 
d="M50 300q0 134 93 227t227 93q153 0 243 -110q38 -46 62 -110h-65q-18 46 -51 80q-74 80 -189 80q-99 0 -169.5 -64.5t-85.5 -160.5h275v-60h-275q14 -103 84.5 -169t170.5 -66q122 0 194 87q33 39 51 88h65q-22 -65 -63 -118q-95 -117 -247 -117q-131 0 -225.5 94.5
t-94.5 225.5z" />
    <glyph glyph-name="afii10102.sc" 
d="M45 160h65q10 -33 37 -60q56 -60 158 -60q84 0 132 35.5t48 84.5q0 19 -7 34.5t-24.5 27.5t-32 20t-44.5 16.5t-45.5 12.5t-51.5 12q-43 9 -75.5 20.5t-64 30t-48.5 48t-17 68.5q0 71 60.5 120.5t164.5 49.5q129 0 199 -80q31 -35 41 -80h-65q-9 28 -31 50
q-50 50 -144 50q-75 0 -117.5 -33t-42.5 -77q0 -23 12.5 -41t29.5 -29.5t48 -22t53.5 -16t61.5 -13.5q44 -10 76 -21.5t64 -30.5t48.5 -48t16.5 -68q0 -75 -66.5 -127.5t-178.5 -52.5q-140 0 -214 90q-32 40 -46 90z" />
    <glyph glyph-name="afii10103.sc" horiz-adv-x="245" 
d="M90 0v600h65v-600h-65z" />
    <glyph glyph-name="afii10104.sc" horiz-adv-x="245" 
d="M90 0v600h65v-600h-65zM165 730q0 19 13 32t32 13t32 -13t13 -32t-13 -32t-32 -13t-32 13t-13 32zM-5 730q0 19 13 32t32 13t32 -13t13 -32t-13 -32t-32 -13t-32 13t-13 32z" />
    </font>
</defs>
</svg>
