<svg width="41" height="41" viewBox="0 0 41 41" fill="none" xmlns="http://www.w3.org/2000/svg">
<g filter="url(#filter0_i_114_1672)">
<circle cx="20.5" cy="20.5" r="20.5" fill="#E08976"/>
</g>
<path d="M15.234 26.971C13.708 25.445 12.945 23.548 12.945 21.28C12.945 19.012 13.708 17.115 15.234 15.589C16.76 14.063 18.657 13.3 20.925 13.3C23.081 13.3 24.859 13.965 26.259 15.295C27.673 16.625 28.38 18.095 28.38 19.705C28.38 21.245 27.925 22.456 27.015 23.338C26.105 24.206 24.81 24.64 23.13 24.64H22.395V23.59H22.374C22.346 23.618 22.304 23.688 22.248 23.8C21.814 24.5 21.128 24.85 20.19 24.85C19.378 24.85 18.664 24.514 18.048 23.842C17.446 23.156 17.145 22.302 17.145 21.28C17.145 20.258 17.446 19.411 18.048 18.739C18.664 18.053 19.378 17.71 20.19 17.71C21.226 17.71 21.954 18.13 22.374 18.97H22.395V17.92H24.075V23.065C24.845 23.065 25.475 22.771 25.965 22.183C26.455 21.595 26.7 20.769 26.7 19.705C26.7 18.403 26.182 17.276 25.146 16.324C24.124 15.358 22.717 14.875 20.925 14.875C19.035 14.875 17.495 15.47 16.305 16.66C15.115 17.85 14.52 19.39 14.52 21.28C14.52 23.17 15.115 24.71 16.305 25.9C17.495 27.09 19.035 27.685 20.925 27.685C21.891 27.685 22.843 27.51 23.781 27.16C24.131 27.034 24.509 26.859 24.915 26.635V28.21C24.509 28.434 24.131 28.609 23.781 28.735C22.843 29.085 21.891 29.26 20.925 29.26C18.657 29.26 16.76 28.497 15.234 26.971ZM19.308 19.831C18.986 20.181 18.825 20.664 18.825 21.28C18.825 21.896 18.986 22.386 19.308 22.75C19.63 23.1 20.064 23.275 20.61 23.275C21.156 23.275 21.59 23.1 21.912 22.75C22.234 22.386 22.395 21.896 22.395 21.28C22.395 20.664 22.234 20.181 21.912 19.831C21.59 19.467 21.156 19.285 20.61 19.285C20.064 19.285 19.63 19.467 19.308 19.831Z" fill="white"/>
<defs>
<filter id="filter0_i_114_1672" x="0" y="0" width="41" height="45" filterUnits="userSpaceOnUse" color-interpolation-filters="sRGB">
<feFlood flood-opacity="0" result="BackgroundImageFix"/>
<feBlend mode="normal" in="SourceGraphic" in2="BackgroundImageFix" result="shape"/>
<feColorMatrix in="SourceAlpha" type="matrix" values="0 0 0 0 0 0 0 0 0 0 0 0 0 0 0 0 0 0 127 0" result="hardAlpha"/>
<feOffset dy="4"/>
<feGaussianBlur stdDeviation="4"/>
<feComposite in2="hardAlpha" operator="arithmetic" k2="-1" k3="1"/>
<feColorMatrix type="matrix" values="0 0 0 0 1 0 0 0 0 1 0 0 0 0 1 0 0 0 0.25 0"/>
<feBlend mode="normal" in2="shape" result="effect1_innerShadow_114_1672"/>
</filter>
</defs>
</svg>
