<svg width="765" height="43" viewBox="0 0 765 43" fill="none" xmlns="http://www.w3.org/2000/svg">
<mask id="mask0_114_1578" style="mask-type:alpha" maskUnits="userSpaceOnUse" x="0" y="0" width="765" height="43">
<rect width="765" height="43" rx="10" fill="url(#paint0_linear_114_1578)"/>
</mask>
<g mask="url(#mask0_114_1578)">
<line opacity="0.2" x1="16.1336" y1="-1.24142" x2="-18.5708" y2="46.7232" stroke="white" stroke-width="6"/>
<line opacity="0.2" x1="257.136" y1="-1.24142" x2="222.431" y2="46.7232" stroke="white" stroke-width="6"/>
<line opacity="0.2" x1="499.136" y1="-1.24142" x2="464.431" y2="46.7232" stroke="white" stroke-width="6"/>
<line opacity="0.2" x1="32.4305" y1="-1.24142" x2="-2.2739" y2="46.7232" stroke="white" stroke-width="6"/>
<line opacity="0.2" x1="273.431" y1="-1.24142" x2="238.726" y2="46.7232" stroke="white" stroke-width="6"/>
<line opacity="0.2" x1="515.431" y1="-1.24142" x2="480.726" y2="46.7232" stroke="white" stroke-width="6"/>
<line opacity="0.2" x1="48.4305" y1="-1.24142" x2="13.7261" y2="46.7232" stroke="white" stroke-width="6"/>
<line opacity="0.2" x1="289.431" y1="-1.24142" x2="254.726" y2="46.7232" stroke="white" stroke-width="6"/>
<line opacity="0.2" x1="531.431" y1="-1.24142" x2="496.726" y2="46.7232" stroke="white" stroke-width="6"/>
<line opacity="0.2" x1="64.4305" y1="-1.24142" x2="29.7261" y2="46.7232" stroke="white" stroke-width="6"/>
<line opacity="0.2" x1="305.431" y1="-1.24142" x2="270.726" y2="46.7232" stroke="white" stroke-width="6"/>
<line opacity="0.2" x1="547.431" y1="-1.24142" x2="512.726" y2="46.7232" stroke="white" stroke-width="6"/>
<line opacity="0.2" x1="80.4305" y1="-1.24142" x2="45.7261" y2="46.7232" stroke="white" stroke-width="6"/>
<line opacity="0.2" x1="321.431" y1="-1.24142" x2="286.726" y2="46.7232" stroke="white" stroke-width="6"/>
<line opacity="0.2" x1="563.431" y1="-1.24142" x2="528.726" y2="46.7232" stroke="white" stroke-width="6"/>
<line opacity="0.2" x1="96.4305" y1="-1.24142" x2="61.7261" y2="46.7232" stroke="white" stroke-width="6"/>
<line opacity="0.2" x1="337.431" y1="-1.24142" x2="302.726" y2="46.7232" stroke="white" stroke-width="6"/>
<line opacity="0.2" x1="579.431" y1="-1.24142" x2="544.726" y2="46.7232" stroke="white" stroke-width="6"/>
<line opacity="0.2" x1="112.431" y1="-1.24142" x2="77.7261" y2="46.7232" stroke="white" stroke-width="6"/>
<line opacity="0.2" x1="353.431" y1="-1.24142" x2="318.726" y2="46.7232" stroke="white" stroke-width="6"/>
<line opacity="0.2" x1="595.431" y1="-1.24142" x2="560.726" y2="46.7232" stroke="white" stroke-width="6"/>
<line opacity="0.2" x1="128.431" y1="-1.24142" x2="93.7261" y2="46.7232" stroke="white" stroke-width="6"/>
<line opacity="0.2" x1="369.431" y1="-1.24142" x2="334.726" y2="46.7232" stroke="white" stroke-width="6"/>
<line opacity="0.2" x1="611.431" y1="-1.24142" x2="576.726" y2="46.7232" stroke="white" stroke-width="6"/>
<line opacity="0.2" x1="144.431" y1="-1.24142" x2="109.726" y2="46.7232" stroke="white" stroke-width="6"/>
<line opacity="0.2" x1="385.431" y1="-1.24142" x2="350.726" y2="46.7232" stroke="white" stroke-width="6"/>
<line opacity="0.2" x1="627.431" y1="-1.24142" x2="592.726" y2="46.7232" stroke="white" stroke-width="6"/>
<line opacity="0.2" x1="160.431" y1="-1.24142" x2="125.726" y2="46.7232" stroke="white" stroke-width="6"/>
<line opacity="0.2" x1="401.431" y1="-1.24142" x2="366.726" y2="46.7232" stroke="white" stroke-width="6"/>
<line opacity="0.2" x1="643.431" y1="-1.24142" x2="608.726" y2="46.7232" stroke="white" stroke-width="6"/>
<line opacity="0.2" x1="739.136" y1="-1.24142" x2="704.431" y2="46.7232" stroke="white" stroke-width="6"/>
<line opacity="0.2" x1="176.431" y1="-1.24142" x2="141.726" y2="46.7232" stroke="white" stroke-width="6"/>
<line opacity="0.2" x1="417.431" y1="-1.24142" x2="382.726" y2="46.7232" stroke="white" stroke-width="6"/>
<line opacity="0.2" x1="659.431" y1="-1.24142" x2="624.726" y2="46.7232" stroke="white" stroke-width="6"/>
<line opacity="0.2" x1="755.136" y1="-1.24142" x2="720.431" y2="46.7232" stroke="white" stroke-width="6"/>
<line opacity="0.2" x1="192.431" y1="-1.24142" x2="157.726" y2="46.7232" stroke="white" stroke-width="6"/>
<line opacity="0.2" x1="433.431" y1="-1.24142" x2="398.726" y2="46.7232" stroke="white" stroke-width="6"/>
<line opacity="0.2" x1="675.431" y1="-1.24142" x2="640.726" y2="46.7232" stroke="white" stroke-width="6"/>
<line opacity="0.2" x1="771.136" y1="-1.24142" x2="736.431" y2="46.7232" stroke="white" stroke-width="6"/>
<line opacity="0.2" x1="208.431" y1="-1.24142" x2="173.726" y2="46.7232" stroke="white" stroke-width="6"/>
<line opacity="0.2" x1="449.431" y1="-1.24142" x2="414.726" y2="46.7232" stroke="white" stroke-width="6"/>
<line opacity="0.2" x1="691.431" y1="-1.24142" x2="656.726" y2="46.7232" stroke="white" stroke-width="6"/>
<line opacity="0.2" x1="787.136" y1="-1.24142" x2="752.431" y2="46.7232" stroke="white" stroke-width="6"/>
<line opacity="0.2" x1="224.431" y1="-1.24142" x2="189.726" y2="46.7232" stroke="white" stroke-width="6"/>
<line opacity="0.2" x1="465.431" y1="-1.24142" x2="430.726" y2="46.7232" stroke="white" stroke-width="6"/>
<line opacity="0.2" x1="707.431" y1="-1.24142" x2="672.726" y2="46.7232" stroke="white" stroke-width="6"/>
<line opacity="0.2" x1="240.431" y1="-1.24142" x2="205.726" y2="46.7232" stroke="white" stroke-width="6"/>
<line opacity="0.2" x1="481.431" y1="-1.24142" x2="446.726" y2="46.7232" stroke="white" stroke-width="6"/>
<line opacity="0.2" x1="723.431" y1="-1.24142" x2="688.726" y2="46.7232" stroke="white" stroke-width="6"/>
</g>
<defs>
<linearGradient id="paint0_linear_114_1578" x1="382.5" y1="0" x2="382.5" y2="43" gradientUnits="userSpaceOnUse">
<stop stop-color="#FDD779"/>
<stop offset="1" stop-color="#EAA833"/>
</linearGradient>
</defs>
</svg>
