<svg width="42" height="41" viewBox="0 0 42 41" fill="none" xmlns="http://www.w3.org/2000/svg">
<g filter="url(#filter0_i_114_1664)">
<circle cx="21.2227" cy="20.5" r="20.5" fill="#3A9BE2"/>
</g>
<path d="M27.0241 13.0881L11.1586 19.2062C10.0758 19.6411 10.0821 20.2451 10.9599 20.5144L15.0333 21.7851L24.4577 15.8389C24.9034 15.5678 25.3105 15.7136 24.9758 16.0107L17.3402 22.9019H17.3384L17.3402 22.9028L17.0592 27.1014C17.4708 27.1014 17.6525 26.9125 17.8833 26.6897L19.8618 24.7658L23.9772 27.8056C24.736 28.2235 25.281 28.0087 25.4698 27.1031L28.1713 14.3713C28.4478 13.2626 27.7481 12.7606 27.0241 13.0881V13.0881Z" fill="white"/>
<defs>
<filter id="filter0_i_114_1664" x="0.722656" y="0" width="41" height="45" filterUnits="userSpaceOnUse" color-interpolation-filters="sRGB">
<feFlood flood-opacity="0" result="BackgroundImageFix"/>
<feBlend mode="normal" in="SourceGraphic" in2="BackgroundImageFix" result="shape"/>
<feColorMatrix in="SourceAlpha" type="matrix" values="0 0 0 0 0 0 0 0 0 0 0 0 0 0 0 0 0 0 127 0" result="hardAlpha"/>
<feOffset dy="4"/>
<feGaussianBlur stdDeviation="4"/>
<feComposite in2="hardAlpha" operator="arithmetic" k2="-1" k3="1"/>
<feColorMatrix type="matrix" values="0 0 0 0 1 0 0 0 0 1 0 0 0 0 1 0 0 0 0.25 0"/>
<feBlend mode="normal" in2="shape" result="effect1_innerShadow_114_1664"/>
</filter>
</defs>
</svg>
