<svg width="41" height="41" viewBox="0 0 41 41" fill="none" xmlns="http://www.w3.org/2000/svg">
<g filter="url(#filter0_i_114_1668)">
<circle cx="20.5" cy="20.5" r="20.5" fill="#76E07A"/>
</g>
<g clip-path="url(#clip0_114_1668)">
<path fill-rule="evenodd" clip-rule="evenodd" d="M24.4651 22.2439C24.2469 22.1349 23.1773 21.6092 22.9781 21.536C22.779 21.4635 22.634 21.4276 22.4883 21.6458C22.3434 21.8625 21.9268 22.353 21.8001 22.498C21.6727 22.6437 21.5461 22.6613 21.3286 22.5529C21.1112 22.4431 20.4098 22.2139 19.5788 21.473C18.9323 20.8961 18.4952 20.1837 18.3686 19.9655C18.2419 19.7481 18.3546 19.6302 18.4637 19.5218C18.5618 19.4245 18.6812 19.2678 18.7903 19.1411C18.8994 19.0137 18.9352 18.9229 19.0077 18.7772C19.0809 18.6323 19.0443 18.5056 18.9894 18.3965C18.9352 18.2874 18.5003 17.2163 18.3188 16.7807C18.1423 16.3568 17.963 16.4146 17.8297 16.4073C17.7023 16.4014 17.5573 16.4 17.4124 16.4C17.2674 16.4 17.0317 16.4542 16.8325 16.6723C16.6326 16.8898 16.0711 17.4162 16.0711 18.4873C16.0711 19.5577 16.8501 20.5922 16.9592 20.7379C17.0683 20.8829 18.493 23.0808 20.6755 24.023C21.1954 24.2471 21.6002 24.3811 21.9158 24.4806C22.4371 24.6468 22.9115 24.6234 23.2864 24.567C23.7037 24.5048 24.5735 24.0406 24.755 23.5325C24.9359 23.0244 24.9359 22.5888 24.8817 22.498C24.8275 22.4072 24.6826 22.353 24.4644 22.2439H24.4651ZM20.4954 27.664H20.4925C19.1962 27.6642 17.9237 27.3158 16.8084 26.6551L16.5448 26.4984L13.8051 27.2174L14.5365 24.5465L14.3645 24.2727C13.6397 23.1191 13.2562 21.784 13.2582 20.4216C13.2597 16.4315 16.506 13.1851 20.4984 13.1851C22.4312 13.1851 24.2484 13.9392 25.6146 15.3069C26.2884 15.978 26.8225 16.776 27.186 17.6548C27.5494 18.5336 27.735 19.4758 27.7319 20.4268C27.7305 24.4169 24.4841 27.664 20.4954 27.664V27.664ZM26.6542 14.268C25.8475 13.456 24.8877 12.8121 23.8304 12.3738C22.7731 11.9354 21.6393 11.7112 20.4947 11.7143C15.6962 11.7143 11.7895 15.6202 11.7881 20.4209C11.7858 21.9487 12.1866 23.4501 12.95 24.7735L11.7148 29.2857L16.3303 28.0747C17.607 28.7704 19.0378 29.1348 20.4918 29.1349H20.4954C25.2939 29.1349 29.2006 25.2289 29.2021 20.4275C29.2056 19.2834 28.9823 18.1499 28.5449 17.0926C28.1076 16.0353 27.465 15.0753 26.6542 14.268" fill="white"/>
</g>
<defs>
<filter id="filter0_i_114_1668" x="0" y="0" width="41" height="45" filterUnits="userSpaceOnUse" color-interpolation-filters="sRGB">
<feFlood flood-opacity="0" result="BackgroundImageFix"/>
<feBlend mode="normal" in="SourceGraphic" in2="BackgroundImageFix" result="shape"/>
<feColorMatrix in="SourceAlpha" type="matrix" values="0 0 0 0 0 0 0 0 0 0 0 0 0 0 0 0 0 0 127 0" result="hardAlpha"/>
<feOffset dy="4"/>
<feGaussianBlur stdDeviation="4"/>
<feComposite in2="hardAlpha" operator="arithmetic" k2="-1" k3="1"/>
<feColorMatrix type="matrix" values="0 0 0 0 1 0 0 0 0 1 0 0 0 0 1 0 0 0 0.25 0"/>
<feBlend mode="normal" in2="shape" result="effect1_innerShadow_114_1668"/>
</filter>
<clipPath id="clip0_114_1668">
<rect width="17.5714" height="17.5714" fill="white" transform="translate(11.7148 11.7142)"/>
</clipPath>
</defs>
</svg>
